RubikHebrew-Medium.ufo
<glyph name="dollar" format="1">
  <advance width="644"/>
  <unicode hex="0024"/>
  <outline>
    <contour>
      <point x="352" y="-100" type="line"/>
      <point x="366" y="-100"/>
      <point x="376" y="-90"/>
      <point x="376" y="-76" type="curve"/>
      <point x="376" y="-7" type="line"/>
      <point x="516" y="8"/>
      <point x="607" y="83"/>
      <point x="607" y="200" type="curve" smooth="yes"/>
      <point x="607" y="318"/>
      <point x="534" y="367"/>
      <point x="363" y="405" type="curve" smooth="yes"/>
      <point x="242" y="436"/>
      <point x="199" y="458"/>
      <point x="199" y="512" type="curve" smooth="yes"/>
      <point x="199" y="567"/>
      <point x="245" y="594"/>
      <point x="317" y="594" type="curve" smooth="yes"/>
      <point x="385" y="594"/>
      <point x="432" y="560"/>
      <point x="440" y="519" type="curve" smooth="yes"/>
      <point x="446" y="505"/>
      <point x="457" y="501"/>
      <point x="469" y="501" type="curve"/>
      <point x="564" y="501" type="line"/>
      <point x="577" y="501"/>
      <point x="585" y="511"/>
      <point x="585" y="522" type="curve" smooth="yes"/>
      <point x="582" y="593"/>
      <point x="513" y="685"/>
      <point x="376" y="705" type="curve"/>
      <point x="376" y="776" type="line"/>
      <point x="376" y="790"/>
      <point x="366" y="800"/>
      <point x="352" y="800" type="curve"/>
      <point x="290" y="800" type="line"/>
      <point x="276" y="800"/>
      <point x="266" y="790"/>
      <point x="266" y="776" type="curve"/>
      <point x="266" y="707" type="line"/>
      <point x="133" y="691"/>
      <point x="55" y="612"/>
      <point x="55" y="509" type="curve" smooth="yes"/>
      <point x="55" y="390"/>
      <point x="133" y="338"/>
      <point x="282" y="303" type="curve" smooth="yes"/>
      <point x="411" y="269"/>
      <point x="463" y="250"/>
      <point x="463" y="194" type="curve" smooth="yes"/>
      <point x="463" y="140"/>
      <point x="417" y="106"/>
      <point x="322" y="106" type="curve" smooth="yes"/>
      <point x="233" y="106"/>
      <point x="192" y="147"/>
      <point x="179" y="186" type="curve" smooth="yes"/>
      <point x="172" y="197"/>
      <point x="165" y="205"/>
      <point x="148" y="205" type="curve"/>
      <point x="57" y="205" type="line"/>
      <point x="45" y="205"/>
      <point x="36" y="195"/>
      <point x="36" y="184" type="curve" smooth="yes"/>
      <point x="39" y="95"/>
      <point x="116" y="9"/>
      <point x="266" y="-6" type="curve"/>
      <point x="266" y="-76" type="line"/>
      <point x="266" y="-90"/>
      <point x="276" y="-100"/>
      <point x="290" y="-100" type="curve"/>
    </contour>
  </outline>
</glyph>
<glyph name="four" format="1">
  <advance width="653"/>
  <unicode hex="0034"/>
  <outline>
    <contour>
      <point x="483" y="0" type="line" smooth="yes"/>
      <point x="497" y="0"/>
      <point x="507" y="10"/>
      <point x="507" y="24" type="curve" smooth="yes"/>
      <point x="507" y="152" type="line"/>
      <point x="597" y="152" type="line" smooth="yes"/>
      <point x="611" y="152"/>
      <point x="621" y="162"/>
      <point x="621" y="176" type="curve" smooth="yes"/>
      <point x="621" y="247" type="line" smooth="yes"/>
      <point x="621" y="261"/>
      <point x="611" y="271"/>
      <point x="596" y="271" type="curve" smooth="yes"/>
      <point x="507" y="271" type="line"/>
      <point x="507" y="676" type="line" smooth="yes"/>
      <point x="507" y="690"/>
      <point x="497" y="700"/>
      <point x="483" y="700" type="curve" smooth="yes"/>
      <point x="372" y="700" type="line" smooth="yes"/>
      <point x="356" y="700"/>
      <point x="343" y="693"/>
      <point x="335" y="683" type="curve" smooth="yes"/>
      <point x="40" y="275" type="line" smooth="yes"/>
      <point x="33" y="265"/>
      <point x="29" y="253"/>
      <point x="29" y="245" type="curve" smooth="yes"/>
      <point x="29" y="176" type="line" smooth="yes"/>
      <point x="29" y="162"/>
      <point x="39" y="152"/>
      <point x="53" y="152" type="curve" smooth="yes"/>
      <point x="370" y="152" type="line"/>
      <point x="370" y="24" type="line" smooth="yes"/>
      <point x="370" y="10"/>
      <point x="380" y="0"/>
      <point x="394" y="0" type="curve" smooth="yes"/>
    </contour>
    <contour>
      <point x="374" y="554" type="line"/>
      <point x="374" y="267" type="line"/>
      <point x="171" y="267" type="line"/>
    </contour>
  </outline>
</glyph>
<glyph name="seven" format="1">
  <advance width="545"/>
  <unicode hex="0037"/>
  <outline>
    <contour>
      <point x="238" y="0" type="line" smooth="yes"/>
      <point x="257" y="0"/>
      <point x="266" y="15"/>
      <point x="270" y="24" type="curve" smooth="yes"/>
      <point x="509" y="569" type="line" smooth="yes"/>
      <point x="514" y="582"/>
      <point x="518" y="593"/>
      <point x="518" y="612" type="curve" smooth="yes"/>
      <point x="518" y="675" type="line" smooth="yes"/>
      <point x="518" y="690"/>
      <point x="509" y="700"/>
      <point x="494" y="700" type="curve" smooth="yes"/>
      <point x="53" y="700" type="line" smooth="yes"/>
      <point x="39" y="700"/>
      <point x="29" y="690"/>
      <point x="29" y="675" type="curve" smooth="yes"/>
      <point x="29" y="604" type="line" smooth="yes"/>
      <point x="29" y="590"/>
      <point x="39" y="580"/>
      <point x="53" y="580" type="curve" smooth="yes"/>
      <point x="367" y="580" type="line"/>
      <point x="127" y="31" type="line" smooth="yes"/>
      <point x="126" y="28"/>
      <point x="125" y="25"/>
      <point x="125" y="22" type="curve" smooth="yes"/>
      <point x="125" y="10"/>
      <point x="134" y="0"/>
      <point x="146" y="0" type="curve" smooth="yes"/>
    </contour>
  </outline>
</glyph>
<glyph name="equal" format="1">
  <advance width="568"/>
  <unicode hex="003D"/>
  <outline>
    <contour>
      <point x="478" y="373" type="line" smooth="yes"/>
      <point x="491" y="373"/>
      <point x="502" y="383"/>
      <point x="502" y="397" type="curve" smooth="yes"/>
      <point x="502" y="453" type="line" smooth="yes"/>
      <point x="502" y="467"/>
      <point x="491" y="477"/>
      <point x="478" y="477" type="curve" smooth="yes"/>
      <point x="90" y="477" type="line" smooth="yes"/>
      <point x="76" y="477"/>
      <point x="66" y="467"/>
      <point x="66" y="453" type="curve" smooth="yes"/>
      <point x="66" y="397" type="line" smooth="yes"/>
      <point x="66" y="383"/>
      <point x="76" y="373"/>
      <point x="90" y="373" type="curve" smooth="yes"/>
    </contour>
    <contour>
      <point x="478" y="123" type="line" smooth="yes"/>
      <point x="491" y="123"/>
      <point x="502" y="133"/>
      <point x="502" y="147" type="curve" smooth="yes"/>
      <point x="502" y="203" type="line" smooth="yes"/>
      <point x="502" y="217"/>
      <point x="491" y="227"/>
      <point x="478" y="227" type="curve" smooth="yes"/>
      <point x="90" y="227" type="line" smooth="yes"/>
      <point x="76" y="227"/>
      <point x="66" y="217"/>
      <point x="66" y="203" type="curve" smooth="yes"/>
      <point x="66" y="147" type="line" smooth="yes"/>
      <point x="66" y="133"/>
      <point x="76" y="123"/>
      <point x="90" y="123" type="curve" smooth="yes"/>
    </contour>
  </outline>
</glyph>
<glyph name="at" format="1">
  <advance width="839"/>
  <unicode hex="0040"/>
  <outline>
    <contour>
      <point x="584" y="-125"/>
      <point x="675" y="-68"/>
      <point x="730" y="-7" type="curve" smooth="yes"/>
      <point x="733" y="-2"/>
      <point x="736" y="2"/>
      <point x="736" y="8" type="curve" smooth="yes"/>
      <point x="736" y="22"/>
      <point x="726" y="32"/>
      <point x="712" y="32" type="curve" smooth="yes"/>
      <point x="656" y="32" type="line" smooth="yes"/>
      <point x="643" y="32"/>
      <point x="636" y="25"/>
      <point x="628" y="18" type="curve" smooth="yes"/>
      <point x="596" y="-6"/>
      <point x="554" y="-40"/>
      <point x="420" y="-40" type="curve" smooth="yes"/>
      <point x="249" y="-40"/>
      <point x="158" y="45"/>
      <point x="143" y="191" type="curve" smooth="yes"/>
      <point x="139" y="229"/>
      <point x="139" y="318"/>
      <point x="143" y="352" type="curve" smooth="yes"/>
      <point x="160" y="495"/>
      <point x="244" y="586"/>
      <point x="412" y="586" type="curve" smooth="yes"/>
      <point x="613" y="586"/>
      <point x="688" y="507"/>
      <point x="698" y="352" type="curve" smooth="yes"/>
      <point x="701" y="307"/>
      <point x="699" y="263"/>
      <point x="698" y="239" type="curve" smooth="yes"/>
      <point x="698" y="209"/>
      <point x="688" y="163"/>
      <point x="641" y="163" type="curve" smooth="yes"/>
      <point x="606" y="163"/>
      <point x="583" y="188"/>
      <point x="583" y="238" type="curve" smooth="yes"/>
      <point x="583" y="446" type="line" smooth="yes"/>
      <point x="583" y="460"/>
      <point x="573" y="470"/>
      <point x="559" y="470" type="curve" smooth="yes"/>
      <point x="519" y="470" type="line" smooth="yes"/>
      <point x="505" y="470"/>
      <point x="495" y="460"/>
      <point x="495" y="446" type="curve" smooth="yes"/>
      <point x="495" y="431" type="line"/>
      <point x="476" y="456"/>
      <point x="447" y="478"/>
      <point x="394" y="478" type="curve" smooth="yes"/>
      <point x="295" y="478"/>
      <point x="234" y="401"/>
      <point x="234" y="273" type="curve" smooth="yes"/>
      <point x="234" y="145"/>
      <point x="297" y="69"/>
      <point x="396" y="69" type="curve" smooth="yes"/>
      <point x="479" y="69"/>
      <point x="509" y="107"/>
      <point x="524" y="133" type="curve"/>
      <point x="537" y="115"/>
      <point x="574" y="79"/>
      <point x="641" y="79" type="curve" smooth="yes"/>
      <point x="720" y="79"/>
      <point x="780" y="131"/>
      <point x="786" y="229" type="curve" smooth="yes"/>
      <point x="787" y="253"/>
      <point x="789" y="312"/>
      <point x="786" y="357" type="curve" smooth="yes"/>
      <point x="774" y="544"/>
      <point x="672" y="671"/>
      <point x="412" y="671" type="curve" smooth="yes"/>
      <point x="190" y="671"/>
      <point x="73" y="533"/>
      <point x="55" y="357" type="curve" smooth="yes"/>
      <point x="51" y="323"/>
      <point x="51" y="223"/>
      <point x="55" y="186" type="curve" smooth="yes"/>
      <point x="73" y="-2"/>
      <point x="190" y="-125"/>
      <point x="420" y="-125" type="curve" smooth="yes"/>
    </contour>
    <contour>
      <point x="349" y="153"/>
      <point x="322" y="202"/>
      <point x="322" y="273" type="curve" smooth="yes"/>
      <point x="322" y="350"/>
      <point x="349" y="394"/>
      <point x="408" y="394" type="curve" smooth="yes"/>
      <point x="471" y="394"/>
      <point x="495" y="350"/>
      <point x="495" y="273" type="curve" smooth="yes"/>
      <point x="495" y="196"/>
      <point x="471" y="153"/>
      <point x="408" y="153" type="curve" smooth="yes"/>
    </contour>
  </outline>
</glyph>
<glyph name="C" format="1">
  <advance width="685"/>
  <unicode hex="0043"/>
  <outline>
    <contour>
      <point x="530" y="-10"/>
      <point x="640" y="91"/>
      <point x="644" y="223" type="curve" smooth="yes"/>
      <point x="645" y="235"/>
      <point x="635" y="244"/>
      <point x="623" y="244" type="curve"/>
      <point x="526" y="244" type="line"/>
      <point x="511" y="244"/>
      <point x="503" y="238"/>
      <point x="498" y="219" type="curve" smooth="yes"/>
      <point x="477" y="133"/>
      <point x="424" y="106"/>
      <point x="348" y="106" type="curve" smooth="yes"/>
      <point x="258" y="106"/>
      <point x="203" y="153"/>
      <point x="199" y="266" type="curve" smooth="yes"/>
      <point x="197" y="323"/>
      <point x="197" y="379"/>
      <point x="199" y="434" type="curve"/>
      <point x="203" y="548"/>
      <point x="258" y="594"/>
      <point x="348" y="594" type="curve" smooth="yes"/>
      <point x="424" y="594"/>
      <point x="477" y="568"/>
      <point x="498" y="481" type="curve" smooth="yes"/>
      <point x="503" y="462"/>
      <point x="511" y="457"/>
      <point x="526" y="457" type="curve"/>
      <point x="623" y="457" type="line"/>
      <point x="635" y="457"/>
      <point x="645" y="465"/>
      <point x="644" y="477" type="curve" smooth="yes"/>
      <point x="640" y="609"/>
      <point x="530" y="710"/>
      <point x="348" y="710" type="curve" smooth="yes"/>
      <point x="164" y="710"/>
      <point x="61" y="608"/>
      <point x="54" y="439" type="curve"/>
      <point x="52" y="382"/>
      <point x="52" y="315"/>
      <point x="54" y="261" type="curve"/>
      <point x="61" y="90"/>
      <point x="162" y="-10"/>
      <point x="348" y="-10" type="curve" smooth="yes"/>
    </contour>
  </outline>
</glyph>
<glyph name="D" format="1">
  <advance width="703"/>
  <unicode hex="0044"/>
  <outline>
    <contour>
      <point x="351" y="0" type="line" smooth="yes"/>
      <point x="551" y="0"/>
      <point x="642" y="87"/>
      <point x="648" y="273" type="curve" smooth="yes"/>
      <point x="649" y="331"/>
      <point x="649" y="369"/>
      <point x="648" y="428" type="curve" smooth="yes"/>
      <point x="643" y="604"/>
      <point x="548" y="700"/>
      <point x="346" y="700" type="curve"/>
      <point x="102" y="700" type="line" smooth="yes"/>
      <point x="88" y="700"/>
      <point x="78" y="690"/>
      <point x="78" y="675" type="curve" smooth="yes"/>
      <point x="78" y="24" type="line" smooth="yes"/>
      <point x="78" y="10"/>
      <point x="88" y="0"/>
      <point x="102" y="0" type="curve" smooth="yes"/>
    </contour>
    <contour>
      <point x="219" y="584" type="line"/>
      <point x="341" y="584" type="line" smooth="yes"/>
      <point x="454" y="584"/>
      <point x="502" y="534"/>
      <point x="505" y="425" type="curve" smooth="yes"/>
      <point x="507" y="367"/>
      <point x="507" y="335"/>
      <point x="505" y="276" type="curve" smooth="yes"/>
      <point x="502" y="162"/>
      <point x="458" y="116"/>
      <point x="346" y="116" type="curve" smooth="yes"/>
      <point x="219" y="116" type="line"/>
    </contour>
  </outline>
</glyph>
<glyph name="E" format="1">
  <advance width="623"/>
  <unicode hex="0045"/>
  <outline>
    <contour>
      <point x="551" y="0" type="line" smooth="yes"/>
      <point x="566" y="0"/>
      <point x="576" y="10"/>
      <point x="576" y="24" type="curve" smooth="yes"/>
      <point x="576" y="92" type="line" smooth="yes"/>
      <point x="576" y="106"/>
      <point x="566" y="116"/>
      <point x="551" y="116" type="curve" smooth="yes"/>
      <point x="215" y="116" type="line"/>
      <point x="215" y="297" type="line"/>
      <point x="521" y="297" type="line" smooth="yes"/>
      <point x="536" y="297"/>
      <point x="546" y="307"/>
      <point x="546" y="321" type="curve" smooth="yes"/>
      <point x="546" y="384" type="line" smooth="yes"/>
      <point x="546" y="399"/>
      <point x="536" y="409"/>
      <point x="521" y="409" type="curve" smooth="yes"/>
      <point x="215" y="409" type="line"/>
      <point x="215" y="584" type="line"/>
      <point x="543" y="584" type="line" smooth="yes"/>
      <point x="558" y="584"/>
      <point x="568" y="594"/>
      <point x="568" y="608" type="curve" smooth="yes"/>
      <point x="568" y="675" type="line" smooth="yes"/>
      <point x="568" y="690"/>
      <point x="558" y="700"/>
      <point x="543" y="700" type="curve" smooth="yes"/>
      <point x="102" y="700" type="line" smooth="yes"/>
      <point x="88" y="700"/>
      <point x="78" y="690"/>
      <point x="78" y="675" type="curve" smooth="yes"/>
      <point x="78" y="24" type="line" smooth="yes"/>
      <point x="78" y="10"/>
      <point x="88" y="0"/>
      <point x="102" y="0" type="curve" smooth="yes"/>
    </contour>
  </outline>
</glyph>
<glyph name="J" format="1">
  <advance width="653"/>
  <unicode hex="004A"/>
  <outline>
    <contour>
      <point x="471" y="-10"/>
      <point x="581" y="88"/>
      <point x="581" y="256" type="curve" smooth="yes"/>
      <point x="581" y="675" type="line" smooth="yes"/>
      <point x="581" y="690"/>
      <point x="571" y="700"/>
      <point x="556" y="700" type="curve" smooth="yes"/>
      <point x="97" y="700" type="line" smooth="yes"/>
      <point x="83" y="700"/>
      <point x="73" y="690"/>
      <point x="73" y="676" type="curve" smooth="yes"/>
      <point x="73" y="605" type="line" smooth="yes"/>
      <point x="73" y="591"/>
      <point x="83" y="580"/>
      <point x="97" y="580" type="curve" smooth="yes"/>
      <point x="436" y="580" type="line"/>
      <point x="436" y="260" type="line" smooth="yes"/>
      <point x="436" y="164"/>
      <point x="390" y="106"/>
      <point x="307" y="106" type="curve" smooth="yes"/>
      <point x="240" y="106"/>
      <point x="188" y="136"/>
      <point x="178" y="208" type="curve" smooth="yes"/>
      <point x="173" y="224"/>
      <point x="165" y="233"/>
      <point x="148" y="233" type="curve" smooth="yes"/>
      <point x="51" y="233" type="line" smooth="yes"/>
      <point x="38" y="233"/>
      <point x="30" y="223"/>
      <point x="30" y="211" type="curve" smooth="yes"/>
      <point x="34" y="63"/>
      <point x="159" y="-10"/>
      <point x="304" y="-10" type="curve" smooth="yes"/>
    </contour>
  </outline>
</glyph>
<glyph name="M" format="1">
  <advance width="812"/>
  <unicode hex="004D"/>
  <outline>
    <contour>
      <point x="189" y="0" type="line" smooth="yes"/>
      <point x="202" y="0"/>
      <point x="213" y="10"/>
      <point x="213" y="24" type="curve" smooth="yes"/>
      <point x="213" y="454" type="line"/>
      <point x="352" y="190" type="line" smooth="yes"/>
      <point x="358" y="178"/>
      <point x="367" y="168"/>
      <point x="385" y="168" type="curve" smooth="yes"/>
      <point x="427" y="168" type="line" smooth="yes"/>
      <point x="445" y="168"/>
      <point x="454" y="178"/>
      <point x="461" y="190" type="curve" smooth="yes"/>
      <point x="600" y="454" type="line"/>
      <point x="600" y="24" type="line" smooth="yes"/>
      <point x="600" y="10"/>
      <point x="610" y="0"/>
      <point x="624" y="0" type="curve" smooth="yes"/>
      <point x="710" y="0" type="line" smooth="yes"/>
      <point x="724" y="0"/>
      <point x="734" y="10"/>
      <point x="734" y="24" type="curve" smooth="yes"/>
      <point x="734" y="675" type="line" smooth="yes"/>
      <point x="734" y="690"/>
      <point x="724" y="700"/>
      <point x="710" y="700" type="curve" smooth="yes"/>
      <point x="630" y="700" type="line" smooth="yes"/>
      <point x="611" y="700"/>
      <point x="602" y="686"/>
      <point x="600" y="681" type="curve" smooth="yes"/>
      <point x="406" y="323" type="line"/>
      <point x="213" y="681" type="line" smooth="yes"/>
      <point x="210" y="686"/>
      <point x="202" y="700"/>
      <point x="183" y="700" type="curve" smooth="yes"/>
      <point x="103" y="700" type="line" smooth="yes"/>
      <point x="88" y="700"/>
      <point x="78" y="690"/>
      <point x="78" y="675" type="curve" smooth="yes"/>
      <point x="78" y="24" type="line" smooth="yes"/>
      <point x="78" y="10"/>
      <point x="88" y="0"/>
      <point x="103" y="0" type="curve" smooth="yes"/>
    </contour>
  </outline>
</glyph>
<glyph name="P" format="1">
  <advance width="660"/>
  <unicode hex="0050"/>
  <outline>
    <contour>
      <point x="198" y="0" type="line" smooth="yes"/>
      <point x="213" y="0"/>
      <point x="223" y="10"/>
      <point x="223" y="24" type="curve" smooth="yes"/>
      <point x="223" y="258" type="line"/>
      <point x="370" y="258" type="line" smooth="yes"/>
      <point x="527" y="258"/>
      <point x="630" y="329"/>
      <point x="630" y="477" type="curve" smooth="yes"/>
      <point x="630" y="626"/>
      <point x="527" y="700"/>
      <point x="370" y="700" type="curve" smooth="yes"/>
      <point x="102" y="700" type="line" smooth="yes"/>
      <point x="88" y="700"/>
      <point x="78" y="690"/>
      <point x="78" y="675" type="curve" smooth="yes"/>
      <point x="78" y="24" type="line" smooth="yes"/>
      <point x="78" y="10"/>
      <point x="88" y="0"/>
      <point x="102" y="0" type="curve" smooth="yes"/>
    </contour>
    <contour>
      <point x="221" y="588" type="line"/>
      <point x="365" y="588" type="line" smooth="yes"/>
      <point x="448" y="588"/>
      <point x="485" y="544"/>
      <point x="485" y="478" type="curve" smooth="yes"/>
      <point x="485" y="406"/>
      <point x="442" y="370"/>
      <point x="365" y="370" type="curve" smooth="yes"/>
      <point x="221" y="370" type="line"/>
    </contour>
  </outline>
</glyph>
<glyph name="Q" format="1">
  <advance width="695"/>
  <unicode hex="0051"/>
  <outline>
    <contour>
      <point x="621" y="-65" type="line"/>
      <point x="632" y="-65"/>
      <point x="642" y="-56"/>
      <point x="641" y="-44" type="curve" smooth="yes"/>
      <point x="641" y="-39"/>
      <point x="639" y="-36"/>
      <point x="638" y="-34" type="curve"/>
      <point x="568" y="66" type="line"/>
      <point x="613" y="110"/>
      <point x="637" y="176"/>
      <point x="640" y="264" type="curve" smooth="yes"/>
      <point x="642" y="321"/>
      <point x="642" y="376"/>
      <point x="640" y="435" type="curve" smooth="yes"/>
      <point x="635" y="616"/>
      <point x="520" y="710"/>
      <point x="347" y="710" type="curve" smooth="yes"/>
      <point x="175" y="710"/>
      <point x="60" y="616"/>
      <point x="54" y="435" type="curve" smooth="yes"/>
      <point x="52" y="376"/>
      <point x="52" y="321"/>
      <point x="54" y="264" type="curve" smooth="yes"/>
      <point x="60" y="79"/>
      <point x="169" y="-10"/>
      <point x="347" y="-10" type="curve" smooth="yes"/>
      <point x="388" y="-10"/>
      <point x="423" y="-4"/>
      <point x="453" y="8" type="curve"/>
      <point x="490" y="-42" type="line"/>
      <point x="496" y="-50"/>
      <point x="507" y="-65"/>
      <point x="527" y="-65" type="curve"/>
    </contour>
    <contour>
      <point x="262" y="106"/>
      <point x="203" y="155"/>
      <point x="199" y="269" type="curve" smooth="yes"/>
      <point x="197" y="328"/>
      <point x="197" y="373"/>
      <point x="199" y="431" type="curve" smooth="yes"/>
      <point x="203" y="545"/>
      <point x="263" y="594"/>
      <point x="347" y="594" type="curve" smooth="yes"/>
      <point x="431" y="594"/>
      <point x="491" y="545"/>
      <point x="495" y="431" type="curve" smooth="yes"/>
      <point x="497" y="373"/>
      <point x="497" y="328"/>
      <point x="495" y="269" type="curve" smooth="yes"/>
      <point x="491" y="155"/>
      <point x="432" y="106"/>
      <point x="347" y="106" type="curve" smooth="yes"/>
    </contour>
  </outline>
</glyph>
<glyph name="T" format="1">
  <advance width="606"/>
  <unicode hex="0054"/>
  <outline>
    <contour>
      <point x="350" y="0" type="line" smooth="yes"/>
      <point x="364" y="0"/>
      <point x="374" y="10"/>
      <point x="374" y="24" type="curve" smooth="yes"/>
      <point x="374" y="575" type="line"/>
      <point x="558" y="575" type="line" smooth="yes"/>
      <point x="573" y="575"/>
      <point x="583" y="586"/>
      <point x="583" y="600" type="curve" smooth="yes"/>
      <point x="583" y="675" type="line" smooth="yes"/>
      <point x="583" y="690"/>
      <point x="573" y="700"/>
      <point x="558" y="700" type="curve" smooth="yes"/>
      <point x="47" y="700" type="line" smooth="yes"/>
      <point x="33" y="700"/>
      <point x="23" y="690"/>
      <point x="23" y="675" type="curve" smooth="yes"/>
      <point x="23" y="600" type="line" smooth="yes"/>
      <point x="23" y="586"/>
      <point x="33" y="575"/>
      <point x="47" y="575" type="curve" smooth="yes"/>
      <point x="232" y="575" type="line"/>
      <point x="232" y="24" type="line" smooth="yes"/>
      <point x="232" y="10"/>
      <point x="242" y="0"/>
      <point x="256" y="0" type="curve" smooth="yes"/>
    </contour>
  </outline>
</glyph>
<glyph name="U" format="1">
  <advance width="714"/>
  <unicode hex="0055"/>
  <outline>
    <contour>
      <point x="532" y="-10"/>
      <point x="642" y="76"/>
      <point x="642" y="268" type="curve" smooth="yes"/>
      <point x="642" y="675" type="line" smooth="yes"/>
      <point x="642" y="690"/>
      <point x="632" y="700"/>
      <point x="618" y="700" type="curve" smooth="yes"/>
      <point x="526" y="700" type="line" smooth="yes"/>
      <point x="512" y="700"/>
      <point x="502" y="690"/>
      <point x="502" y="675" type="curve" smooth="yes"/>
      <point x="502" y="268" type="line" smooth="yes"/>
      <point x="502" y="160"/>
      <point x="447" y="109"/>
      <point x="358" y="109" type="curve" smooth="yes"/>
      <point x="267" y="109"/>
      <point x="213" y="160"/>
      <point x="213" y="268" type="curve" smooth="yes"/>
      <point x="213" y="675" type="line" smooth="yes"/>
      <point x="213" y="690"/>
      <point x="203" y="700"/>
      <point x="188" y="700" type="curve" smooth="yes"/>
      <point x="96" y="700" type="line" smooth="yes"/>
      <point x="82" y="700"/>
      <point x="72" y="690"/>
      <point x="72" y="675" type="curve" smooth="yes"/>
      <point x="72" y="268" type="line" smooth="yes"/>
      <point x="72" y="76"/>
      <point x="183" y="-10"/>
      <point x="358" y="-10" type="curve" smooth="yes"/>
    </contour>
  </outline>
</glyph>
<glyph name="X" format="1">
  <advance width="663"/>
  <unicode hex="0058"/>
  <outline>
    <contour>
      <point x="142" y="0" type="line" smooth="yes"/>
      <point x="158" y="0"/>
      <point x="167" y="10"/>
      <point x="172" y="18" type="curve" smooth="yes"/>
      <point x="329" y="243" type="line"/>
      <point x="487" y="18" type="line" smooth="yes"/>
      <point x="492" y="10"/>
      <point x="501" y="0"/>
      <point x="517" y="0" type="curve" smooth="yes"/>
      <point x="625" y="0" type="line" smooth="yes"/>
      <point x="636" y="0"/>
      <point x="646" y="9"/>
      <point x="646" y="21" type="curve" smooth="yes"/>
      <point x="646" y="25"/>
      <point x="645" y="29"/>
      <point x="642" y="33" type="curve" smooth="yes"/>
      <point x="418" y="357" type="line"/>
      <point x="627" y="667" type="line" smooth="yes"/>
      <point x="630" y="671"/>
      <point x="631" y="674"/>
      <point x="631" y="679" type="curve" smooth="yes"/>
      <point x="631" y="691"/>
      <point x="622" y="700"/>
      <point x="610" y="700" type="curve" smooth="yes"/>
      <point x="511" y="700" type="line" smooth="yes"/>
      <point x="495" y="700"/>
      <point x="486" y="690"/>
      <point x="480" y="681" type="curve" smooth="yes"/>
      <point x="334" y="467" type="line"/>
      <point x="187" y="681" type="line" smooth="yes"/>
      <point x="181" y="690"/>
      <point x="172" y="700"/>
      <point x="156" y="700" type="curve" smooth="yes"/>
      <point x="52" y="700" type="line" smooth="yes"/>
      <point x="40" y="700"/>
      <point x="31" y="691"/>
      <point x="31" y="679" type="curve" smooth="yes"/>
      <point x="31" y="674"/>
      <point x="33" y="670"/>
      <point x="35" y="667" type="curve" smooth="yes"/>
      <point x="244" y="357" type="line"/>
      <point x="21" y="33" type="line" smooth="yes"/>
      <point x="18" y="29"/>
      <point x="17" y="25"/>
      <point x="17" y="21" type="curve" smooth="yes"/>
      <point x="17" y="9"/>
      <point x="26" y="0"/>
      <point x="38" y="0" type="curve" smooth="yes"/>
    </contour>
  </outline>
</glyph>
<glyph name="Z" format="1">
  <advance width="627"/>
  <unicode hex="005A"/>
  <outline>
    <contour>
      <point x="564" y="0" type="line" smooth="yes"/>
      <point x="578" y="0"/>
      <point x="588" y="10"/>
      <point x="588" y="24" type="curve" smooth="yes"/>
      <point x="588" y="96" type="line" smooth="yes"/>
      <point x="588" y="110"/>
      <point x="578" y="120"/>
      <point x="564" y="120" type="curve" smooth="yes"/>
      <point x="225" y="120" type="line"/>
      <point x="564" y="570" type="line" smooth="yes"/>
      <point x="571" y="578"/>
      <point x="577" y="589"/>
      <point x="577" y="605" type="curve" smooth="yes"/>
      <point x="577" y="675" type="line" smooth="yes"/>
      <point x="577" y="690"/>
      <point x="567" y="700"/>
      <point x="552" y="700" type="curve" smooth="yes"/>
      <point x="73" y="700" type="line" smooth="yes"/>
      <point x="59" y="700"/>
      <point x="48" y="690"/>
      <point x="48" y="675" type="curve" smooth="yes"/>
      <point x="48" y="605" type="line" smooth="yes"/>
      <point x="48" y="591"/>
      <point x="59" y="580"/>
      <point x="73" y="580" type="curve" smooth="yes"/>
      <point x="401" y="580" type="line"/>
      <point x="54" y="133" type="line" smooth="yes"/>
      <point x="50" y="128"/>
      <point x="39" y="116"/>
      <point x="39" y="96" type="curve" smooth="yes"/>
      <point x="39" y="25" type="line" smooth="yes"/>
      <point x="39" y="10"/>
      <point x="49" y="0"/>
      <point x="63" y="0" type="curve" smooth="yes"/>
    </contour>
  </outline>
</glyph>
<glyph name="bracketright" format="1">
  <advance width="356"/>
  <unicode hex="005D"/>
  <outline>
    <contour>
      <point x="264" y="-159" type="line" smooth="yes"/>
      <point x="278" y="-159"/>
      <point x="289" y="-149"/>
      <point x="289" y="-135" type="curve" smooth="yes"/>
      <point x="289" y="752" type="line" smooth="yes"/>
      <point x="289" y="766"/>
      <point x="278" y="776"/>
      <point x="264" y="776" type="curve" smooth="yes"/>
      <point x="50" y="776" type="line" smooth="yes"/>
      <point x="36" y="776"/>
      <point x="26" y="766"/>
      <point x="26" y="752" type="curve" smooth="yes"/>
      <point x="26" y="690" type="line" smooth="yes"/>
      <point x="26" y="676"/>
      <point x="36" y="666"/>
      <point x="50" y="666" type="curve" smooth="yes"/>
      <point x="165" y="666" type="line"/>
      <point x="165" y="-41" type="line"/>
      <point x="50" y="-41" type="line" smooth="yes"/>
      <point x="36" y="-41"/>
      <point x="26" y="-52"/>
      <point x="26" y="-66" type="curve" smooth="yes"/>
      <point x="26" y="-135" type="line" smooth="yes"/>
      <point x="26" y="-149"/>
      <point x="36" y="-159"/>
      <point x="50" y="-159" type="curve" smooth="yes"/>
    </contour>
  </outline>
</glyph>
<glyph name="asciicircum" format="1">
  <advance width="449"/>
  <unicode hex="005E"/>
  <outline>
    <contour>
      <point x="108" y="583" type="line" smooth="yes"/>
      <point x="118" y="583"/>
      <point x="131" y="585"/>
      <point x="140" y="590" type="curve" smooth="yes"/>
      <point x="225" y="643" type="line"/>
      <point x="310" y="590" type="line" smooth="yes"/>
      <point x="318" y="585"/>
      <point x="331" y="583"/>
      <point x="341" y="583" type="curve" smooth="yes"/>
      <point x="378" y="583" type="line" smooth="yes"/>
      <point x="388" y="583"/>
      <point x="393" y="588"/>
      <point x="393" y="596" type="curve" smooth="yes"/>
      <point x="393" y="602"/>
      <point x="390" y="608"/>
      <point x="384" y="614" type="curve" smooth="yes"/>
      <point x="287" y="714" type="line" smooth="yes"/>
      <point x="273" y="728"/>
      <point x="265" y="730"/>
      <point x="252" y="730" type="curve" smooth="yes"/>
      <point x="197" y="730" type="line" smooth="yes"/>
      <point x="185" y="730"/>
      <point x="176" y="728"/>
      <point x="163" y="714" type="curve" smooth="yes"/>
      <point x="65" y="614" type="line" smooth="yes"/>
      <point x="59" y="608"/>
      <point x="56" y="602"/>
      <point x="56" y="596" type="curve" smooth="yes"/>
      <point x="56" y="588"/>
      <point x="61" y="583"/>
      <point x="71" y="583" type="curve" smooth="yes"/>
    </contour>
  </outline>
</glyph>
<glyph name="underscore" format="1">
  <advance width="741"/>
  <unicode hex="005F"/>
  <outline>
    <contour>
      <point x="665" y="-57" type="line" smooth="yes"/>
      <point x="678" y="-57"/>
      <point x="689" y="-47"/>
      <point x="689" y="-33" type="curve" smooth="yes"/>
      <point x="689" y="34" type="line" smooth="yes"/>
      <point x="689" y="48"/>
      <point x="678" y="58"/>
      <point x="665" y="58" type="curve" smooth="yes"/>
      <point x="77" y="58" type="line" smooth="yes"/>
      <point x="63" y="58"/>
      <point x="53" y="48"/>
      <point x="53" y="34" type="curve" smooth="yes"/>
      <point x="53" y="-33" type="line" smooth="yes"/>
      <point x="53" y="-47"/>
      <point x="63" y="-57"/>
      <point x="77" y="-57" type="curve" smooth="yes"/>
    </contour>
  </outline>
</glyph>
<glyph name="grave" format="1">
  <advance width="369"/>
  <unicode hex="0060"/>
  <outline>
    <contour>
      <point x="291" y="595" type="line" smooth="yes"/>
      <point x="301" y="595"/>
      <point x="307" y="601"/>
      <point x="307" y="611" type="curve" smooth="yes"/>
      <point x="307" y="616"/>
      <point x="305" y="621"/>
      <point x="302" y="624" type="curve" smooth="yes"/>
      <point x="220" y="723" type="line"/>
      <point x="208" y="738"/>
      <point x="201" y="742"/>
      <point x="183" y="742" type="curve" smooth="yes"/>
      <point x="82" y="742" type="line" smooth="yes"/>
      <point x="70" y="742"/>
      <point x="63" y="734"/>
      <point x="63" y="722" type="curve" smooth="yes"/>
      <point x="63" y="717"/>
      <point x="65" y="713"/>
      <point x="68" y="710" type="curve" smooth="yes"/>
      <point x="193" y="608" type="line" smooth="yes"/>
      <point x="204" y="599"/>
      <point x="212" y="595"/>
      <point x="228" y="595" type="curve" smooth="yes"/>
    </contour>
  </outline>
</glyph>
<glyph name="d" format="1">
  <advance width="614"/>
  <unicode hex="0064"/>
  <outline>
    <contour>
      <point x="335" y="-10"/>
      <point x="385" y="20"/>
      <point x="418" y="61" type="curve"/>
      <point x="418" y="24" type="line" smooth="yes"/>
      <point x="418" y="10"/>
      <point x="428" y="0"/>
      <point x="442" y="0" type="curve" smooth="yes"/>
      <point x="523" y="0" type="line" smooth="yes"/>
      <point x="537" y="0"/>
      <point x="547" y="10"/>
      <point x="547" y="24" type="curve" smooth="yes"/>
      <point x="547" y="686" type="line" smooth="yes"/>
      <point x="547" y="700"/>
      <point x="537" y="710"/>
      <point x="523" y="710" type="curve" smooth="yes"/>
      <point x="436" y="710" type="line" smooth="yes"/>
      <point x="422" y="710"/>
      <point x="412" y="700"/>
      <point x="412" y="686" type="curve" smooth="yes"/>
      <point x="412" y="464" type="line"/>
      <point x="379" y="502"/>
      <point x="330" y="530"/>
      <point x="258" y="530" type="curve" smooth="yes"/>
      <point x="119" y="530"/>
      <point x="50" y="427"/>
      <point x="45" y="293" type="curve" smooth="yes"/>
      <point x="44" y="269"/>
      <point x="44" y="252"/>
      <point x="45" y="227" type="curve" smooth="yes"/>
      <point x="50" y="90"/>
      <point x="119" y="-10"/>
      <point x="258" y="-10" type="curve" smooth="yes"/>
    </contour>
    <contour>
      <point x="213" y="98"/>
      <point x="187" y="159"/>
      <point x="183" y="230" type="curve" smooth="yes"/>
      <point x="182" y="250"/>
      <point x="182" y="270"/>
      <point x="183" y="290" type="curve" smooth="yes"/>
      <point x="187" y="361"/>
      <point x="213" y="422"/>
      <point x="297" y="422" type="curve" smooth="yes"/>
      <point x="376" y="422"/>
      <point x="410" y="362"/>
      <point x="412" y="302" type="curve" smooth="yes"/>
      <point x="414" y="277"/>
      <point x="414" y="249"/>
      <point x="412" y="225" type="curve" smooth="yes"/>
      <point x="410" y="162"/>
      <point x="379" y="98"/>
      <point x="297" y="98" type="curve" smooth="yes"/>
    </contour>
  </outline>
</glyph>
<glyph name="g" format="1">
  <advance width="616"/>
  <unicode hex="0067"/>
  <outline>
    <contour>
      <point x="471" y="-220"/>
      <point x="550" y="-132"/>
      <point x="550" y="13" type="curve"/>
      <point x="550" y="495" type="line"/>
      <point x="550" y="509"/>
      <point x="539" y="520"/>
      <point x="525" y="520" type="curve"/>
      <point x="443" y="520" type="line"/>
      <point x="429" y="520"/>
      <point x="419" y="509"/>
      <point x="419" y="495" type="curve"/>
      <point x="419" y="456" type="line"/>
      <point x="386" y="498"/>
      <point x="334" y="530"/>
      <point x="259" y="530" type="curve" smooth="yes"/>
      <point x="116" y="530"/>
      <point x="51" y="427"/>
      <point x="46" y="293" type="curve"/>
      <point x="45" y="273"/>
      <point x="45" y="259"/>
      <point x="46" y="239" type="curve"/>
      <point x="52" y="101"/>
      <point x="116" y="4"/>
      <point x="259" y="4" type="curve" smooth="yes"/>
      <point x="331" y="4"/>
      <point x="380" y="30"/>
      <point x="413" y="68" type="curve"/>
      <point x="413" y="0" type="line"/>
      <point x="413" y="-91"/>
      <point x="372" y="-119"/>
      <point x="297" y="-119" type="curve" smooth="yes"/>
      <point x="226" y="-119"/>
      <point x="205" y="-81"/>
      <point x="195" y="-56" type="curve" smooth="yes"/>
      <point x="189" y="-40"/>
      <point x="182" y="-35"/>
      <point x="170" y="-35" type="curve"/>
      <point x="80" y="-35" type="line"/>
      <point x="67" y="-35"/>
      <point x="55" y="-46"/>
      <point x="56" y="-60" type="curve" smooth="yes"/>
      <point x="58" y="-101"/>
      <point x="108" y="-220"/>
      <point x="302" y="-220" type="curve" smooth="yes"/>
    </contour>
    <contour>
      <point x="213" y="110"/>
      <point x="186" y="171"/>
      <point x="183" y="242" type="curve" smooth="yes"/>
      <point x="182" y="257"/>
      <point x="182" y="274"/>
      <point x="183" y="290" type="curve"/>
      <point x="186" y="361"/>
      <point x="213" y="422"/>
      <point x="297" y="422" type="curve" smooth="yes"/>
      <point x="377" y="422"/>
      <point x="408" y="359"/>
      <point x="412" y="298" type="curve" smooth="yes"/>
      <point x="413" y="282"/>
      <point x="413" y="249"/>
      <point x="412" y="234" type="curve" smooth="yes"/>
      <point x="408" y="172"/>
      <point x="377" y="110"/>
      <point x="297" y="110" type="curve" smooth="yes"/>
    </contour>
  </outline>
</glyph>
<glyph name="h" format="1">
  <advance width="630"/>
  <unicode hex="0068"/>
  <outline>
    <contour>
      <point x="182" y="0" type="line" smooth="yes"/>
      <point x="196" y="0"/>
      <point x="206" y="10"/>
      <point x="206" y="24" type="curve" smooth="yes"/>
      <point x="206" y="299" type="line" smooth="yes"/>
      <point x="206" y="376"/>
      <point x="251" y="422"/>
      <point x="320" y="422" type="curve" smooth="yes"/>
      <point x="391" y="422"/>
      <point x="430" y="376"/>
      <point x="430" y="299" type="curve" smooth="yes"/>
      <point x="430" y="24" type="line" smooth="yes"/>
      <point x="430" y="10"/>
      <point x="440" y="0"/>
      <point x="454" y="0" type="curve" smooth="yes"/>
      <point x="546" y="0" type="line" smooth="yes"/>
      <point x="559" y="0"/>
      <point x="570" y="10"/>
      <point x="570" y="24" type="curve" smooth="yes"/>
      <point x="570" y="305" type="line" smooth="yes"/>
      <point x="570" y="445"/>
      <point x="489" y="530"/>
      <point x="368" y="530" type="curve" smooth="yes"/>
      <point x="292" y="530"/>
      <point x="242" y="501"/>
      <point x="206" y="458" type="curve"/>
      <point x="206" y="686" type="line" smooth="yes"/>
      <point x="206" y="700"/>
      <point x="196" y="710"/>
      <point x="182" y="710" type="curve" smooth="yes"/>
      <point x="91" y="710" type="line" smooth="yes"/>
      <point x="77" y="710"/>
      <point x="67" y="700"/>
      <point x="67" y="686" type="curve" smooth="yes"/>
      <point x="67" y="24" type="line" smooth="yes"/>
      <point x="67" y="10"/>
      <point x="77" y="0"/>
      <point x="91" y="0" type="curve" smooth="yes"/>
    </contour>
  </outline>
</glyph>
<glyph name="i" format="1">
  <advance width="265"/>
  <unicode hex="0069"/>
  <outline>
    <contour>
      <point x="175" y="0" type="line" smooth="yes"/>
      <point x="188" y="0"/>
      <point x="199" y="10"/>
      <point x="199" y="24" type="curve" smooth="yes"/>
      <point x="199" y="496" type="line" smooth="yes"/>
      <point x="199" y="510"/>
      <point x="188" y="520"/>
      <point x="175" y="520" type="curve" smooth="yes"/>
      <point x="90" y="520" type="line" smooth="yes"/>
      <point x="76" y="520"/>
      <point x="66" y="510"/>
      <point x="66" y="496" type="curve" smooth="yes"/>
      <point x="66" y="24" type="line" smooth="yes"/>
      <point x="66" y="10"/>
      <point x="76" y="0"/>
      <point x="90" y="0" type="curve" smooth="yes"/>
    </contour>
    <contour>
      <point x="179" y="605" type="line" smooth="yes"/>
      <point x="193" y="605"/>
      <point x="203" y="616"/>
      <point x="203" y="629" type="curve" smooth="yes"/>
      <point x="203" y="702" type="line" smooth="yes"/>
      <point x="203" y="716"/>
      <point x="193" y="727"/>
      <point x="179" y="727" type="curve" smooth="yes"/>
      <point x="86" y="727" type="line" smooth="yes"/>
      <point x="72" y="727"/>
      <point x="62" y="716"/>
      <point x="62" y="702" type="curve" smooth="yes"/>
      <point x="62" y="629" type="line" smooth="yes"/>
      <point x="62" y="616"/>
      <point x="72" y="605"/>
      <point x="86" y="605" type="curve" smooth="yes"/>
    </contour>
  </outline>
</glyph>
<glyph name="j" format="1">
  <advance width="280"/>
  <unicode hex="006A"/>
  <outline>
    <contour>
      <point x="18" y="-190" type="line" smooth="yes"/>
      <point x="150" y="-190"/>
      <point x="213" y="-118"/>
      <point x="213" y="-1" type="curve" smooth="yes"/>
      <point x="213" y="496" type="line" smooth="yes"/>
      <point x="213" y="510"/>
      <point x="203" y="520"/>
      <point x="189" y="520" type="curve" smooth="yes"/>
      <point x="100" y="520" type="line" smooth="yes"/>
      <point x="87" y="520"/>
      <point x="76" y="510"/>
      <point x="76" y="496" type="curve" smooth="yes"/>
      <point x="76" y="2" type="line" smooth="yes"/>
      <point x="76" y="-47"/>
      <point x="66" y="-83"/>
      <point x="6" y="-83" type="curve" smooth="yes"/>
      <point x="-21" y="-83" type="line" smooth="yes"/>
      <point x="-34" y="-83"/>
      <point x="-45" y="-94"/>
      <point x="-45" y="-107" type="curve" smooth="yes"/>
      <point x="-45" y="-166" type="line" smooth="yes"/>
      <point x="-45" y="-180"/>
      <point x="-34" y="-190"/>
      <point x="-21" y="-190" type="curve" smooth="yes"/>
    </contour>
    <contour>
      <point x="192" y="605" type="line" smooth="yes"/>
      <point x="206" y="605"/>
      <point x="217" y="616"/>
      <point x="217" y="629" type="curve" smooth="yes"/>
      <point x="217" y="702" type="line" smooth="yes"/>
      <point x="217" y="716"/>
      <point x="206" y="727"/>
      <point x="192" y="727" type="curve" smooth="yes"/>
      <point x="96" y="727" type="line" smooth="yes"/>
      <point x="82" y="727"/>
      <point x="72" y="716"/>
      <point x="72" y="702" type="curve" smooth="yes"/>
      <point x="72" y="629" type="line" smooth="yes"/>
      <point x="72" y="616"/>
      <point x="82" y="605"/>
      <point x="96" y="605" type="curve" smooth="yes"/>
    </contour>
  </outline>
</glyph>
<glyph name="k" format="1">
  <advance width="552"/>
  <unicode hex="006B"/>
  <outline>
    <contour>
      <point x="174" y="0" type="line" smooth="yes"/>
      <point x="188" y="0"/>
      <point x="198" y="10"/>
      <point x="198" y="24" type="curve" smooth="yes"/>
      <point x="198" y="218" type="line"/>
      <point x="387" y="17" type="line" smooth="yes"/>
      <point x="398" y="6"/>
      <point x="404" y="0"/>
      <point x="424" y="0" type="curve" smooth="yes"/>
      <point x="521" y="0" type="line" smooth="yes"/>
      <point x="534" y="0"/>
      <point x="543" y="9"/>
      <point x="543" y="22" type="curve" smooth="yes"/>
      <point x="543" y="27"/>
      <point x="540" y="33"/>
      <point x="534" y="39" type="curve" smooth="yes"/>
      <point x="304" y="287" type="line"/>
      <point x="509" y="480" type="line" smooth="yes"/>
      <point x="515" y="486"/>
      <point x="518" y="493"/>
      <point x="518" y="498" type="curve" smooth="yes"/>
      <point x="518" y="511"/>
      <point x="509" y="520"/>
      <point x="497" y="520" type="curve" smooth="yes"/>
      <point x="401" y="520" type="line" smooth="yes"/>
      <point x="382" y="520"/>
      <point x="377" y="513"/>
      <point x="365" y="503" type="curve" smooth="yes"/>
      <point x="198" y="344" type="line"/>
      <point x="198" y="686" type="line" smooth="yes"/>
      <point x="198" y="700"/>
      <point x="188" y="710"/>
      <point x="174" y="710" type="curve" smooth="yes"/>
      <point x="91" y="710" type="line" smooth="yes"/>
      <point x="77" y="710"/>
      <point x="67" y="700"/>
      <point x="67" y="686" type="curve" smooth="yes"/>
      <point x="67" y="24" type="line" smooth="yes"/>
      <point x="67" y="10"/>
      <point x="77" y="0"/>
      <point x="91" y="0" type="curve" smooth="yes"/>
    </contour>
  </outline>
</glyph>
<glyph name="l" format="1">
  <advance width="266"/>
  <unicode hex="006C"/>
  <outline>
    <contour>
      <point x="176" y="0" type="line" smooth="yes"/>
      <point x="189" y="0"/>
      <point x="200" y="10"/>
      <point x="200" y="24" type="curve" smooth="yes"/>
      <point x="200" y="686" type="line" smooth="yes"/>
      <point x="200" y="700"/>
      <point x="189" y="710"/>
      <point x="176" y="710" type="curve" smooth="yes"/>
      <point x="91" y="710" type="line" smooth="yes"/>
      <point x="77" y="710"/>
      <point x="67" y="700"/>
      <point x="67" y="686" type="curve" smooth="yes"/>
      <point x="67" y="24" type="line" smooth="yes"/>
      <point x="67" y="10"/>
      <point x="77" y="0"/>
      <point x="91" y="0" type="curve" smooth="yes"/>
    </contour>
  </outline>
</glyph>
<glyph name="n" format="1">
  <advance width="625"/>
  <unicode hex="006E"/>
  <outline>
    <contour>
      <point x="179" y="0" type="line" smooth="yes"/>
      <point x="193" y="0"/>
      <point x="203" y="10"/>
      <point x="203" y="24" type="curve" smooth="yes"/>
      <point x="203" y="299" type="line" smooth="yes"/>
      <point x="203" y="376"/>
      <point x="248" y="422"/>
      <point x="316" y="422" type="curve" smooth="yes"/>
      <point x="388" y="422"/>
      <point x="426" y="376"/>
      <point x="426" y="299" type="curve" smooth="yes"/>
      <point x="426" y="24" type="line" smooth="yes"/>
      <point x="426" y="10"/>
      <point x="437" y="0"/>
      <point x="450" y="0" type="curve" smooth="yes"/>
      <point x="540" y="0" type="line" smooth="yes"/>
      <point x="554" y="0"/>
      <point x="564" y="10"/>
      <point x="564" y="24" type="curve" smooth="yes"/>
      <point x="564" y="305" type="line" smooth="yes"/>
      <point x="564" y="445"/>
      <point x="486" y="530"/>
      <point x="364" y="530" type="curve" smooth="yes"/>
      <point x="284" y="530"/>
      <point x="232" y="498"/>
      <point x="197" y="455" type="curve"/>
      <point x="197" y="496" type="line" smooth="yes"/>
      <point x="197" y="510"/>
      <point x="187" y="520"/>
      <point x="173" y="520" type="curve" smooth="yes"/>
      <point x="90" y="520" type="line" smooth="yes"/>
      <point x="76" y="520"/>
      <point x="66" y="510"/>
      <point x="66" y="496" type="curve" smooth="yes"/>
      <point x="66" y="24" type="line" smooth="yes"/>
      <point x="66" y="10"/>
      <point x="76" y="0"/>
      <point x="90" y="0" type="curve" smooth="yes"/>
    </contour>
  </outline>
</glyph>
<glyph name="o" format="1">
  <advance width="593"/>
  <unicode hex="006F"/>
  <outline>
    <contour>
      <point x="457" y="-10"/>
      <point x="541" y="79"/>
      <point x="547" y="216" type="curve" smooth="yes"/>
      <point x="549" y="240"/>
      <point x="549" y="280"/>
      <point x="547" y="304" type="curve" smooth="yes"/>
      <point x="541" y="441"/>
      <point x="453" y="530"/>
      <point x="297" y="530" type="curve" smooth="yes"/>
      <point x="141" y="530"/>
      <point x="53" y="441"/>
      <point x="46" y="304" type="curve" smooth="yes"/>
      <point x="45" y="280"/>
      <point x="45" y="240"/>
      <point x="46" y="216" type="curve" smooth="yes"/>
      <point x="53" y="79"/>
      <point x="136" y="-10"/>
      <point x="297" y="-10" type="curve" smooth="yes"/>
    </contour>
    <contour>
      <point x="227" y="91"/>
      <point x="188" y="135"/>
      <point x="184" y="221" type="curve" smooth="yes"/>
      <point x="183" y="241"/>
      <point x="183" y="279"/>
      <point x="184" y="299" type="curve" smooth="yes"/>
      <point x="188" y="384"/>
      <point x="227" y="430"/>
      <point x="297" y="430" type="curve" smooth="yes"/>
      <point x="367" y="430"/>
      <point x="406" y="384"/>
      <point x="409" y="299" type="curve" smooth="yes"/>
      <point x="410" y="279"/>
      <point x="410" y="241"/>
      <point x="409" y="221" type="curve" smooth="yes"/>
      <point x="406" y="135"/>
      <point x="367" y="91"/>
      <point x="297" y="91" type="curve" smooth="yes"/>
    </contour>
  </outline>
</glyph>
<glyph name="q" format="1">
  <advance width="614"/>
  <unicode hex="0071"/>
  <outline>
    <contour>
      <point x="524" y="-190" type="line" smooth="yes"/>
      <point x="538" y="-190"/>
      <point x="548" y="-180"/>
      <point x="548" y="-166" type="curve" smooth="yes"/>
      <point x="548" y="496" type="line" smooth="yes"/>
      <point x="548" y="510"/>
      <point x="538" y="520"/>
      <point x="524" y="520" type="curve" smooth="yes"/>
      <point x="443" y="520" type="line" smooth="yes"/>
      <point x="429" y="520"/>
      <point x="419" y="510"/>
      <point x="419" y="496" type="curve" smooth="yes"/>
      <point x="419" y="456" type="line"/>
      <point x="387" y="499"/>
      <point x="336" y="530"/>
      <point x="259" y="530" type="curve" smooth="yes"/>
      <point x="120" y="530"/>
      <point x="51" y="433"/>
      <point x="46" y="296" type="curve" smooth="yes"/>
      <point x="45" y="271"/>
      <point x="45" y="248"/>
      <point x="46" y="224" type="curve" smooth="yes"/>
      <point x="51" y="90"/>
      <point x="120" y="-10"/>
      <point x="259" y="-10" type="curve" smooth="yes"/>
      <point x="331" y="-10"/>
      <point x="381" y="18"/>
      <point x="413" y="61" type="curve"/>
      <point x="413" y="-166" type="line" smooth="yes"/>
      <point x="413" y="-180"/>
      <point x="423" y="-190"/>
      <point x="437" y="-190" type="curve" smooth="yes"/>
    </contour>
    <contour>
      <point x="213" y="98"/>
      <point x="187" y="159"/>
      <point x="183" y="230" type="curve" smooth="yes"/>
      <point x="182" y="250"/>
      <point x="182" y="270"/>
      <point x="183" y="290" type="curve" smooth="yes"/>
      <point x="187" y="361"/>
      <point x="213" y="422"/>
      <point x="297" y="422" type="curve" smooth="yes"/>
      <point x="379" y="422"/>
      <point x="410" y="358"/>
      <point x="412" y="295" type="curve" smooth="yes"/>
      <point x="414" y="271"/>
      <point x="414" y="243"/>
      <point x="412" y="218" type="curve" smooth="yes"/>
      <point x="410" y="158"/>
      <point x="376" y="98"/>
      <point x="297" y="98" type="curve" smooth="yes"/>
    </contour>
  </outline>
</glyph>
<glyph name="u" format="1">
  <advance width="622"/>
  <unicode hex="0075"/>
  <outline>
    <contour>
      <point x="338" y="-10"/>
      <point x="390" y="17"/>
      <point x="425" y="65" type="curve"/>
      <point x="425" y="24" type="line" smooth="yes"/>
      <point x="425" y="10"/>
      <point x="435" y="0"/>
      <point x="449" y="0" type="curve" smooth="yes"/>
      <point x="532" y="0" type="line" smooth="yes"/>
      <point x="546" y="0"/>
      <point x="556" y="10"/>
      <point x="556" y="24" type="curve" smooth="yes"/>
      <point x="556" y="496" type="line" smooth="yes"/>
      <point x="556" y="510"/>
      <point x="546" y="520"/>
      <point x="532" y="520" type="curve" smooth="yes"/>
      <point x="443" y="520" type="line" smooth="yes"/>
      <point x="429" y="520"/>
      <point x="419" y="510"/>
      <point x="419" y="496" type="curve" smooth="yes"/>
      <point x="419" y="221" type="line" smooth="yes"/>
      <point x="419" y="144"/>
      <point x="375" y="98"/>
      <point x="306" y="98" type="curve" smooth="yes"/>
      <point x="235" y="98"/>
      <point x="199" y="140"/>
      <point x="199" y="221" type="curve" smooth="yes"/>
      <point x="199" y="496" type="line" smooth="yes"/>
      <point x="199" y="510"/>
      <point x="188" y="520"/>
      <point x="175" y="520" type="curve" smooth="yes"/>
      <point x="85" y="520" type="line" smooth="yes"/>
      <point x="71" y="520"/>
      <point x="61" y="510"/>
      <point x="61" y="496" type="curve" smooth="yes"/>
      <point x="61" y="215" type="line"/>
      <point x="61" y="75"/>
      <point x="137" y="-10"/>
      <point x="259" y="-10" type="curve" smooth="yes"/>
    </contour>
  </outline>
</glyph>
<glyph name="currency" format="1">
  <advance width="601"/>
  <unicode hex="00A4"/>
  <outline>
    <contour>
      <point x="113" y="55"/>
      <point x="127" y="55"/>
      <point x="137" y="64" type="curve" smooth="yes"/>
      <point x="181" y="109" type="line"/>
      <point x="215" y="86"/>
      <point x="256" y="73"/>
      <point x="300" y="73" type="curve" smooth="yes"/>
      <point x="345" y="73"/>
      <point x="386" y="86"/>
      <point x="420" y="109" type="curve"/>
      <point x="464" y="64" type="line" smooth="yes"/>
      <point x="474" y="55"/>
      <point x="488" y="55"/>
      <point x="498" y="64" type="curve" smooth="yes"/>
      <point x="536" y="102" type="line" smooth="yes"/>
      <point x="546" y="112"/>
      <point x="546" y="127"/>
      <point x="536" y="136" type="curve" smooth="yes"/>
      <point x="492" y="180" type="line"/>
      <point x="514" y="214"/>
      <point x="527" y="255"/>
      <point x="527" y="300" type="curve" smooth="yes"/>
      <point x="527" y="344"/>
      <point x="514" y="385"/>
      <point x="492" y="420" type="curve"/>
      <point x="536" y="464" type="line" smooth="yes"/>
      <point x="546" y="473"/>
      <point x="546" y="488"/>
      <point x="536" y="498" type="curve" smooth="yes"/>
      <point x="498" y="536" type="line" smooth="yes"/>
      <point x="488" y="545"/>
      <point x="474" y="545"/>
      <point x="464" y="536" type="curve" smooth="yes"/>
      <point x="420" y="491" type="line"/>
      <point x="386" y="513"/>
      <point x="345" y="527"/>
      <point x="300" y="527" type="curve" smooth="yes"/>
      <point x="256" y="527"/>
      <point x="215" y="513"/>
      <point x="181" y="491" type="curve"/>
      <point x="137" y="536" type="line" smooth="yes"/>
      <point x="127" y="545"/>
      <point x="113" y="545"/>
      <point x="103" y="536" type="curve" smooth="yes"/>
      <point x="64" y="498" type="line" smooth="yes"/>
      <point x="55" y="488"/>
      <point x="55" y="473"/>
      <point x="64" y="464" type="curve" smooth="yes"/>
      <point x="109" y="420" type="line"/>
      <point x="86" y="385"/>
      <point x="74" y="344"/>
      <point x="74" y="300" type="curve" smooth="yes"/>
      <point x="74" y="255"/>
      <point x="86" y="214"/>
      <point x="109" y="180" type="curve"/>
      <point x="64" y="136" type="line" smooth="yes"/>
      <point x="55" y="127"/>
      <point x="55" y="112"/>
      <point x="64" y="102" type="curve" smooth="yes"/>
      <point x="103" y="64" type="line" smooth="yes"/>
    </contour>
    <contour>
      <point x="232" y="175"/>
      <point x="176" y="231"/>
      <point x="176" y="300" type="curve" smooth="yes"/>
      <point x="176" y="369"/>
      <point x="232" y="425"/>
      <point x="301" y="425" type="curve" smooth="yes"/>
      <point x="370" y="425"/>
      <point x="426" y="369"/>
      <point x="426" y="300" type="curve" smooth="yes"/>
      <point x="426" y="231"/>
      <point x="370" y="175"/>
      <point x="301" y="175" type="curve" smooth="yes"/>
    </contour>
  </outline>
</glyph>
<glyph name="ordfeminine" format="1">
  <advance width="360"/>
  <unicode hex="00AA"/>
  <outline>
    <contour>
      <point x="173" y="429"/>
      <point x="205" y="443"/>
      <point x="217" y="463" type="curve"/>
      <point x="217" y="453" type="line" smooth="yes"/>
      <point x="217" y="442"/>
      <point x="226" y="434"/>
      <point x="236" y="434" type="curve" smooth="yes"/>
      <point x="283" y="434" type="line" smooth="yes"/>
      <point x="294" y="434"/>
      <point x="302" y="442"/>
      <point x="302" y="453" type="curve" smooth="yes"/>
      <point x="302" y="596" type="line" smooth="yes"/>
      <point x="302" y="664"/>
      <point x="259" y="705"/>
      <point x="182" y="705" type="curve" smooth="yes"/>
      <point x="104" y="705"/>
      <point x="63" y="660"/>
      <point x="61" y="638" type="curve" smooth="yes"/>
      <point x="60" y="627"/>
      <point x="68" y="623"/>
      <point x="78" y="623" type="curve" smooth="yes"/>
      <point x="124" y="623" type="line" smooth="yes"/>
      <point x="144" y="623"/>
      <point x="147" y="641"/>
      <point x="179" y="641" type="curve" smooth="yes"/>
      <point x="214" y="641"/>
      <point x="215" y="621"/>
      <point x="215" y="609" type="curve"/>
      <point x="156" y="600" type="line" smooth="yes"/>
      <point x="87" y="590"/>
      <point x="43" y="559"/>
      <point x="43" y="507" type="curve" smooth="yes"/>
      <point x="43" y="463"/>
      <point x="81" y="429"/>
      <point x="139" y="429" type="curve" smooth="yes"/>
    </contour>
    <contour>
      <point x="141" y="492"/>
      <point x="127" y="500"/>
      <point x="127" y="512" type="curve" smooth="yes"/>
      <point x="127" y="526"/>
      <point x="136" y="539"/>
      <point x="176" y="546" type="curve" smooth="yes"/>
      <point x="215" y="553" type="line"/>
      <point x="215" y="518"/>
      <point x="199" y="492"/>
      <point x="159" y="492" type="curve" smooth="yes"/>
    </contour>
  </outline>
</glyph>
<glyph name="logicalnot" format="1">
  <advance width="574"/>
  <unicode hex="00AC"/>
  <outline>
    <contour>
      <point x="484" y="121" type="line" smooth="yes"/>
      <point x="497" y="121"/>
      <point x="508" y="132"/>
      <point x="508" y="145" type="curve" smooth="yes"/>
      <point x="508" y="326" type="line" smooth="yes"/>
      <point x="508" y="340"/>
      <point x="497" y="350"/>
      <point x="484" y="350" type="curve" smooth="yes"/>
      <point x="86" y="350" type="line" smooth="yes"/>
      <point x="72" y="350"/>
      <point x="62" y="340"/>
      <point x="62" y="326" type="curve" smooth="yes"/>
      <point x="62" y="269" type="line" smooth="yes"/>
      <point x="62" y="256"/>
      <point x="72" y="245"/>
      <point x="86" y="245" type="curve" smooth="yes"/>
      <point x="401" y="245" type="line"/>
      <point x="401" y="145" type="line" smooth="yes"/>
      <point x="401" y="132"/>
      <point x="411" y="121"/>
      <point x="425" y="121" type="curve" smooth="yes"/>
    </contour>
  </outline>
</glyph>
<glyph name="paragraph" format="1">
  <advance width="582"/>
  <unicode hex="00B6"/>
  <outline>
    <contour>
      <point x="298" y="-100" type="line" smooth="yes"/>
      <point x="312" y="-100"/>
      <point x="322" y="-90"/>
      <point x="322" y="-76" type="curve" smooth="yes"/>
      <point x="322" y="604" type="line"/>
      <point x="401" y="604" type="line"/>
      <point x="401" y="-76" type="line" smooth="yes"/>
      <point x="401" y="-90"/>
      <point x="411" y="-100"/>
      <point x="425" y="-100" type="curve" smooth="yes"/>
      <point x="485" y="-100" type="line" smooth="yes"/>
      <point x="499" y="-100"/>
      <point x="509" y="-90"/>
      <point x="509" y="-76" type="curve" smooth="yes"/>
      <point x="509" y="676" type="line" smooth="yes"/>
      <point x="509" y="690"/>
      <point x="499" y="700"/>
      <point x="485" y="700" type="curve" smooth="yes"/>
      <point x="213" y="700" type="line" smooth="yes"/>
      <point x="111" y="700"/>
      <point x="28" y="617"/>
      <point x="28" y="515" type="curve" smooth="yes"/>
      <point x="28" y="412"/>
      <point x="111" y="329"/>
      <point x="213" y="329" type="curve"/>
      <point x="213" y="-76" type="line" smooth="yes"/>
      <point x="213" y="-90"/>
      <point x="224" y="-100"/>
      <point x="237" y="-100" type="curve" smooth="yes"/>
    </contour>
  </outline>
</glyph>
<glyph name="ordmasculine" format="1">
  <advance width="356"/>
  <unicode hex="00BA"/>
  <outline>
    <contour>
      <point x="260" y="429"/>
      <point x="306" y="467"/>
      <point x="310" y="540" type="curve" smooth="yes"/>
      <point x="311" y="550"/>
      <point x="311" y="584"/>
      <point x="310" y="594" type="curve" smooth="yes"/>
      <point x="306" y="667"/>
      <point x="254" y="705"/>
      <point x="178" y="705" type="curve" smooth="yes"/>
      <point x="103" y="705"/>
      <point x="50" y="667"/>
      <point x="46" y="594" type="curve" smooth="yes"/>
      <point x="45" y="584"/>
      <point x="45" y="550"/>
      <point x="46" y="540" type="curve" smooth="yes"/>
      <point x="50" y="467"/>
      <point x="97" y="429"/>
      <point x="178" y="429" type="curve" smooth="yes"/>
    </contour>
    <contour>
      <point x="149" y="497"/>
      <point x="136" y="511"/>
      <point x="134" y="545" type="curve" smooth="yes"/>
      <point x="133" y="555"/>
      <point x="133" y="579"/>
      <point x="134" y="589" type="curve" smooth="yes"/>
      <point x="136" y="620"/>
      <point x="149" y="637"/>
      <point x="178" y="637" type="curve" smooth="yes"/>
      <point x="207" y="637"/>
      <point x="220" y="620"/>
      <point x="222" y="589" type="curve" smooth="yes"/>
      <point x="223" y="579"/>
      <point x="223" y="555"/>
      <point x="222" y="545" type="curve" smooth="yes"/>
      <point x="220" y="511"/>
      <point x="207" y="497"/>
      <point x="178" y="497" type="curve" smooth="yes"/>
    </contour>
  </outline>
</glyph>
<glyph name="Ccedilla" format="1">
  <advance width="685"/>
  <unicode hex="00C7"/>
  <outline>
    <contour>
      <point x="406" y="-221"/>
      <point x="440" y="-181"/>
      <point x="440" y="-131" type="curve" smooth="yes"/>
      <point x="440" y="-81"/>
      <point x="409" y="-46"/>
      <point x="362" y="-46" type="curve" smooth="yes"/>
      <point x="352" y="-46"/>
      <point x="335" y="-48"/>
      <point x="327" y="-53" type="curve"/>
      <point x="348" y="-10" type="line"/>
      <point x="530" y="-10"/>
      <point x="640" y="91"/>
      <point x="644" y="223" type="curve" smooth="yes"/>
      <point x="645" y="235"/>
      <point x="635" y="244"/>
      <point x="623" y="244" type="curve"/>
      <point x="526" y="244" type="line"/>
      <point x="511" y="244"/>
      <point x="503" y="238"/>
      <point x="498" y="219" type="curve" smooth="yes"/>
      <point x="477" y="133"/>
      <point x="424" y="106"/>
      <point x="348" y="106" type="curve" smooth="yes"/>
      <point x="258" y="106"/>
      <point x="203" y="153"/>
      <point x="199" y="266" type="curve" smooth="yes"/>
      <point x="197" y="323"/>
      <point x="197" y="379"/>
      <point x="199" y="434" type="curve" smooth="yes"/>
      <point x="203" y="548"/>
      <point x="258" y="594"/>
      <point x="348" y="594" type="curve" smooth="yes"/>
      <point x="424" y="594"/>
      <point x="477" y="568"/>
      <point x="498" y="481" type="curve" smooth="yes"/>
      <point x="503" y="462"/>
      <point x="511" y="457"/>
      <point x="526" y="457" type="curve"/>
      <point x="623" y="457" type="line"/>
      <point x="635" y="457"/>
      <point x="645" y="465"/>
      <point x="644" y="477" type="curve" smooth="yes"/>
      <point x="640" y="609"/>
      <point x="530" y="710"/>
      <point x="348" y="710" type="curve" smooth="yes"/>
      <point x="164" y="710"/>
      <point x="61" y="608"/>
      <point x="54" y="439" type="curve" smooth="yes"/>
      <point x="52" y="382"/>
      <point x="52" y="315"/>
      <point x="54" y="261" type="curve" smooth="yes"/>
      <point x="60" y="109"/>
      <point x="141" y="13"/>
      <point x="290" y="-6" type="curve"/>
      <point x="270" y="-53" type="line"/>
      <point x="264" y="-66"/>
      <point x="261" y="-75"/>
      <point x="268" y="-84" type="curve"/>
      <point x="286" y="-103" type="line"/>
      <point x="301" y="-117"/>
      <point x="318" y="-100"/>
      <point x="344" y="-100" type="curve" smooth="yes"/>
      <point x="366" y="-100"/>
      <point x="381" y="-113"/>
      <point x="381" y="-132" type="curve" smooth="yes"/>
      <point x="381" y="-152"/>
      <point x="365" y="-166"/>
      <point x="344" y="-166" type="curve" smooth="yes"/>
      <point x="304" y="-166"/>
      <point x="298" y="-138"/>
      <point x="281" y="-154" type="curve"/>
      <point x="264" y="-169" type="line"/>
      <point x="245" y="-186"/>
      <point x="289" y="-219"/>
      <point x="344" y="-220" type="curve" smooth="yes"/>
    </contour>
  </outline>
</glyph>
<glyph name="multiply" format="1">
  <advance width="582"/>
  <unicode hex="00D7"/>
  <outline>
    <contour>
      <point x="127" y="92"/>
      <point x="142" y="92"/>
      <point x="151" y="102" type="curve" smooth="yes"/>
      <point x="291" y="242" type="line"/>
      <point x="431" y="102" type="line" smooth="yes"/>
      <point x="441" y="93"/>
      <point x="455" y="93"/>
      <point x="465" y="102" type="curve" smooth="yes"/>
      <point x="522" y="159" type="line" smooth="yes"/>
      <point x="531" y="169"/>
      <point x="531" y="183"/>
      <point x="522" y="193" type="curve" smooth="yes"/>
      <point x="382" y="332" type="line"/>
      <point x="522" y="472" type="line" smooth="yes"/>
      <point x="531" y="482"/>
      <point x="531" y="497"/>
      <point x="522" y="506" type="curve" smooth="yes"/>
      <point x="465" y="563" type="line" smooth="yes"/>
      <point x="455" y="573"/>
      <point x="441" y="573"/>
      <point x="431" y="563" type="curve" smooth="yes"/>
      <point x="291" y="423" type="line"/>
      <point x="151" y="564" type="line" smooth="yes"/>
      <point x="142" y="573"/>
      <point x="127" y="573"/>
      <point x="117" y="564" type="curve" smooth="yes"/>
      <point x="60" y="507" type="line" smooth="yes"/>
      <point x="51" y="497"/>
      <point x="51" y="483"/>
      <point x="60" y="473" type="curve" smooth="yes"/>
      <point x="200" y="332" type="line"/>
      <point x="60" y="193" type="line" smooth="yes"/>
      <point x="51" y="183"/>
      <point x="51" y="169"/>
      <point x="60" y="159" type="curve" smooth="yes"/>
      <point x="117" y="102" type="line" smooth="yes"/>
    </contour>
  </outline>
</glyph>
<glyph name="Thorn" format="1">
  <advance width="663"/>
  <unicode hex="00DE"/>
  <outline>
    <contour>
      <point x="198" y="0" type="line" smooth="yes"/>
      <point x="213" y="0"/>
      <point x="223" y="10"/>
      <point x="223" y="24" type="curve" smooth="yes"/>
      <point x="223" y="133" type="line"/>
      <point x="368" y="133" type="line" smooth="yes"/>
      <point x="527" y="133"/>
      <point x="630" y="204"/>
      <point x="630" y="353" type="curve" smooth="yes"/>
      <point x="630" y="501"/>
      <point x="527" y="575"/>
      <point x="368" y="575" type="curve"/>
      <point x="223" y="575" type="line"/>
      <point x="223" y="676" type="line" smooth="yes"/>
      <point x="223" y="690"/>
      <point x="213" y="700"/>
      <point x="199" y="700" type="curve" smooth="yes"/>
      <point x="102" y="700" type="line"/>
      <point x="88" y="700"/>
      <point x="78" y="690"/>
      <point x="78" y="676" type="curve" smooth="yes"/>
      <point x="78" y="24" type="line" smooth="yes"/>
      <point x="78" y="10"/>
      <point x="88" y="0"/>
      <point x="102" y="0" type="curve" smooth="yes"/>
    </contour>
    <contour>
      <point x="221" y="463" type="line"/>
      <point x="365" y="463" type="line" smooth="yes"/>
      <point x="448" y="463"/>
      <point x="485" y="419"/>
      <point x="485" y="353" type="curve" smooth="yes"/>
      <point x="485" y="282"/>
      <point x="442" y="245"/>
      <point x="365" y="245" type="curve" smooth="yes"/>
      <point x="221" y="245" type="line"/>
    </contour>
  </outline>
</glyph>
<glyph name="divide" format="1">
  <advance width="545"/>
  <unicode hex="00F7"/>
  <outline>
    <contour>
      <point x="467" y="248" type="line" smooth="yes"/>
      <point x="480" y="248"/>
      <point x="491" y="259"/>
      <point x="491" y="272" type="curve" smooth="yes"/>
      <point x="491" y="329" type="line" smooth="yes"/>
      <point x="491" y="343"/>
      <point x="480" y="353"/>
      <point x="467" y="353" type="curve" smooth="yes"/>
      <point x="79" y="353" type="line" smooth="yes"/>
      <point x="65" y="353"/>
      <point x="55" y="343"/>
      <point x="55" y="329" type="curve" smooth="yes"/>
      <point x="55" y="272" type="line" smooth="yes"/>
      <point x="55" y="259"/>
      <point x="65" y="248"/>
      <point x="79" y="248" type="curve" smooth="yes"/>
    </contour>
    <contour>
      <point x="312" y="57" type="line" smooth="yes"/>
      <point x="326" y="57"/>
      <point x="336" y="67"/>
      <point x="336" y="81" type="curve" smooth="yes"/>
      <point x="336" y="156" type="line" smooth="yes"/>
      <point x="336" y="170"/>
      <point x="326" y="181"/>
      <point x="312" y="181" type="curve" smooth="yes"/>
      <point x="232" y="181" type="line" smooth="yes"/>
      <point x="218" y="181"/>
      <point x="208" y="170"/>
      <point x="208" y="156" type="curve" smooth="yes"/>
      <point x="208" y="81" type="line" smooth="yes"/>
      <point x="208" y="67"/>
      <point x="218" y="57"/>
      <point x="232" y="57" type="curve" smooth="yes"/>
    </contour>
    <contour>
      <point x="312" y="421" type="line" smooth="yes"/>
      <point x="326" y="421"/>
      <point x="336" y="431"/>
      <point x="336" y="445" type="curve" smooth="yes"/>
      <point x="336" y="520" type="line" smooth="yes"/>
      <point x="336" y="534"/>
      <point x="326" y="545"/>
      <point x="312" y="545" type="curve" smooth="yes"/>
      <point x="232" y="545" type="line" smooth="yes"/>
      <point x="218" y="545"/>
      <point x="208" y="534"/>
      <point x="208" y="520" type="curve" smooth="yes"/>
      <point x="208" y="445" type="line" smooth="yes"/>
      <point x="208" y="431"/>
      <point x="218" y="421"/>
      <point x="232" y="421" type="curve" smooth="yes"/>
    </contour>
  </outline>
</glyph>
<glyph name="thorn" format="1">
  <advance width="615"/>
  <unicode hex="00FE"/>
  <outline>
    <contour>
      <point x="178" y="-190" type="line" smooth="yes"/>
      <point x="192" y="-190"/>
      <point x="202" y="-180"/>
      <point x="202" y="-166" type="curve" smooth="yes"/>
      <point x="202" y="61" type="line"/>
      <point x="234" y="18"/>
      <point x="284" y="-10"/>
      <point x="356" y="-10" type="curve" smooth="yes"/>
      <point x="495" y="-10"/>
      <point x="564" y="90"/>
      <point x="569" y="224" type="curve" smooth="yes"/>
      <point x="570" y="248"/>
      <point x="570" y="271"/>
      <point x="569" y="296" type="curve" smooth="yes"/>
      <point x="564" y="433"/>
      <point x="495" y="530"/>
      <point x="356" y="530" type="curve" smooth="yes"/>
      <point x="278" y="530"/>
      <point x="234" y="503"/>
      <point x="202" y="460" type="curve"/>
      <point x="202" y="686" type="line" smooth="yes"/>
      <point x="202" y="700"/>
      <point x="192" y="710"/>
      <point x="178" y="710" type="curve" smooth="yes"/>
      <point x="91" y="710" type="line" smooth="yes"/>
      <point x="77" y="710"/>
      <point x="67" y="700"/>
      <point x="67" y="686" type="curve" smooth="yes"/>
      <point x="67" y="-166" type="line" smooth="yes"/>
      <point x="67" y="-180"/>
      <point x="77" y="-190"/>
      <point x="91" y="-190" type="curve" smooth="yes"/>
    </contour>
    <contour>
      <point x="239" y="98"/>
      <point x="204" y="158"/>
      <point x="202" y="218" type="curve" smooth="yes"/>
      <point x="201" y="243"/>
      <point x="201" y="271"/>
      <point x="202" y="295" type="curve" smooth="yes"/>
      <point x="205" y="358"/>
      <point x="236" y="422"/>
      <point x="318" y="422" type="curve" smooth="yes"/>
      <point x="401" y="422"/>
      <point x="427" y="361"/>
      <point x="431" y="290" type="curve" smooth="yes"/>
      <point x="433" y="270"/>
      <point x="433" y="250"/>
      <point x="431" y="230" type="curve" smooth="yes"/>
      <point x="427" y="159"/>
      <point x="401" y="98"/>
      <point x="318" y="98" type="curve" smooth="yes"/>
    </contour>
  </outline>
</glyph>
<glyph name="Dcroat" format="1">
  <advance width="717"/>
  <unicode hex="0110"/>
  <outline>
    <contour>
      <point x="363" y="0" type="line" smooth="yes"/>
      <point x="563" y="0"/>
      <point x="656" y="87"/>
      <point x="661" y="273" type="curve" smooth="yes"/>
      <point x="663" y="331"/>
      <point x="663" y="369"/>
      <point x="661" y="428" type="curve" smooth="yes"/>
      <point x="657" y="604"/>
      <point x="562" y="700"/>
      <point x="360" y="700" type="curve"/>
      <point x="116" y="700" type="line" smooth="yes"/>
      <point x="102" y="700"/>
      <point x="92" y="690"/>
      <point x="92" y="675" type="curve" smooth="yes"/>
      <point x="92" y="402" type="line"/>
      <point x="39" y="402" type="line" smooth="yes"/>
      <point x="25" y="402"/>
      <point x="15" y="392"/>
      <point x="15" y="378" type="curve" smooth="yes"/>
      <point x="15" y="327" type="line" smooth="yes"/>
      <point x="15" y="313"/>
      <point x="25" y="302"/>
      <point x="39" y="302" type="curve" smooth="yes"/>
      <point x="92" y="302" type="line"/>
      <point x="92" y="24" type="line" smooth="yes"/>
      <point x="92" y="10"/>
      <point x="102" y="0"/>
      <point x="116" y="0" type="curve" smooth="yes"/>
    </contour>
    <contour>
      <point x="232" y="302" type="line"/>
      <point x="343" y="302" type="line" smooth="yes"/>
      <point x="357" y="302"/>
      <point x="367" y="313"/>
      <point x="367" y="327" type="curve" smooth="yes"/>
      <point x="367" y="378" type="line" smooth="yes"/>
      <point x="367" y="392"/>
      <point x="357" y="402"/>
      <point x="343" y="402" type="curve" smooth="yes"/>
      <point x="232" y="402" type="line"/>
      <point x="232" y="584" type="line"/>
      <point x="357" y="584" type="line" smooth="yes"/>
      <point x="469" y="584"/>
      <point x="515" y="534"/>
      <point x="518" y="425" type="curve" smooth="yes"/>
      <point x="520" y="367"/>
      <point x="520" y="335"/>
      <point x="518" y="276" type="curve" smooth="yes"/>
      <point x="515" y="162"/>
      <point x="471" y="116"/>
      <point x="359" y="116" type="curve" smooth="yes"/>
      <point x="232" y="116" type="line"/>
    </contour>
  </outline>
</glyph>
<glyph name="Eogonek" format="1">
  <advance width="623"/>
  <unicode hex="0118"/>
  <outline>
    <contour>
      <point x="552" y="-220" type="line" smooth="yes"/>
      <point x="566" y="-220"/>
      <point x="576" y="-210"/>
      <point x="576" y="-196" type="curve" smooth="yes"/>
      <point x="576" y="-160" type="line" smooth="yes"/>
      <point x="576" y="-146"/>
      <point x="566" y="-136"/>
      <point x="552" y="-136" type="curve" smooth="yes"/>
      <point x="539" y="-136" type="line" smooth="yes"/>
      <point x="497" y="-136"/>
      <point x="474" y="-107"/>
      <point x="474" y="-68" type="curve" smooth="yes"/>
      <point x="474" y="-31"/>
      <point x="495" y="-2"/>
      <point x="535" y="0" type="curve" smooth="yes"/>
      <point x="551" y="0" type="line" smooth="yes"/>
      <point x="566" y="0"/>
      <point x="576" y="10"/>
      <point x="576" y="24" type="curve" smooth="yes"/>
      <point x="576" y="92" type="line" smooth="yes"/>
      <point x="576" y="106"/>
      <point x="566" y="116"/>
      <point x="551" y="116" type="curve" smooth="yes"/>
      <point x="215" y="116" type="line"/>
      <point x="215" y="297" type="line"/>
      <point x="521" y="297" type="line" smooth="yes"/>
      <point x="536" y="297"/>
      <point x="546" y="307"/>
      <point x="546" y="321" type="curve" smooth="yes"/>
      <point x="546" y="384" type="line" smooth="yes"/>
      <point x="546" y="399"/>
      <point x="536" y="409"/>
      <point x="521" y="409" type="curve" smooth="yes"/>
      <point x="215" y="409" type="line"/>
      <point x="215" y="584" type="line"/>
      <point x="543" y="584" type="line" smooth="yes"/>
      <point x="558" y="584"/>
      <point x="568" y="594"/>
      <point x="568" y="608" type="curve" smooth="yes"/>
      <point x="568" y="675" type="line" smooth="yes"/>
      <point x="568" y="690"/>
      <point x="558" y="700"/>
      <point x="543" y="700" type="curve" smooth="yes"/>
      <point x="102" y="700" type="line" smooth="yes"/>
      <point x="88" y="700"/>
      <point x="78" y="690"/>
      <point x="78" y="675" type="curve" smooth="yes"/>
      <point x="78" y="24" type="line" smooth="yes"/>
      <point x="78" y="10"/>
      <point x="88" y="0"/>
      <point x="102" y="0" type="curve" smooth="yes"/>
      <point x="401" y="0" type="line"/>
      <point x="391" y="-20"/>
      <point x="386" y="-42"/>
      <point x="386" y="-68" type="curve" smooth="yes"/>
      <point x="386" y="-157"/>
      <point x="437" y="-220"/>
      <point x="535" y="-220" type="curve" smooth="yes"/>
    </contour>
  </outline>
</glyph>
<glyph name="hbar" format="1">
  <advance width="630"/>
  <unicode hex="0127"/>
  <outline>
    <contour>
      <point x="181" y="0" type="line" smooth="yes"/>
      <point x="195" y="0"/>
      <point x="205" y="10"/>
      <point x="205" y="24" type="curve" smooth="yes"/>
      <point x="205" y="299" type="line" smooth="yes"/>
      <point x="205" y="376"/>
      <point x="250" y="422"/>
      <point x="319" y="422" type="curve" smooth="yes"/>
      <point x="391" y="422"/>
      <point x="429" y="376"/>
      <point x="429" y="299" type="curve" smooth="yes"/>
      <point x="429" y="25" type="line" smooth="yes"/>
      <point x="429" y="11"/>
      <point x="439" y="0"/>
      <point x="453" y="0" type="curve" smooth="yes"/>
      <point x="545" y="0" type="line" smooth="yes"/>
      <point x="558" y="0"/>
      <point x="569" y="11"/>
      <point x="569" y="25" type="curve" smooth="yes"/>
      <point x="569" y="305" type="line" smooth="yes"/>
      <point x="569" y="445"/>
      <point x="488" y="530"/>
      <point x="367" y="530" type="curve" smooth="yes"/>
      <point x="291" y="530"/>
      <point x="241" y="501"/>
      <point x="205" y="458" type="curve"/>
      <point x="205" y="557" type="line"/>
      <point x="249" y="557" type="line" smooth="yes"/>
      <point x="263" y="557"/>
      <point x="273" y="568"/>
      <point x="273" y="581" type="curve" smooth="yes"/>
      <point x="273" y="611" type="line" smooth="yes"/>
      <point x="273" y="625"/>
      <point x="263" y="635"/>
      <point x="249" y="635" type="curve" smooth="yes"/>
      <point x="205" y="635" type="line"/>
      <point x="205" y="686" type="line" smooth="yes"/>
      <point x="205" y="700"/>
      <point x="195" y="710"/>
      <point x="181" y="710" type="curve" smooth="yes"/>
      <point x="90" y="710" type="line" smooth="yes"/>
      <point x="76" y="710"/>
      <point x="66" y="700"/>
      <point x="66" y="686" type="curve" smooth="yes"/>
      <point x="66" y="635" type="line"/>
      <point x="21" y="635" type="line" smooth="yes"/>
      <point x="8" y="635"/>
      <point x="-3" y="625"/>
      <point x="-3" y="611" type="curve" smooth="yes"/>
      <point x="-3" y="581" type="line" smooth="yes"/>
      <point x="-3" y="568"/>
      <point x="8" y="557"/>
      <point x="21" y="557" type="curve" smooth="yes"/>
      <point x="66" y="557" type="line"/>
      <point x="66" y="24" type="line" smooth="yes"/>
      <point x="66" y="10"/>
      <point x="76" y="0"/>
      <point x="90" y="0" type="curve" smooth="yes"/>
    </contour>
  </outline>
</glyph>
<glyph name="idotless" format="1">
  <advance width="265"/>
  <unicode hex="0131"/>
  <outline>
    <contour>
      <point x="175" y="0" type="line"/>
      <point x="188" y="0"/>
      <point x="199" y="10"/>
      <point x="199" y="24" type="curve" smooth="yes"/>
      <point x="199" y="496" type="line" smooth="yes"/>
      <point x="199" y="510"/>
      <point x="188" y="520"/>
      <point x="175" y="520" type="curve" smooth="yes"/>
      <point x="90" y="520" type="line" smooth="yes"/>
      <point x="76" y="520"/>
      <point x="66" y="510"/>
      <point x="66" y="496" type="curve" smooth="yes"/>
      <point x="66" y="24" type="line" smooth="yes"/>
      <point x="66" y="10"/>
      <point x="76" y="0"/>
      <point x="90" y="0" type="curve" smooth="yes"/>
    </contour>
  </outline>
</glyph>
<glyph name="kgreenlandic" format="1">
  <advance width="553"/>
  <unicode hex="0138"/>
  <outline>
    <contour>
      <point x="173" y="0" type="line" smooth="yes"/>
      <point x="187" y="0"/>
      <point x="197" y="10"/>
      <point x="197" y="24" type="curve" smooth="yes"/>
      <point x="197" y="202" type="line"/>
      <point x="385" y="17" type="line" smooth="yes"/>
      <point x="396" y="8"/>
      <point x="402" y="0"/>
      <point x="422" y="0" type="curve" smooth="yes"/>
      <point x="520" y="0" type="line" smooth="yes"/>
      <point x="533" y="0"/>
      <point x="542" y="9"/>
      <point x="542" y="22" type="curve" smooth="yes"/>
      <point x="542" y="27"/>
      <point x="539" y="33"/>
      <point x="533" y="39" type="curve" smooth="yes"/>
      <point x="306" y="263" type="line"/>
      <point x="511" y="480" type="line" smooth="yes"/>
      <point x="517" y="486"/>
      <point x="520" y="493"/>
      <point x="520" y="498" type="curve" smooth="yes"/>
      <point x="520" y="511"/>
      <point x="511" y="520"/>
      <point x="499" y="520" type="curve" smooth="yes"/>
      <point x="409" y="520" type="line" smooth="yes"/>
      <point x="390" y="520"/>
      <point x="385" y="513"/>
      <point x="373" y="503" type="curve" smooth="yes"/>
      <point x="197" y="317" type="line"/>
      <point x="197" y="496" type="line" smooth="yes"/>
      <point x="197" y="510"/>
      <point x="187" y="520"/>
      <point x="173" y="520" type="curve" smooth="yes"/>
      <point x="90" y="520" type="line" smooth="yes"/>
      <point x="76" y="520"/>
      <point x="66" y="510"/>
      <point x="66" y="496" type="curve" smooth="yes"/>
      <point x="66" y="24" type="line" smooth="yes"/>
      <point x="66" y="10"/>
      <point x="76" y="0"/>
      <point x="90" y="0" type="curve" smooth="yes"/>
    </contour>
  </outline>
</glyph>
<glyph name="lslash" format="1">
  <advance width="311"/>
  <unicode hex="0142"/>
  <outline>
    <contour>
      <point x="198" y="0" type="line" smooth="yes"/>
      <point x="212" y="0"/>
      <point x="223" y="10"/>
      <point x="223" y="24" type="curve" smooth="yes"/>
      <point x="223" y="332" type="line"/>
      <point x="266" y="349" type="line" smooth="yes"/>
      <point x="282" y="355"/>
      <point x="288" y="361"/>
      <point x="288" y="378" type="curve" smooth="yes"/>
      <point x="288" y="434" type="line" smooth="yes"/>
      <point x="288" y="446"/>
      <point x="280" y="453"/>
      <point x="269" y="453" type="curve" smooth="yes"/>
      <point x="265" y="453"/>
      <point x="261" y="452"/>
      <point x="256" y="450" type="curve" smooth="yes"/>
      <point x="223" y="437" type="line"/>
      <point x="223" y="686" type="line" smooth="yes"/>
      <point x="223" y="700"/>
      <point x="212" y="710"/>
      <point x="198" y="710" type="curve" smooth="yes"/>
      <point x="114" y="710" type="line" smooth="yes"/>
      <point x="100" y="710"/>
      <point x="90" y="700"/>
      <point x="90" y="686" type="curve" smooth="yes"/>
      <point x="90" y="385" type="line"/>
      <point x="46" y="369" type="line" smooth="yes"/>
      <point x="30" y="363"/>
      <point x="24" y="357"/>
      <point x="24" y="341" type="curve" smooth="yes"/>
      <point x="24" y="284" type="line" smooth="yes"/>
      <point x="24" y="272"/>
      <point x="32" y="265"/>
      <point x="44" y="265" type="curve" smooth="yes"/>
      <point x="47" y="265"/>
      <point x="51" y="266"/>
      <point x="56" y="268" type="curve" smooth="yes"/>
      <point x="90" y="281" type="line"/>
      <point x="90" y="24" type="line" smooth="yes"/>
      <point x="90" y="10"/>
      <point x="100" y="0"/>
      <point x="114" y="0" type="curve" smooth="yes"/>
    </contour>
  </outline>
</glyph>
<glyph name="eng" format="1">
  <advance width="625"/>
  <unicode hex="014B"/>
  <outline>
    <contour>
      <point x="342" y="-225" type="line" smooth="yes"/>
      <point x="489" y="-225"/>
      <point x="564" y="-147"/>
      <point x="564" y="-13" type="curve" smooth="yes"/>
      <point x="564" y="305" type="line" smooth="yes"/>
      <point x="564" y="445"/>
      <point x="486" y="530"/>
      <point x="364" y="530" type="curve" smooth="yes"/>
      <point x="284" y="530"/>
      <point x="232" y="498"/>
      <point x="197" y="455" type="curve"/>
      <point x="197" y="496" type="line" smooth="yes"/>
      <point x="197" y="510"/>
      <point x="187" y="520"/>
      <point x="173" y="520" type="curve" smooth="yes"/>
      <point x="90" y="520" type="line" smooth="yes"/>
      <point x="76" y="520"/>
      <point x="66" y="510"/>
      <point x="66" y="496" type="curve" smooth="yes"/>
      <point x="66" y="24" type="line" smooth="yes"/>
      <point x="66" y="10"/>
      <point x="76" y="0"/>
      <point x="90" y="0" type="curve" smooth="yes"/>
      <point x="179" y="0" type="line" smooth="yes"/>
      <point x="193" y="0"/>
      <point x="203" y="10"/>
      <point x="203" y="24" type="curve" smooth="yes"/>
      <point x="203" y="299" type="line" smooth="yes"/>
      <point x="203" y="376"/>
      <point x="248" y="422"/>
      <point x="316" y="422" type="curve" smooth="yes"/>
      <point x="388" y="422"/>
      <point x="426" y="376"/>
      <point x="426" y="299" type="curve" smooth="yes"/>
      <point x="426" y="-9" type="line" smooth="yes"/>
      <point x="426" y="-70"/>
      <point x="411" y="-107"/>
      <point x="346" y="-107" type="curve" smooth="yes"/>
      <point x="327" y="-107" type="line" smooth="yes"/>
      <point x="314" y="-107"/>
      <point x="303" y="-117"/>
      <point x="303" y="-131" type="curve"/>
      <point x="303" y="-201" type="line" smooth="yes"/>
      <point x="303" y="-215"/>
      <point x="314" y="-225"/>
      <point x="327" y="-225" type="curve" smooth="yes"/>
    </contour>
  </outline>
</glyph>
<glyph name="OE" format="1">
  <advance width="943"/>
  <unicode hex="0152"/>
  <outline>
    <contour>
      <point x="871" y="0" type="line"/>
      <point x="885" y="0"/>
      <point x="895" y="10"/>
      <point x="895" y="24" type="curve"/>
      <point x="895" y="92" type="line"/>
      <point x="895" y="106"/>
      <point x="885" y="116"/>
      <point x="871" y="116" type="curve"/>
      <point x="566" y="116" type="line"/>
      <point x="566" y="297" type="line"/>
      <point x="841" y="297" type="line"/>
      <point x="855" y="297"/>
      <point x="865" y="307"/>
      <point x="865" y="321" type="curve"/>
      <point x="865" y="384" type="line"/>
      <point x="865" y="399"/>
      <point x="855" y="409"/>
      <point x="841" y="409" type="curve"/>
      <point x="566" y="409" type="line"/>
      <point x="566" y="584" type="line"/>
      <point x="863" y="584" type="line"/>
      <point x="877" y="584"/>
      <point x="887" y="594"/>
      <point x="887" y="608" type="curve"/>
      <point x="887" y="675" type="line"/>
      <point x="887" y="690"/>
      <point x="877" y="700"/>
      <point x="863" y="700" type="curve"/>
      <point x="357" y="700" type="line"/>
      <point x="155" y="700"/>
      <point x="60" y="604"/>
      <point x="55" y="428" type="curve" smooth="yes"/>
      <point x="54" y="369"/>
      <point x="54" y="331"/>
      <point x="55" y="273" type="curve" smooth="yes"/>
      <point x="61" y="87"/>
      <point x="152" y="0"/>
      <point x="352" y="0" type="curve"/>
    </contour>
    <contour>
      <point x="246" y="116"/>
      <point x="201" y="162"/>
      <point x="198" y="276" type="curve" smooth="yes"/>
      <point x="196" y="335"/>
      <point x="196" y="367"/>
      <point x="198" y="425" type="curve" smooth="yes"/>
      <point x="201" y="534"/>
      <point x="250" y="584"/>
      <point x="362" y="584" type="curve"/>
      <point x="429" y="584" type="line"/>
      <point x="429" y="116" type="line"/>
      <point x="357" y="116" type="line"/>
    </contour>
  </outline>
</glyph>
<glyph name="Scedilla" format="1">
  <advance width="643"/>
  <unicode hex="015E"/>
  <outline>
    <contour>
      <point x="381" y="-221"/>
      <point x="415" y="-181"/>
      <point x="415" y="-131" type="curve" smooth="yes"/>
      <point x="415" y="-81"/>
      <point x="384" y="-46"/>
      <point x="337" y="-46" type="curve" smooth="yes"/>
      <point x="326" y="-46"/>
      <point x="310" y="-48"/>
      <point x="302" y="-53" type="curve"/>
      <point x="323" y="-10" type="line"/>
      <point x="491" y="-9"/>
      <point x="606" y="69"/>
      <point x="606" y="200" type="curve" smooth="yes"/>
      <point x="606" y="318"/>
      <point x="533" y="367"/>
      <point x="362" y="405" type="curve" smooth="yes"/>
      <point x="241" y="436"/>
      <point x="198" y="458"/>
      <point x="198" y="512" type="curve" smooth="yes"/>
      <point x="198" y="567"/>
      <point x="244" y="594"/>
      <point x="316" y="594" type="curve" smooth="yes"/>
      <point x="384" y="594"/>
      <point x="431" y="560"/>
      <point x="439" y="519" type="curve" smooth="yes"/>
      <point x="445" y="505"/>
      <point x="456" y="501"/>
      <point x="468" y="501" type="curve"/>
      <point x="563" y="501" type="line"/>
      <point x="576" y="501"/>
      <point x="584" y="511"/>
      <point x="584" y="522" type="curve" smooth="yes"/>
      <point x="581" y="603"/>
      <point x="491" y="710"/>
      <point x="316" y="710" type="curve" smooth="yes"/>
      <point x="153" y="710"/>
      <point x="54" y="625"/>
      <point x="54" y="509" type="curve" smooth="yes"/>
      <point x="54" y="390"/>
      <point x="132" y="338"/>
      <point x="281" y="303" type="curve" smooth="yes"/>
      <point x="410" y="269"/>
      <point x="462" y="250"/>
      <point x="462" y="194" type="curve" smooth="yes"/>
      <point x="462" y="140"/>
      <point x="416" y="106"/>
      <point x="321" y="106" type="curve" smooth="yes"/>
      <point x="232" y="106"/>
      <point x="191" y="147"/>
      <point x="178" y="186" type="curve" smooth="yes"/>
      <point x="171" y="197"/>
      <point x="164" y="205"/>
      <point x="147" y="205" type="curve"/>
      <point x="56" y="205" type="line"/>
      <point x="44" y="205"/>
      <point x="35" y="195"/>
      <point x="35" y="184" type="curve" smooth="yes"/>
      <point x="37" y="94"/>
      <point x="115" y="10"/>
      <point x="265" y="-6" type="curve"/>
      <point x="245" y="-53" type="line"/>
      <point x="239" y="-66"/>
      <point x="235" y="-75"/>
      <point x="243" y="-84" type="curve"/>
      <point x="261" y="-103" type="line"/>
      <point x="276" y="-117"/>
      <point x="293" y="-100"/>
      <point x="319" y="-100" type="curve" smooth="yes"/>
      <point x="341" y="-100"/>
      <point x="356" y="-113"/>
      <point x="356" y="-132" type="curve" smooth="yes"/>
      <point x="356" y="-152"/>
      <point x="340" y="-166"/>
      <point x="319" y="-166" type="curve" smooth="yes"/>
      <point x="279" y="-166"/>
      <point x="273" y="-138"/>
      <point x="256" y="-154" type="curve"/>
      <point x="239" y="-169" type="line"/>
      <point x="220" y="-186"/>
      <point x="264" y="-219"/>
      <point x="319" y="-220" type="curve" smooth="yes"/>
    </contour>
  </outline>
</glyph>
<glyph name="Uogonek" format="1">
  <advance width="714"/>
  <unicode hex="0172"/>
  <outline>
    <contour>
      <point x="446" y="-220" type="line"/>
      <point x="460" y="-220"/>
      <point x="470" y="-210"/>
      <point x="470" y="-196" type="curve"/>
      <point x="470" y="-160" type="line"/>
      <point x="470" y="-146"/>
      <point x="460" y="-136"/>
      <point x="446" y="-136" type="curve"/>
      <point x="433" y="-136" type="line"/>
      <point x="391" y="-136"/>
      <point x="368" y="-107"/>
      <point x="368" y="-68" type="curve" smooth="yes"/>
      <point x="368" y="-31"/>
      <point x="389" y="-13"/>
      <point x="427" y="-5" type="curve" smooth="yes"/>
      <point x="560" y="18"/>
      <point x="642" y="103"/>
      <point x="642" y="268" type="curve"/>
      <point x="642" y="675" type="line"/>
      <point x="642" y="690"/>
      <point x="632" y="700"/>
      <point x="618" y="700" type="curve"/>
      <point x="526" y="700" type="line"/>
      <point x="512" y="700"/>
      <point x="502" y="690"/>
      <point x="502" y="675" type="curve"/>
      <point x="502" y="268" type="line"/>
      <point x="502" y="160"/>
      <point x="447" y="109"/>
      <point x="358" y="109" type="curve" smooth="yes"/>
      <point x="267" y="109"/>
      <point x="213" y="160"/>
      <point x="213" y="268" type="curve"/>
      <point x="213" y="675" type="line"/>
      <point x="213" y="690"/>
      <point x="203" y="700"/>
      <point x="188" y="700" type="curve"/>
      <point x="96" y="700" type="line"/>
      <point x="82" y="700"/>
      <point x="72" y="690"/>
      <point x="72" y="675" type="curve"/>
      <point x="72" y="268" type="line"/>
      <point x="72" y="101"/>
      <point x="155" y="14"/>
      <point x="291" y="-5" type="curve"/>
      <point x="284" y="-22"/>
      <point x="281" y="-41"/>
      <point x="281" y="-68" type="curve" smooth="yes"/>
      <point x="281" y="-157"/>
      <point x="332" y="-220"/>
      <point x="429" y="-220" type="curve"/>
    </contour>
  </outline>
</glyph>
<glyph name="jdotless" format="1">
  <advance width="358"/>
  <unicode hex="0237"/>
  <outline>
    <contour>
      <point x="97" y="-190" type="line"/>
      <point x="228" y="-190"/>
      <point x="291" y="-107"/>
      <point x="291" y="16" type="curve" smooth="yes"/>
      <point x="291" y="496" type="line" smooth="yes"/>
      <point x="291" y="510"/>
      <point x="281" y="520"/>
      <point x="267" y="520" type="curve" smooth="yes"/>
      <point x="46" y="520" type="line" smooth="yes"/>
      <point x="32" y="520"/>
      <point x="22" y="510"/>
      <point x="22" y="496" type="curve" smooth="yes"/>
      <point x="22" y="434" type="line" smooth="yes"/>
      <point x="22" y="420"/>
      <point x="32" y="410"/>
      <point x="46" y="410" type="curve" smooth="yes"/>
      <point x="154" y="410" type="line"/>
      <point x="154" y="16" type="line" smooth="yes"/>
      <point x="154" y="-32"/>
      <point x="143" y="-69"/>
      <point x="84" y="-69" type="curve" smooth="yes"/>
      <point x="39" y="-69" type="line" smooth="yes"/>
      <point x="25" y="-69"/>
      <point x="15" y="-79"/>
      <point x="15" y="-93" type="curve" smooth="yes"/>
      <point x="15" y="-166" type="line" smooth="yes"/>
      <point x="15" y="-180"/>
      <point x="25" y="-190"/>
      <point x="39" y="-190" type="curve" smooth="yes"/>
    </contour>
  </outline>
</glyph>
<glyph name="breve" format="1">
  <advance width="401"/>
  <unicode hex="02D8"/>
  <outline>
    <contour>
      <point x="298" y="590"/>
      <point x="337" y="652"/>
      <point x="337" y="723" type="curve" smooth="yes"/>
      <point x="337" y="733"/>
      <point x="330" y="742"/>
      <point x="318" y="742" type="curve" smooth="yes"/>
      <point x="270" y="742" type="line" smooth="yes"/>
      <point x="258" y="742"/>
      <point x="251" y="733"/>
      <point x="251" y="723" type="curve" smooth="yes"/>
      <point x="251" y="692"/>
      <point x="240" y="661"/>
      <point x="201" y="661" type="curve" smooth="yes"/>
      <point x="162" y="661"/>
      <point x="151" y="692"/>
      <point x="151" y="723" type="curve" smooth="yes"/>
      <point x="151" y="733"/>
      <point x="144" y="742"/>
      <point x="132" y="742" type="curve" smooth="yes"/>
      <point x="84" y="742" type="line" smooth="yes"/>
      <point x="72" y="742"/>
      <point x="65" y="733"/>
      <point x="65" y="723" type="curve" smooth="yes"/>
      <point x="65" y="652"/>
      <point x="104" y="590"/>
      <point x="201" y="590" type="curve" smooth="yes"/>
    </contour>
  </outline>
</glyph>
<glyph name="ring" format="1">
  <advance width="300"/>
  <unicode hex="02DA"/>
  <outline>
    <contour>
      <point x="199" y="590"/>
      <point x="239" y="625"/>
      <point x="239" y="673" type="curve" smooth="yes"/>
      <point x="239" y="722"/>
      <point x="199" y="757"/>
      <point x="150" y="757" type="curve" smooth="yes"/>
      <point x="102" y="757"/>
      <point x="62" y="722"/>
      <point x="62" y="673" type="curve" smooth="yes"/>
      <point x="62" y="625"/>
      <point x="102" y="590"/>
      <point x="150" y="590" type="curve" smooth="yes"/>
    </contour>
    <contour>
      <point x="133" y="643"/>
      <point x="120" y="656"/>
      <point x="120" y="673" type="curve" smooth="yes"/>
      <point x="120" y="690"/>
      <point x="133" y="703"/>
      <point x="150" y="703" type="curve" smooth="yes"/>
      <point x="167" y="703"/>
      <point x="180" y="690"/>
      <point x="180" y="673" type="curve" smooth="yes"/>
      <point x="180" y="656"/>
      <point x="167" y="643"/>
      <point x="150" y="643" type="curve" smooth="yes"/>
    </contour>
  </outline>
</glyph>
<glyph name="tilde" format="1">
  <advance width="432"/>
  <unicode hex="02DC"/>
  <outline>
    <contour>
      <point x="341" y="590"/>
      <point x="371" y="657"/>
      <point x="371" y="698" type="curve" smooth="yes"/>
      <point x="371" y="707"/>
      <point x="365" y="715"/>
      <point x="354" y="715" type="curve" smooth="yes"/>
      <point x="307" y="715" type="line" smooth="yes"/>
      <point x="285" y="715"/>
      <point x="289" y="685"/>
      <point x="262" y="685" type="curve" smooth="yes"/>
      <point x="229" y="685"/>
      <point x="213" y="720"/>
      <point x="160" y="720" type="curve" smooth="yes"/>
      <point x="90" y="720"/>
      <point x="62" y="653"/>
      <point x="62" y="612" type="curve" smooth="yes"/>
      <point x="62" y="603"/>
      <point x="69" y="595"/>
      <point x="79" y="595" type="curve" smooth="yes"/>
      <point x="126" y="595" type="line" smooth="yes"/>
      <point x="147" y="595"/>
      <point x="144" y="625"/>
      <point x="171" y="625" type="curve" smooth="yes"/>
      <point x="203" y="625"/>
      <point x="221" y="590"/>
      <point x="272" y="590" type="curve" smooth="yes"/>
    </contour>
  </outline>
</glyph>
<glyph name="Zhe-cy" format="1">
  <advance width="790"/>
  <unicode hex="0416"/>
  <outline>
    <contour>
      <point x="137" y="0" type="line" smooth="yes"/>
      <point x="154" y="0"/>
      <point x="163" y="11"/>
      <point x="168" y="18" type="curve" smooth="yes"/>
      <point x="330" y="281" type="line"/>
      <point x="330" y="24" type="line" smooth="yes"/>
      <point x="330" y="10"/>
      <point x="340" y="0"/>
      <point x="354" y="0" type="curve" smooth="yes"/>
      <point x="436" y="0" type="line" smooth="yes"/>
      <point x="450" y="0"/>
      <point x="461" y="10"/>
      <point x="461" y="24" type="curve" smooth="yes"/>
      <point x="461" y="281" type="line"/>
      <point x="623" y="18" type="line" smooth="yes"/>
      <point x="628" y="11"/>
      <point x="637" y="0"/>
      <point x="653" y="0" type="curve" smooth="yes"/>
      <point x="750" y="0" type="line" smooth="yes"/>
      <point x="761" y="0"/>
      <point x="771" y="9"/>
      <point x="771" y="21" type="curve" smooth="yes"/>
      <point x="771" y="25"/>
      <point x="769" y="30"/>
      <point x="767" y="33" type="curve" smooth="yes"/>
      <point x="561" y="360" type="line"/>
      <point x="753" y="667" type="line" smooth="yes"/>
      <point x="755" y="670"/>
      <point x="757" y="675"/>
      <point x="757" y="679" type="curve" smooth="yes"/>
      <point x="757" y="691"/>
      <point x="748" y="700"/>
      <point x="736" y="700" type="curve" smooth="yes"/>
      <point x="643" y="700" type="line" smooth="yes"/>
      <point x="627" y="700"/>
      <point x="618" y="690"/>
      <point x="613" y="682" type="curve" smooth="yes"/>
      <point x="461" y="433" type="line"/>
      <point x="461" y="676" type="line" smooth="yes"/>
      <point x="461" y="690"/>
      <point x="450" y="700"/>
      <point x="436" y="700" type="curve" smooth="yes"/>
      <point x="354" y="700" type="line" smooth="yes"/>
      <point x="340" y="700"/>
      <point x="330" y="690"/>
      <point x="330" y="676" type="curve" smooth="yes"/>
      <point x="330" y="433" type="line"/>
      <point x="178" y="682" type="line" smooth="yes"/>
      <point x="173" y="690"/>
      <point x="164" y="700"/>
      <point x="148" y="700" type="curve" smooth="yes"/>
      <point x="54" y="700" type="line" smooth="yes"/>
      <point x="43" y="700"/>
      <point x="34" y="691"/>
      <point x="34" y="679" type="curve" smooth="yes"/>
      <point x="34" y="675"/>
      <point x="35" y="670"/>
      <point x="37" y="667" type="curve" smooth="yes"/>
      <point x="230" y="360" type="line"/>
      <point x="24" y="33" type="line" smooth="yes"/>
      <point x="22" y="30"/>
      <point x="20" y="25"/>
      <point x="20" y="21" type="curve" smooth="yes"/>
      <point x="20" y="9"/>
      <point x="29" y="0"/>
      <point x="41" y="0" type="curve" smooth="yes"/>
    </contour>
  </outline>
</glyph>
<glyph name="Ze-cy" format="1">
  <advance width="646"/>
  <unicode hex="0417"/>
  <outline>
    <contour>
      <point x="484" y="-10"/>
      <point x="599" y="78"/>
      <point x="599" y="200" type="curve" smooth="yes"/>
      <point x="599" y="264"/>
      <point x="570" y="325"/>
      <point x="497" y="359" type="curve"/>
      <point x="563" y="395"/>
      <point x="582" y="456"/>
      <point x="582" y="512" type="curve" smooth="yes"/>
      <point x="582" y="616"/>
      <point x="486" y="710"/>
      <point x="317" y="710" type="curve" smooth="yes"/>
      <point x="133" y="710"/>
      <point x="50" y="619"/>
      <point x="45" y="524" type="curve" smooth="yes"/>
      <point x="44" y="512"/>
      <point x="54" y="503"/>
      <point x="66" y="503" type="curve" smooth="yes"/>
      <point x="161" y="503" type="line" smooth="yes"/>
      <point x="175" y="503"/>
      <point x="183" y="509"/>
      <point x="188" y="522" type="curve" smooth="yes"/>
      <point x="202" y="572"/>
      <point x="245" y="594"/>
      <point x="316" y="594" type="curve" smooth="yes"/>
      <point x="387" y="594"/>
      <point x="437" y="558"/>
      <point x="437" y="503" type="curve" smooth="yes"/>
      <point x="437" y="440"/>
      <point x="392" y="414"/>
      <point x="318" y="414" type="curve" smooth="yes"/>
      <point x="237" y="414" type="line" smooth="yes"/>
      <point x="223" y="414"/>
      <point x="213" y="402"/>
      <point x="213" y="388" type="curve" smooth="yes"/>
      <point x="213" y="329" type="line" smooth="yes"/>
      <point x="213" y="315"/>
      <point x="223" y="304"/>
      <point x="237" y="304" type="curve" smooth="yes"/>
      <point x="321" y="304" type="line" smooth="yes"/>
      <point x="403" y="304"/>
      <point x="454" y="270"/>
      <point x="454" y="207" type="curve" smooth="yes"/>
      <point x="454" y="145"/>
      <point x="393" y="105"/>
      <point x="314" y="105" type="curve" smooth="yes"/>
      <point x="237" y="105"/>
      <point x="195" y="135"/>
      <point x="181" y="176" type="curve" smooth="yes"/>
      <point x="174" y="192"/>
      <point x="165" y="196"/>
      <point x="151" y="196" type="curve" smooth="yes"/>
      <point x="58" y="196" type="line" smooth="yes"/>
      <point x="46" y="196"/>
      <point x="36" y="188"/>
      <point x="37" y="176" type="curve" smooth="yes"/>
      <point x="42" y="85"/>
      <point x="129" y="-10"/>
      <point x="314" y="-10" type="curve" smooth="yes"/>
    </contour>
  </outline>
</glyph>
<glyph name="Ef-cy" format="1">
  <advance width="765"/>
  <unicode hex="0424"/>
  <outline>
    <contour>
      <point x="423" y="-20" type="line" smooth="yes"/>
      <point x="438" y="-20"/>
      <point x="448" y="-10"/>
      <point x="448" y="4" type="curve" smooth="yes"/>
      <point x="448" y="90" type="line"/>
      <point x="592" y="105"/>
      <point x="737" y="188"/>
      <point x="737" y="352" type="curve" smooth="yes"/>
      <point x="737" y="514"/>
      <point x="592" y="595"/>
      <point x="448" y="610" type="curve"/>
      <point x="448" y="696" type="line" smooth="yes"/>
      <point x="448" y="710"/>
      <point x="438" y="720"/>
      <point x="423" y="720" type="curve" smooth="yes"/>
      <point x="339" y="720" type="line" smooth="yes"/>
      <point x="325" y="720"/>
      <point x="315" y="710"/>
      <point x="315" y="696" type="curve" smooth="yes"/>
      <point x="315" y="610" type="line"/>
      <point x="174" y="595"/>
      <point x="28" y="514"/>
      <point x="28" y="352" type="curve" smooth="yes"/>
      <point x="28" y="192"/>
      <point x="171" y="107"/>
      <point x="315" y="91" type="curve"/>
      <point x="315" y="4" type="line" smooth="yes"/>
      <point x="315" y="-10"/>
      <point x="325" y="-20"/>
      <point x="339" y="-20" type="curve" smooth="yes"/>
    </contour>
    <contour>
      <point x="234" y="215"/>
      <point x="156" y="263"/>
      <point x="156" y="352" type="curve" smooth="yes"/>
      <point x="156" y="439"/>
      <point x="234" y="486"/>
      <point x="317" y="494" type="curve"/>
      <point x="317" y="206" type="line"/>
    </contour>
    <contour>
      <point x="446" y="494" type="line"/>
      <point x="529" y="486"/>
      <point x="607" y="439"/>
      <point x="607" y="352" type="curve" smooth="yes"/>
      <point x="607" y="263"/>
      <point x="529" y="215"/>
      <point x="446" y="206" type="curve"/>
    </contour>
  </outline>
</glyph>
<glyph name="Tse-cy" format="1">
  <advance width="736"/>
  <unicode hex="0426"/>
  <outline>
    <contour>
      <point x="670" y="-110" type="line" smooth="yes"/>
      <point x="684" y="-110"/>
      <point x="695" y="-100"/>
      <point x="695" y="-86" type="curve" smooth="yes"/>
      <point x="695" y="103" type="line" smooth="yes"/>
      <point x="695" y="116"/>
      <point x="684" y="127"/>
      <point x="670" y="127" type="curve" smooth="yes"/>
      <point x="628" y="127" type="line"/>
      <point x="628" y="676" type="line" smooth="yes"/>
      <point x="628" y="690"/>
      <point x="617" y="700"/>
      <point x="603" y="700" type="curve" smooth="yes"/>
      <point x="511" y="700" type="line" smooth="yes"/>
      <point x="497" y="700"/>
      <point x="487" y="690"/>
      <point x="487" y="676" type="curve" smooth="yes"/>
      <point x="487" y="127" type="line"/>
      <point x="219" y="127" type="line"/>
      <point x="219" y="676" type="line" smooth="yes"/>
      <point x="219" y="690"/>
      <point x="209" y="700"/>
      <point x="194" y="700" type="curve" smooth="yes"/>
      <point x="102" y="700" type="line" smooth="yes"/>
      <point x="88" y="700"/>
      <point x="78" y="690"/>
      <point x="78" y="676" type="curve" smooth="yes"/>
      <point x="78" y="25" type="line" smooth="yes"/>
      <point x="78" y="10"/>
      <point x="88" y="0"/>
      <point x="102" y="0" type="curve" smooth="yes"/>
      <point x="573" y="0" type="line"/>
      <point x="573" y="-86" type="line" smooth="yes"/>
      <point x="573" y="-100"/>
      <point x="583" y="-110"/>
      <point x="597" y="-110" type="curve" smooth="yes"/>
    </contour>
  </outline>
</glyph>
<glyph name="Che-cy" format="1">
  <advance width="661"/>
  <unicode hex="0427"/>
  <outline>
    <contour>
      <point x="559" y="0" type="line" smooth="yes"/>
      <point x="573" y="0"/>
      <point x="583" y="10"/>
      <point x="583" y="24" type="curve" smooth="yes"/>
      <point x="583" y="676" type="line" smooth="yes"/>
      <point x="583" y="690"/>
      <point x="573" y="700"/>
      <point x="559" y="700" type="curve" smooth="yes"/>
      <point x="462" y="700" type="line" smooth="yes"/>
      <point x="448" y="700"/>
      <point x="438" y="690"/>
      <point x="438" y="676" type="curve" smooth="yes"/>
      <point x="438" y="380" type="line"/>
      <point x="300" y="380" type="line" smooth="yes"/>
      <point x="216" y="380"/>
      <point x="187" y="410"/>
      <point x="187" y="494" type="curve" smooth="yes"/>
      <point x="187" y="676" type="line" smooth="yes"/>
      <point x="187" y="690"/>
      <point x="176" y="700"/>
      <point x="162" y="700" type="curve" smooth="yes"/>
      <point x="66" y="700" type="line" smooth="yes"/>
      <point x="52" y="700"/>
      <point x="42" y="690"/>
      <point x="42" y="676" type="curve" smooth="yes"/>
      <point x="41" y="487" type="line" smooth="yes"/>
      <point x="41" y="322"/>
      <point x="126" y="250"/>
      <point x="291" y="250" type="curve" smooth="yes"/>
      <point x="438" y="250" type="line"/>
      <point x="438" y="24" type="line" smooth="yes"/>
      <point x="438" y="10"/>
      <point x="448" y="0"/>
      <point x="462" y="0" type="curve" smooth="yes"/>
    </contour>
  </outline>
</glyph>
<glyph name="Sha-cy" format="1">
  <advance width="906"/>
  <unicode hex="0428"/>
  <outline>
    <contour>
      <point x="804" y="0" type="line" smooth="yes"/>
      <point x="818" y="0"/>
      <point x="828" y="10"/>
      <point x="828" y="24" type="curve" smooth="yes"/>
      <point x="828" y="676" type="line" smooth="yes"/>
      <point x="828" y="690"/>
      <point x="818" y="700"/>
      <point x="804" y="700" type="curve" smooth="yes"/>
      <point x="716" y="700" type="line" smooth="yes"/>
      <point x="702" y="700"/>
      <point x="692" y="690"/>
      <point x="692" y="676" type="curve" smooth="yes"/>
      <point x="692" y="127" type="line"/>
      <point x="518" y="127" type="line"/>
      <point x="518" y="676" type="line" smooth="yes"/>
      <point x="518" y="690"/>
      <point x="507" y="700"/>
      <point x="493" y="700" type="curve" smooth="yes"/>
      <point x="413" y="700" type="line" smooth="yes"/>
      <point x="399" y="700"/>
      <point x="389" y="690"/>
      <point x="389" y="676" type="curve" smooth="yes"/>
      <point x="389" y="127" type="line"/>
      <point x="215" y="127" type="line"/>
      <point x="215" y="676" type="line" smooth="yes"/>
      <point x="215" y="690"/>
      <point x="205" y="700"/>
      <point x="190" y="700" type="curve" smooth="yes"/>
      <point x="102" y="700" type="line" smooth="yes"/>
      <point x="88" y="700"/>
      <point x="78" y="690"/>
      <point x="78" y="676" type="curve" smooth="yes"/>
      <point x="78" y="24" type="line" smooth="yes"/>
      <point x="78" y="10"/>
      <point x="88" y="0"/>
      <point x="102" y="0" type="curve" smooth="yes"/>
    </contour>
  </outline>
</glyph>
<glyph name="Shcha-cy" format="1">
  <advance width="937"/>
  <unicode hex="0429"/>
  <outline>
    <contour>
      <point x="871" y="-110" type="line" smooth="yes"/>
      <point x="885" y="-110"/>
      <point x="896" y="-100"/>
      <point x="896" y="-86" type="curve" smooth="yes"/>
      <point x="896" y="103" type="line" smooth="yes"/>
      <point x="896" y="116"/>
      <point x="885" y="127"/>
      <point x="871" y="127" type="curve" smooth="yes"/>
      <point x="828" y="127" type="line"/>
      <point x="828" y="676" type="line" smooth="yes"/>
      <point x="828" y="690"/>
      <point x="818" y="700"/>
      <point x="804" y="700" type="curve" smooth="yes"/>
      <point x="716" y="700" type="line" smooth="yes"/>
      <point x="702" y="700"/>
      <point x="692" y="690"/>
      <point x="692" y="676" type="curve" smooth="yes"/>
      <point x="692" y="127" type="line"/>
      <point x="518" y="127" type="line"/>
      <point x="518" y="676" type="line" smooth="yes"/>
      <point x="518" y="690"/>
      <point x="507" y="700"/>
      <point x="493" y="700" type="curve" smooth="yes"/>
      <point x="413" y="700" type="line" smooth="yes"/>
      <point x="399" y="700"/>
      <point x="389" y="690"/>
      <point x="389" y="676" type="curve" smooth="yes"/>
      <point x="389" y="127" type="line"/>
      <point x="215" y="127" type="line"/>
      <point x="215" y="676" type="line" smooth="yes"/>
      <point x="215" y="690"/>
      <point x="205" y="700"/>
      <point x="190" y="700" type="curve" smooth="yes"/>
      <point x="102" y="700" type="line" smooth="yes"/>
      <point x="88" y="700"/>
      <point x="78" y="690"/>
      <point x="78" y="676" type="curve" smooth="yes"/>
      <point x="78" y="24" type="line" smooth="yes"/>
      <point x="78" y="10"/>
      <point x="88" y="0"/>
      <point x="102" y="0" type="curve" smooth="yes"/>
      <point x="773" y="0" type="line"/>
      <point x="773" y="-86" type="line" smooth="yes"/>
      <point x="773" y="-100"/>
      <point x="784" y="-110"/>
      <point x="797" y="-110" type="curve" smooth="yes"/>
    </contour>
  </outline>
</glyph>
<glyph name="Hardsign-cy" format="1">
  <advance width="729"/>
  <unicode hex="042A"/>
  <outline>
    <contour>
      <point x="449" y="0" type="line" smooth="yes"/>
      <point x="611" y="0"/>
      <point x="699" y="100"/>
      <point x="699" y="221" type="curve" smooth="yes"/>
      <point x="699" y="360"/>
      <point x="604" y="436"/>
      <point x="449" y="436" type="curve" smooth="yes"/>
      <point x="291" y="436" type="line"/>
      <point x="291" y="675" type="line" smooth="yes"/>
      <point x="291" y="690"/>
      <point x="281" y="700"/>
      <point x="267" y="700" type="curve" smooth="yes"/>
      <point x="42" y="700" type="line" smooth="yes"/>
      <point x="28" y="700"/>
      <point x="18" y="690"/>
      <point x="18" y="675" type="curve" smooth="yes"/>
      <point x="18" y="608" type="line" smooth="yes"/>
      <point x="18" y="594"/>
      <point x="28" y="584"/>
      <point x="42" y="584" type="curve" smooth="yes"/>
      <point x="146" y="584" type="line"/>
      <point x="146" y="24" type="line" smooth="yes"/>
      <point x="146" y="10"/>
      <point x="157" y="0"/>
      <point x="170" y="0" type="curve" smooth="yes"/>
    </contour>
    <contour>
      <point x="289" y="324" type="line"/>
      <point x="442" y="324" type="line" smooth="yes"/>
      <point x="514" y="324"/>
      <point x="553" y="286"/>
      <point x="553" y="222" type="curve" smooth="yes"/>
      <point x="553" y="165"/>
      <point x="515" y="113"/>
      <point x="442" y="113" type="curve" smooth="yes"/>
      <point x="289" y="113" type="line"/>
    </contour>
  </outline>
</glyph>
<glyph name="ve-cy" format="1">
  <advance width="601"/>
  <unicode hex="0432"/>
  <outline>
    <contour>
      <point x="345" y="0" type="line"/>
      <point x="485" y="0"/>
      <point x="557" y="55"/>
      <point x="557" y="151" type="curve" smooth="yes"/>
      <point x="557" y="203"/>
      <point x="541" y="239"/>
      <point x="492" y="271" type="curve"/>
      <point x="519" y="294"/>
      <point x="543" y="320"/>
      <point x="543" y="376" type="curve" smooth="yes"/>
      <point x="543" y="464"/>
      <point x="475" y="520"/>
      <point x="334" y="520" type="curve" smooth="yes"/>
      <point x="90" y="520" type="line" smooth="yes"/>
      <point x="76" y="520"/>
      <point x="66" y="510"/>
      <point x="66" y="496" type="curve" smooth="yes"/>
      <point x="66" y="24" type="line" smooth="yes"/>
      <point x="66" y="10"/>
      <point x="76" y="0"/>
      <point x="90" y="0" type="curve" smooth="yes"/>
    </contour>
    <contour>
      <point x="195" y="214" type="line"/>
      <point x="336" y="214" type="line" smooth="yes"/>
      <point x="394" y="214"/>
      <point x="424" y="196"/>
      <point x="424" y="152" type="curve" smooth="yes"/>
      <point x="424" y="110"/>
      <point x="388" y="91"/>
      <point x="336" y="91" type="curve" smooth="yes"/>
      <point x="195" y="91" type="line"/>
    </contour>
    <contour>
      <point x="195" y="429" type="line"/>
      <point x="332" y="429" type="line" smooth="yes"/>
      <point x="384" y="429"/>
      <point x="418" y="415"/>
      <point x="418" y="373" type="curve" smooth="yes"/>
      <point x="418" y="331"/>
      <point x="385" y="308"/>
      <point x="332" y="308" type="curve" smooth="yes"/>
      <point x="195" y="308" type="line"/>
    </contour>
  </outline>
</glyph>
<glyph name="ka-cy" format="1">
  <advance width="553"/>
  <unicode hex="043A"/>
  <outline>
    <contour>
      <point x="173" y="0" type="line" smooth="yes"/>
      <point x="187" y="0"/>
      <point x="197" y="10"/>
      <point x="197" y="24" type="curve" smooth="yes"/>
      <point x="197" y="202" type="line"/>
      <point x="385" y="17" type="line" smooth="yes"/>
      <point x="396" y="8"/>
      <point x="402" y="0"/>
      <point x="422" y="0" type="curve" smooth="yes"/>
      <point x="520" y="0" type="line" smooth="yes"/>
      <point x="533" y="0"/>
      <point x="542" y="9"/>
      <point x="542" y="22" type="curve" smooth="yes"/>
      <point x="542" y="27"/>
      <point x="539" y="33"/>
      <point x="533" y="39" type="curve" smooth="yes"/>
      <point x="306" y="263" type="line"/>
      <point x="511" y="480" type="line" smooth="yes"/>
      <point x="517" y="486"/>
      <point x="520" y="493"/>
      <point x="520" y="498" type="curve" smooth="yes"/>
      <point x="520" y="511"/>
      <point x="511" y="520"/>
      <point x="499" y="520" type="curve" smooth="yes"/>
      <point x="409" y="520" type="line" smooth="yes"/>
      <point x="390" y="520"/>
      <point x="385" y="513"/>
      <point x="373" y="503" type="curve" smooth="yes"/>
      <point x="197" y="317" type="line"/>
      <point x="197" y="496" type="line" smooth="yes"/>
      <point x="197" y="510"/>
      <point x="187" y="520"/>
      <point x="173" y="520" type="curve" smooth="yes"/>
      <point x="90" y="520" type="line" smooth="yes"/>
      <point x="76" y="520"/>
      <point x="66" y="510"/>
      <point x="66" y="496" type="curve" smooth="yes"/>
      <point x="66" y="24" type="line" smooth="yes"/>
      <point x="66" y="10"/>
      <point x="76" y="0"/>
      <point x="90" y="0" type="curve" smooth="yes"/>
    </contour>
  </outline>
</glyph>
<glyph name="el-cy" format="1">
  <advance width="620"/>
  <unicode hex="043B"/>
  <outline>
    <contour>
      <point x="67" y="-10" type="line" smooth="yes"/>
      <point x="195" y="-10"/>
      <point x="253" y="63"/>
      <point x="253" y="184" type="curve" smooth="yes"/>
      <point x="253" y="413" type="line"/>
      <point x="421" y="413" type="line"/>
      <point x="421" y="24" type="line" smooth="yes"/>
      <point x="421" y="10"/>
      <point x="432" y="0"/>
      <point x="445" y="0" type="curve" smooth="yes"/>
      <point x="530" y="0" type="line" smooth="yes"/>
      <point x="544" y="0"/>
      <point x="554" y="10"/>
      <point x="554" y="24" type="curve" smooth="yes"/>
      <point x="554" y="496" type="line" smooth="yes"/>
      <point x="554" y="510"/>
      <point x="544" y="520"/>
      <point x="530" y="520" type="curve" smooth="yes"/>
      <point x="144" y="520" type="line" smooth="yes"/>
      <point x="131" y="520"/>
      <point x="120" y="510"/>
      <point x="120" y="496" type="curve" smooth="yes"/>
      <point x="120" y="186" type="line" smooth="yes"/>
      <point x="120" y="137"/>
      <point x="109" y="101"/>
      <point x="56" y="101" type="curve" smooth="yes"/>
      <point x="44" y="101" type="line" smooth="yes"/>
      <point x="30" y="101"/>
      <point x="20" y="91"/>
      <point x="20" y="77" type="curve" smooth="yes"/>
      <point x="20" y="14" type="line" smooth="yes"/>
      <point x="20" y="0"/>
      <point x="30" y="-10"/>
      <point x="44" y="-10" type="curve" smooth="yes"/>
    </contour>
  </outline>
</glyph>
<glyph name="en-cy" format="1">
  <advance width="624"/>
  <unicode hex="043D"/>
  <outline>
    <contour>
      <point x="175" y="0" type="line" smooth="yes"/>
      <point x="188" y="0"/>
      <point x="199" y="10"/>
      <point x="199" y="24" type="curve" smooth="yes"/>
      <point x="199" y="211" type="line"/>
      <point x="425" y="211" type="line"/>
      <point x="425" y="24" type="line" smooth="yes"/>
      <point x="425" y="10"/>
      <point x="436" y="0"/>
      <point x="449" y="0" type="curve" smooth="yes"/>
      <point x="534" y="0" type="line" smooth="yes"/>
      <point x="548" y="0"/>
      <point x="558" y="10"/>
      <point x="558" y="24" type="curve" smooth="yes"/>
      <point x="558" y="496" type="line" smooth="yes"/>
      <point x="558" y="510"/>
      <point x="548" y="520"/>
      <point x="534" y="520" type="curve" smooth="yes"/>
      <point x="449" y="520" type="line" smooth="yes"/>
      <point x="436" y="520"/>
      <point x="425" y="510"/>
      <point x="425" y="496" type="curve" smooth="yes"/>
      <point x="425" y="318" type="line"/>
      <point x="199" y="318" type="line"/>
      <point x="199" y="496" type="line" smooth="yes"/>
      <point x="199" y="510"/>
      <point x="188" y="520"/>
      <point x="175" y="520" type="curve" smooth="yes"/>
      <point x="90" y="520" type="line" smooth="yes"/>
      <point x="76" y="520"/>
      <point x="66" y="510"/>
      <point x="66" y="496" type="curve" smooth="yes"/>
      <point x="66" y="24" type="line" smooth="yes"/>
      <point x="66" y="10"/>
      <point x="76" y="0"/>
      <point x="90" y="0" type="curve" smooth="yes"/>
    </contour>
  </outline>
</glyph>
<glyph name="u-cy" format="1">
  <advance width="574"/>
  <unicode hex="0443"/>
  <outline>
    <contour>
      <point x="148" y="-190" type="line" smooth="yes"/>
      <point x="259" y="-190"/>
      <point x="306" y="-85"/>
      <point x="356" y="30" type="curve" smooth="yes"/>
      <point x="549" y="484" type="line" smooth="yes"/>
      <point x="552" y="491"/>
      <point x="553" y="495"/>
      <point x="553" y="500" type="curve" smooth="yes"/>
      <point x="553" y="511"/>
      <point x="543" y="520"/>
      <point x="532" y="520" type="curve" smooth="yes"/>
      <point x="452" y="520" type="line" smooth="yes"/>
      <point x="436" y="520"/>
      <point x="428" y="512"/>
      <point x="424" y="501" type="curve" smooth="yes"/>
      <point x="290" y="175" type="line"/>
      <point x="156" y="501" type="line" smooth="yes"/>
      <point x="152" y="511"/>
      <point x="146" y="520"/>
      <point x="130" y="520" type="curve" smooth="yes"/>
      <point x="48" y="520" type="line" smooth="yes"/>
      <point x="36" y="520"/>
      <point x="27" y="510"/>
      <point x="26" y="498" type="curve" smooth="yes"/>
      <point x="26" y="495"/>
      <point x="27" y="491"/>
      <point x="30" y="484" type="curve" smooth="yes"/>
      <point x="224" y="32" type="line"/>
      <point x="192" y="-41"/>
      <point x="181" y="-84"/>
      <point x="131" y="-84" type="curve" smooth="yes"/>
      <point x="97" y="-84" type="line"/>
      <point x="83" y="-84"/>
      <point x="73" y="-94"/>
      <point x="73" y="-108" type="curve" smooth="yes"/>
      <point x="73" y="-166" type="line" smooth="yes"/>
      <point x="73" y="-180"/>
      <point x="83" y="-190"/>
      <point x="97" y="-190" type="curve" smooth="yes"/>
    </contour>
  </outline>
</glyph>
<glyph name="che-cy" format="1">
  <advance width="594"/>
  <unicode hex="0447"/>
  <outline>
    <contour>
      <point x="504" y="0" type="line" smooth="yes"/>
      <point x="518" y="0"/>
      <point x="528" y="10"/>
      <point x="528" y="24" type="curve" smooth="yes"/>
      <point x="528" y="496" type="line" smooth="yes"/>
      <point x="528" y="510"/>
      <point x="518" y="520"/>
      <point x="504" y="520" type="curve" smooth="yes"/>
      <point x="413" y="520" type="line" smooth="yes"/>
      <point x="399" y="520"/>
      <point x="388" y="510"/>
      <point x="388" y="496" type="curve" smooth="yes"/>
      <point x="388" y="279" type="line"/>
      <point x="274" y="279" type="line" smooth="yes"/>
      <point x="202" y="279"/>
      <point x="171" y="310"/>
      <point x="171" y="383" type="curve" smooth="yes"/>
      <point x="171" y="496" type="line" smooth="yes"/>
      <point x="171" y="510"/>
      <point x="160" y="520"/>
      <point x="147" y="520" type="curve" smooth="yes"/>
      <point x="59" y="520" type="line" smooth="yes"/>
      <point x="45" y="520"/>
      <point x="35" y="510"/>
      <point x="35" y="496" type="curve" smooth="yes"/>
      <point x="35" y="376" type="line" smooth="yes"/>
      <point x="35" y="224"/>
      <point x="121" y="163"/>
      <point x="268" y="163" type="curve" smooth="yes"/>
      <point x="388" y="163" type="line"/>
      <point x="388" y="24" type="line" smooth="yes"/>
      <point x="388" y="10"/>
      <point x="399" y="0"/>
      <point x="413" y="0" type="curve" smooth="yes"/>
    </contour>
  </outline>
</glyph>
<glyph name="shcha-cy" format="1">
  <advance width="827"/>
  <unicode hex="0449"/>
  <outline>
    <contour>
      <point x="766" y="-110" type="line" smooth="yes"/>
      <point x="780" y="-110"/>
      <point x="790" y="-100"/>
      <point x="790" y="-86" type="curve" smooth="yes"/>
      <point x="790" y="87" type="line" smooth="yes"/>
      <point x="790" y="101"/>
      <point x="780" y="111"/>
      <point x="766" y="111" type="curve" smooth="yes"/>
      <point x="727" y="111" type="line"/>
      <point x="727" y="496" type="line" smooth="yes"/>
      <point x="727" y="510"/>
      <point x="717" y="520"/>
      <point x="703" y="520" type="curve" smooth="yes"/>
      <point x="623" y="520" type="line" smooth="yes"/>
      <point x="609" y="520"/>
      <point x="599" y="510"/>
      <point x="599" y="496" type="curve" smooth="yes"/>
      <point x="599" y="111" type="line"/>
      <point x="457" y="111" type="line"/>
      <point x="457" y="496" type="line" smooth="yes"/>
      <point x="457" y="510"/>
      <point x="447" y="520"/>
      <point x="433" y="520" type="curve" smooth="yes"/>
      <point x="359" y="520" type="line" smooth="yes"/>
      <point x="345" y="520"/>
      <point x="335" y="510"/>
      <point x="335" y="496" type="curve" smooth="yes"/>
      <point x="335" y="111" type="line"/>
      <point x="192" y="111" type="line"/>
      <point x="192" y="496" type="line" smooth="yes"/>
      <point x="192" y="510"/>
      <point x="182" y="520"/>
      <point x="168" y="520" type="curve" smooth="yes"/>
      <point x="90" y="520" type="line" smooth="yes"/>
      <point x="76" y="520"/>
      <point x="66" y="510"/>
      <point x="66" y="496" type="curve" smooth="yes"/>
      <point x="66" y="24" type="line" smooth="yes"/>
      <point x="66" y="10"/>
      <point x="76" y="0"/>
      <point x="90" y="0" type="curve" smooth="yes"/>
      <point x="678" y="0" type="line"/>
      <point x="678" y="-86" type="line" smooth="yes"/>
      <point x="678" y="-100"/>
      <point x="688" y="-110"/>
      <point x="702" y="-110" type="curve" smooth="yes"/>
    </contour>
  </outline>
</glyph>
<glyph name="hardsign-cy" format="1">
  <advance width="630"/>
  <unicode hex="044A"/>
  <outline>
    <contour>
      <point x="363" y="0" type="line"/>
      <point x="525" y="0"/>
      <point x="600" y="83"/>
      <point x="600" y="197" type="curve" smooth="yes"/>
      <point x="600" y="315"/>
      <point x="513" y="400"/>
      <point x="372" y="400" type="curve" smooth="yes"/>
      <point x="275" y="400" type="line"/>
      <point x="275" y="493" type="line" smooth="yes"/>
      <point x="275" y="508"/>
      <point x="263" y="520"/>
      <point x="248" y="520" type="curve" smooth="yes"/>
      <point x="41" y="520" type="line" smooth="yes"/>
      <point x="27" y="520"/>
      <point x="17" y="510"/>
      <point x="17" y="496" type="curve" smooth="yes"/>
      <point x="17" y="437" type="line" smooth="yes"/>
      <point x="17" y="424"/>
      <point x="27" y="413"/>
      <point x="41" y="413" type="curve" smooth="yes"/>
      <point x="140" y="413" type="line"/>
      <point x="140" y="24" type="line" smooth="yes"/>
      <point x="140" y="10"/>
      <point x="150" y="0"/>
      <point x="164" y="0" type="curve" smooth="yes"/>
    </contour>
    <contour>
      <point x="274" y="294" type="line"/>
      <point x="369" y="294" type="line" smooth="yes"/>
      <point x="444" y="294"/>
      <point x="476" y="254"/>
      <point x="476" y="199" type="curve" smooth="yes"/>
      <point x="476" y="145"/>
      <point x="445" y="108"/>
      <point x="369" y="108" type="curve" smooth="yes"/>
      <point x="274" y="108" type="line"/>
    </contour>
  </outline>
</glyph>
<glyph name="ia-cy" format="1">
  <advance width="585"/>
  <unicode hex="044F"/>
  <outline>
    <contour>
      <point x="154" y="0" type="line" smooth="yes"/>
      <point x="168" y="0"/>
      <point x="178" y="11"/>
      <point x="182" y="16" type="curve" smooth="yes"/>
      <point x="268" y="156" type="line"/>
      <point x="383" y="156" type="line"/>
      <point x="383" y="24" type="line" smooth="yes"/>
      <point x="383" y="10"/>
      <point x="393" y="0"/>
      <point x="407" y="0" type="curve" smooth="yes"/>
      <point x="495" y="0" type="line" smooth="yes"/>
      <point x="508" y="0"/>
      <point x="519" y="10"/>
      <point x="519" y="24" type="curve" smooth="yes"/>
      <point x="519" y="496" type="line" smooth="yes"/>
      <point x="519" y="510"/>
      <point x="508" y="520"/>
      <point x="495" y="520" type="curve" smooth="yes"/>
      <point x="271" y="520" type="line" smooth="yes"/>
      <point x="131" y="520"/>
      <point x="53" y="448"/>
      <point x="53" y="337" type="curve" smooth="yes"/>
      <point x="53" y="270"/>
      <point x="84" y="221"/>
      <point x="138" y="194" type="curve"/>
      <point x="42" y="39" type="line" smooth="yes"/>
      <point x="37" y="33"/>
      <point x="36" y="27"/>
      <point x="36" y="22" type="curve" smooth="yes"/>
      <point x="36" y="10"/>
      <point x="46" y="0"/>
      <point x="58" y="0" type="curve" smooth="yes"/>
    </contour>
    <contour>
      <point x="210" y="263"/>
      <point x="182" y="291"/>
      <point x="182" y="337" type="curve" smooth="yes"/>
      <point x="182" y="383"/>
      <point x="208" y="413"/>
      <point x="274" y="413" type="curve" smooth="yes"/>
      <point x="385" y="413" type="line"/>
      <point x="385" y="263" type="line"/>
      <point x="274" y="263" type="line" smooth="yes"/>
    </contour>
  </outline>
</glyph>
<glyph name="lje-cy" format="1">
  <advance width="873"/>
  <unicode hex="0459"/>
  <outline>
    <contour>
      <point x="66" y="-10" type="line" smooth="yes"/>
      <point x="188" y="-10"/>
      <point x="251" y="65"/>
      <point x="251" y="181" type="curve" smooth="yes"/>
      <point x="251" y="413" type="line"/>
      <point x="386" y="413" type="line"/>
      <point x="386" y="24" type="line" smooth="yes"/>
      <point x="386" y="10"/>
      <point x="396" y="0"/>
      <point x="410" y="0" type="curve" smooth="yes"/>
      <point x="606" y="0" type="line"/>
      <point x="768" y="0"/>
      <point x="843" y="83"/>
      <point x="843" y="197" type="curve" smooth="yes"/>
      <point x="843" y="315"/>
      <point x="756" y="400"/>
      <point x="615" y="400" type="curve" smooth="yes"/>
      <point x="519" y="400" type="line"/>
      <point x="519" y="496" type="line" smooth="yes"/>
      <point x="519" y="510"/>
      <point x="508" y="520"/>
      <point x="495" y="520" type="curve" smooth="yes"/>
      <point x="144" y="520" type="line" smooth="yes"/>
      <point x="131" y="520"/>
      <point x="120" y="510"/>
      <point x="120" y="496" type="curve" smooth="yes"/>
      <point x="120" y="182" type="line" smooth="yes"/>
      <point x="120" y="133"/>
      <point x="104" y="101"/>
      <point x="51" y="101" type="curve" smooth="yes"/>
      <point x="44" y="101" type="line" smooth="yes"/>
      <point x="30" y="101"/>
      <point x="20" y="91"/>
      <point x="20" y="77" type="curve" smooth="yes"/>
      <point x="20" y="14" type="line" smooth="yes"/>
      <point x="20" y="0"/>
      <point x="30" y="-10"/>
      <point x="44" y="-10" type="curve" smooth="yes"/>
    </contour>
    <contour>
      <point x="516" y="294" type="line"/>
      <point x="611" y="294" type="line" smooth="yes"/>
      <point x="686" y="294"/>
      <point x="718" y="254"/>
      <point x="718" y="199" type="curve" smooth="yes"/>
      <point x="718" y="145"/>
      <point x="687" y="108"/>
      <point x="611" y="108" type="curve" smooth="yes"/>
      <point x="516" y="108" type="line"/>
    </contour>
  </outline>
</glyph>
<glyph name="nje-cy" format="1">
  <advance width="851"/>
  <unicode hex="045A"/>
  <outline>
    <contour>
      <point x="173" y="0" type="line" smooth="yes"/>
      <point x="186" y="0"/>
      <point x="197" y="10"/>
      <point x="197" y="24" type="curve" smooth="yes"/>
      <point x="197" y="211" type="line"/>
      <point x="364" y="211" type="line"/>
      <point x="364" y="24" type="line" smooth="yes"/>
      <point x="364" y="10"/>
      <point x="374" y="0"/>
      <point x="388" y="0" type="curve" smooth="yes"/>
      <point x="584" y="0" type="line" smooth="yes"/>
      <point x="747" y="0"/>
      <point x="822" y="83"/>
      <point x="822" y="197" type="curve" smooth="yes"/>
      <point x="822" y="315"/>
      <point x="734" y="400"/>
      <point x="593" y="400" type="curve" smooth="yes"/>
      <point x="497" y="400" type="line"/>
      <point x="497" y="496" type="line" smooth="yes"/>
      <point x="497" y="510"/>
      <point x="487" y="520"/>
      <point x="473" y="520" type="curve" smooth="yes"/>
      <point x="387" y="520" type="line" smooth="yes"/>
      <point x="374" y="520"/>
      <point x="363" y="510"/>
      <point x="363" y="496" type="curve" smooth="yes"/>
      <point x="363" y="318" type="line"/>
      <point x="197" y="318" type="line"/>
      <point x="197" y="496" type="line" smooth="yes"/>
      <point x="197" y="510"/>
      <point x="186" y="520"/>
      <point x="173" y="520" type="curve" smooth="yes"/>
      <point x="90" y="520" type="line" smooth="yes"/>
      <point x="76" y="520"/>
      <point x="66" y="510"/>
      <point x="66" y="496" type="curve" smooth="yes"/>
      <point x="66" y="24" type="line" smooth="yes"/>
      <point x="66" y="10"/>
      <point x="76" y="0"/>
      <point x="90" y="0" type="curve" smooth="yes"/>
    </contour>
    <contour>
      <point x="495" y="294" type="line"/>
      <point x="590" y="294" type="line" smooth="yes"/>
      <point x="665" y="294"/>
      <point x="697" y="254"/>
      <point x="697" y="199" type="curve" smooth="yes"/>
      <point x="697" y="145"/>
      <point x="666" y="108"/>
      <point x="590" y="108" type="curve" smooth="yes"/>
      <point x="495" y="108" type="line"/>
    </contour>
  </outline>
</glyph>
<glyph name="tshe-cy" format="1">
  <advance width="643"/>
  <unicode hex="045B"/>
  <outline>
    <contour>
      <point x="191" y="0" type="line" smooth="yes"/>
      <point x="205" y="0"/>
      <point x="215" y="10"/>
      <point x="215" y="24" type="curve" smooth="yes"/>
      <point x="215" y="291" type="line" smooth="yes"/>
      <point x="215" y="368"/>
      <point x="262" y="413"/>
      <point x="331" y="413" type="curve" smooth="yes"/>
      <point x="403" y="413"/>
      <point x="443" y="367"/>
      <point x="443" y="291" type="curve" smooth="yes"/>
      <point x="443" y="25" type="line" smooth="yes"/>
      <point x="443" y="11"/>
      <point x="453" y="0"/>
      <point x="467" y="0" type="curve" smooth="yes"/>
      <point x="559" y="0" type="line" smooth="yes"/>
      <point x="573" y="0"/>
      <point x="583" y="11"/>
      <point x="583" y="25" type="curve" smooth="yes"/>
      <point x="583" y="296" type="line" smooth="yes"/>
      <point x="583" y="436"/>
      <point x="500" y="522"/>
      <point x="379" y="522" type="curve" smooth="yes"/>
      <point x="303" y="522"/>
      <point x="251" y="493"/>
      <point x="215" y="450" type="curve"/>
      <point x="215" y="549" type="line"/>
      <point x="279" y="549" type="line" smooth="yes"/>
      <point x="292" y="549"/>
      <point x="301" y="559"/>
      <point x="301" y="572" type="curve" smooth="yes"/>
      <point x="301" y="618" type="line" smooth="yes"/>
      <point x="301" y="631"/>
      <point x="292" y="640"/>
      <point x="279" y="640" type="curve" smooth="yes"/>
      <point x="215" y="640" type="line"/>
      <point x="215" y="686" type="line" smooth="yes"/>
      <point x="215" y="700"/>
      <point x="205" y="710"/>
      <point x="191" y="710" type="curve" smooth="yes"/>
      <point x="104" y="710" type="line" smooth="yes"/>
      <point x="90" y="710"/>
      <point x="80" y="700"/>
      <point x="80" y="686" type="curve" smooth="yes"/>
      <point x="80" y="640" type="line"/>
      <point x="18" y="640" type="line" smooth="yes"/>
      <point x="5" y="640"/>
      <point x="-4" y="631"/>
      <point x="-4" y="618" type="curve" smooth="yes"/>
      <point x="-4" y="572" type="line" smooth="yes"/>
      <point x="-4" y="559"/>
      <point x="5" y="549"/>
      <point x="18" y="549" type="curve" smooth="yes"/>
      <point x="80" y="549" type="line"/>
      <point x="80" y="24" type="line" smooth="yes"/>
      <point x="80" y="10"/>
      <point x="90" y="0"/>
      <point x="104" y="0" type="curve" smooth="yes"/>
    </contour>
  </outline>
</glyph>
<glyph name="gheupturn-cy" format="1">
  <advance width="505"/>
  <unicode hex="0491"/>
  <outline>
    <contour>
      <point x="173" y="0" type="line" smooth="yes"/>
      <point x="187" y="0"/>
      <point x="197" y="10"/>
      <point x="197" y="24" type="curve" smooth="yes"/>
      <point x="197" y="413" type="line"/>
      <point x="469" y="413" type="line" smooth="yes"/>
      <point x="483" y="413"/>
      <point x="493" y="424"/>
      <point x="493" y="437" type="curve" smooth="yes"/>
      <point x="493" y="606" type="line" smooth="yes"/>
      <point x="493" y="620"/>
      <point x="483" y="630"/>
      <point x="469" y="630" type="curve" smooth="yes"/>
      <point x="401" y="630" type="line" smooth="yes"/>
      <point x="387" y="630"/>
      <point x="377" y="620"/>
      <point x="377" y="606" type="curve" smooth="yes"/>
      <point x="377" y="520" type="line"/>
      <point x="89" y="520" type="line"/>
      <point x="76" y="519"/>
      <point x="66" y="509"/>
      <point x="66" y="496" type="curve" smooth="yes"/>
      <point x="66" y="24" type="line" smooth="yes"/>
      <point x="66" y="10"/>
      <point x="76" y="0"/>
      <point x="90" y="0" type="curve" smooth="yes"/>
    </contour>
  </outline>
</glyph>
<glyph name="pe-hb" format="1">
  <advance width="575"/>
  <unicode hex="05E4"/>
  <outline>
    <contour>
      <point x="94" y="460"/>
      <point x="83" y="472"/>
      <point x="84" y="484" type="curve" smooth="yes"/>
      <point x="95" y="547" type="line" smooth="yes"/>
      <point x="96" y="561"/>
      <point x="105" y="571"/>
      <point x="119" y="571" type="curve" smooth="yes"/>
      <point x="280" y="571" type="line" smooth="yes"/>
      <point x="446" y="571"/>
      <point x="521" y="474"/>
      <point x="527" y="319" type="curve" smooth="yes"/>
      <point x="528" y="299"/>
      <point x="528" y="272"/>
      <point x="527" y="252" type="curve" smooth="yes"/>
      <point x="521" y="97"/>
      <point x="446" y="0"/>
      <point x="280" y="0" type="curve" smooth="yes"/>
      <point x="93" y="0" type="line" smooth="yes"/>
      <point x="79" y="0"/>
      <point x="69" y="10"/>
      <point x="69" y="24" type="curve" smooth="yes"/>
      <point x="69" y="87" type="line" smooth="yes"/>
      <point x="69" y="101"/>
      <point x="79" y="111"/>
      <point x="93" y="111" type="curve" smooth="yes"/>
      <point x="275" y="111" type="line" smooth="yes"/>
      <point x="355" y="111"/>
      <point x="405" y="163"/>
      <point x="409" y="254" type="curve" smooth="yes"/>
      <point x="410" y="274"/>
      <point x="410" y="297"/>
      <point x="409" y="317" type="curve" smooth="yes"/>
      <point x="406" y="408"/>
      <point x="355" y="460"/>
      <point x="275" y="460" type="curve" smooth="yes"/>
      <point x="108" y="460" type="line" smooth="yes"/>
    </contour>
    <contour>
      <point x="105" y="569"/>
      <point x="113" y="574"/>
      <point x="126" y="569" type="curve"/>
      <point x="189" y="548" type="line"/>
      <point x="200" y="544"/>
      <point x="207" y="530"/>
      <point x="200" y="520" type="curve" smooth="yes"/>
      <point x="178" y="488"/>
      <point x="151" y="441"/>
      <point x="151" y="398" type="curve" smooth="yes"/>
      <point x="151" y="356"/>
      <point x="158" y="333"/>
      <point x="183" y="321" type="curve" smooth="yes"/>
      <point x="196" y="315" type="line" smooth="yes"/>
      <point x="206" y="310"/>
      <point x="213" y="299"/>
      <point x="213" y="284" type="curve" smooth="yes"/>
      <point x="213" y="243" type="line" smooth="yes"/>
      <point x="213" y="228"/>
      <point x="195" y="219"/>
      <point x="180" y="222" type="curve" smooth="yes"/>
      <point x="153" y="225" type="line" smooth="yes"/>
      <point x="89" y="238"/>
      <point x="41" y="312"/>
      <point x="41" y="398" type="curve" smooth="yes"/>
      <point x="41" y="466"/>
      <point x="75" y="524"/>
      <point x="97" y="557" type="curve" smooth="yes"/>
    </contour>
    <contour>
      <point x="335" y="260" type="move" name="center"/>
    </contour>
    <contour>
      <point x="275" y="520" type="move" name="top"/>
    </contour>
    <contour>
      <point x="21" y="0" type="move" name="bottomleft"/>
    </contour>
    <contour>
      <point x="21" y="520" type="move" name="topleft"/>
    </contour>
    <contour>
      <point x="275" y="0" type="move" name="bottom"/>
    </contour>
  </outline>
</glyph>
<glyph name="shin-hb" format="1">
  <advance width="750"/>
  <unicode hex="05E9"/>
  <outline>
    <contour>
      <point x="350" y="100" type="line"/>
      <point x="259" y="100"/>
      <point x="192" y="146"/>
      <point x="192" y="259" type="curve"/>
      <point x="189" y="547" type="line" smooth="yes"/>
      <point x="189" y="561"/>
      <point x="179" y="571"/>
      <point x="165" y="571" type="curve" smooth="yes"/>
      <point x="93" y="571" type="line" smooth="yes"/>
      <point x="79" y="571"/>
      <point x="69" y="561"/>
      <point x="69" y="547" type="curve" smooth="yes"/>
      <point x="69" y="229" type="line" smooth="yes"/>
      <point x="69" y="94"/>
      <point x="167" y="-7"/>
      <point x="314" y="-7" type="curve" smooth="yes"/>
      <point x="399" y="-7" type="line" smooth="yes"/>
      <point x="565" y="-10"/>
      <point x="688" y="102"/>
      <point x="688" y="277" type="curve" smooth="yes"/>
      <point x="688" y="547" type="line" smooth="yes"/>
      <point x="688" y="561"/>
      <point x="678" y="571"/>
      <point x="664" y="571" type="curve" smooth="yes"/>
      <point x="592" y="571" type="line" smooth="yes"/>
      <point x="578" y="571"/>
      <point x="568" y="561"/>
      <point x="568" y="547" type="curve" smooth="yes"/>
      <point x="568" y="283" type="line" smooth="yes"/>
      <point x="568" y="175"/>
      <point x="495" y="98"/>
      <point x="378" y="100" type="curve"/>
    </contour>
    <contour>
      <point x="349" y="190"/>
      <point x="441" y="287"/>
      <point x="441" y="434" type="curve" smooth="yes"/>
      <point x="441" y="546" type="line" smooth="yes"/>
      <point x="441" y="560"/>
      <point x="431" y="571"/>
      <point x="417" y="571" type="curve" smooth="yes"/>
      <point x="345" y="571" type="line" smooth="yes"/>
      <point x="332" y="571"/>
      <point x="321" y="561"/>
      <point x="321" y="546" type="curve" smooth="yes"/>
      <point x="321" y="437" type="line" smooth="yes"/>
      <point x="321" y="347"/>
      <point x="284" y="272"/>
      <point x="171" y="271" type="curve"/>
      <point x="172" y="191" type="line"/>
    </contour>
    <contour>
      <point x="489" y="260" type="move" name="center"/>
    </contour>
    <contour>
      <point x="394" y="520" type="move" name="top"/>
    </contour>
    <contour>
      <point x="25" y="0" type="move" name="bottomleft"/>
    </contour>
    <contour>
      <point x="7" y="520" type="move" name="topleft"/>
    </contour>
    <contour>
      <point x="748" y="520" type="move" name="topright"/>
    </contour>
    <contour>
      <point x="394" y="0" type="move" name="bottom"/>
    </contour>
  </outline>
</glyph>
<glyph name="emdash" format="1">
  <advance width="760"/>
  <unicode hex="2014"/>
  <outline>
    <contour>
      <point x="674" y="242" type="line" smooth="yes"/>
      <point x="687" y="242"/>
      <point x="698" y="253"/>
      <point x="698" y="266" type="curve" smooth="yes"/>
      <point x="698" y="334" type="line" smooth="yes"/>
      <point x="698" y="348"/>
      <point x="687" y="358"/>
      <point x="674" y="358" type="curve" smooth="yes"/>
      <point x="86" y="358" type="line" smooth="yes"/>
      <point x="72" y="358"/>
      <point x="62" y="348"/>
      <point x="62" y="334" type="curve" smooth="yes"/>
      <point x="62" y="266" type="line" smooth="yes"/>
      <point x="62" y="253"/>
      <point x="72" y="242"/>
      <point x="86" y="242" type="curve" smooth="yes"/>
    </contour>
  </outline>
</glyph>
<glyph name="perthousand" format="1">
  <advance width="1120"/>
  <unicode hex="2030"/>
  <outline>
    <contour>
      <point x="164" y="0" type="line" smooth="yes"/>
      <point x="182" y="0"/>
      <point x="189" y="7"/>
      <point x="198" y="19" type="curve" smooth="yes"/>
      <point x="692" y="669" type="line" smooth="yes"/>
      <point x="695" y="673"/>
      <point x="696" y="678"/>
      <point x="696" y="680" type="curve" smooth="yes"/>
      <point x="696" y="692"/>
      <point x="687" y="700"/>
      <point x="674" y="700" type="curve" smooth="yes"/>
      <point x="621" y="700" type="line" smooth="yes"/>
      <point x="602" y="700"/>
      <point x="595" y="693"/>
      <point x="586" y="681" type="curve" smooth="yes"/>
      <point x="93" y="31" type="line" smooth="yes"/>
      <point x="90" y="27"/>
      <point x="89" y="22"/>
      <point x="89" y="20" type="curve" smooth="yes"/>
      <point x="89" y="8"/>
      <point x="98" y="0"/>
      <point x="111" y="0" type="curve" smooth="yes"/>
    </contour>
    <contour>
      <point x="282" y="348"/>
      <point x="337" y="398"/>
      <point x="342" y="478" type="curve" smooth="yes"/>
      <point x="344" y="512"/>
      <point x="344" y="534"/>
      <point x="342" y="571" type="curve" smooth="yes"/>
      <point x="337" y="651"/>
      <point x="287" y="705"/>
      <point x="193" y="705" type="curve" smooth="yes"/>
      <point x="98" y="705"/>
      <point x="48" y="651"/>
      <point x="43" y="571" type="curve" smooth="yes"/>
      <point x="41" y="534"/>
      <point x="41" y="512"/>
      <point x="43" y="478" type="curve" smooth="yes"/>
      <point x="48" y="398"/>
      <point x="103" y="348"/>
      <point x="193" y="348" type="curve" smooth="yes"/>
    </contour>
    <contour>
      <point x="150" y="423"/>
      <point x="136" y="454"/>
      <point x="134" y="483" type="curve" smooth="yes"/>
      <point x="132" y="516"/>
      <point x="132" y="535"/>
      <point x="134" y="566" type="curve" smooth="yes"/>
      <point x="136" y="596"/>
      <point x="151" y="627"/>
      <point x="192" y="627" type="curve" smooth="yes"/>
      <point x="234" y="627"/>
      <point x="249" y="596"/>
      <point x="251" y="566" type="curve" smooth="yes"/>
      <point x="253" y="535"/>
      <point x="253" y="516"/>
      <point x="251" y="483" type="curve" smooth="yes"/>
      <point x="248" y="454"/>
      <point x="234" y="423"/>
      <point x="192" y="423" type="curve" smooth="yes"/>
    </contour>
    <contour>
      <point x="682" y="-6"/>
      <point x="737" y="48"/>
      <point x="742" y="128" type="curve" smooth="yes"/>
      <point x="744" y="162"/>
      <point x="744" y="183"/>
      <point x="742" y="220" type="curve" smooth="yes"/>
      <point x="737" y="301"/>
      <point x="687" y="354"/>
      <point x="593" y="354" type="curve" smooth="yes"/>
      <point x="498" y="354"/>
      <point x="448" y="301"/>
      <point x="443" y="220" type="curve" smooth="yes"/>
      <point x="441" y="183"/>
      <point x="441" y="162"/>
      <point x="443" y="128" type="curve" smooth="yes"/>
      <point x="448" y="48"/>
      <point x="503" y="-6"/>
      <point x="593" y="-6" type="curve" smooth="yes"/>
    </contour>
    <contour>
      <point x="550" y="72"/>
      <point x="536" y="103"/>
      <point x="534" y="132" type="curve" smooth="yes"/>
      <point x="532" y="165"/>
      <point x="532" y="185"/>
      <point x="534" y="215" type="curve" smooth="yes"/>
      <point x="536" y="246"/>
      <point x="551" y="276"/>
      <point x="592" y="276" type="curve" smooth="yes"/>
      <point x="634" y="276"/>
      <point x="649" y="246"/>
      <point x="651" y="215" type="curve" smooth="yes"/>
      <point x="653" y="185"/>
      <point x="653" y="165"/>
      <point x="651" y="132" type="curve" smooth="yes"/>
      <point x="648" y="103"/>
      <point x="634" y="72"/>
      <point x="592" y="72" type="curve" smooth="yes"/>
    </contour>
    <contour>
      <point x="1023" y="-6"/>
      <point x="1078" y="48"/>
      <point x="1083" y="128" type="curve" smooth="yes"/>
      <point x="1085" y="162"/>
      <point x="1085" y="183"/>
      <point x="1083" y="220" type="curve" smooth="yes"/>
      <point x="1078" y="301"/>
      <point x="1028" y="354"/>
      <point x="934" y="354" type="curve" smooth="yes"/>
      <point x="839" y="354"/>
      <point x="789" y="301"/>
      <point x="784" y="220" type="curve" smooth="yes"/>
      <point x="782" y="183"/>
      <point x="782" y="162"/>
      <point x="784" y="128" type="curve" smooth="yes"/>
      <point x="789" y="48"/>
      <point x="844" y="-6"/>
      <point x="934" y="-6" type="curve" smooth="yes"/>
    </contour>
    <contour>
      <point x="891" y="72"/>
      <point x="877" y="103"/>
      <point x="875" y="132" type="curve" smooth="yes"/>
      <point x="873" y="165"/>
      <point x="873" y="185"/>
      <point x="875" y="215" type="curve" smooth="yes"/>
      <point x="877" y="246"/>
      <point x="892" y="276"/>
      <point x="933" y="276" type="curve" smooth="yes"/>
      <point x="975" y="276"/>
      <point x="990" y="246"/>
      <point x="992" y="215" type="curve" smooth="yes"/>
      <point x="994" y="185"/>
      <point x="994" y="165"/>
      <point x="992" y="132" type="curve" smooth="yes"/>
      <point x="989" y="103"/>
      <point x="975" y="72"/>
      <point x="933" y="72" type="curve" smooth="yes"/>
    </contour>
  </outline>
</glyph>
<glyph name="guilsinglleft" format="1">
  <advance width="349"/>
  <unicode hex="2039"/>
  <outline>
    <contour>
      <point x="284" y="75"/>
      <point x="293" y="84"/>
      <point x="293" y="96" type="curve" smooth="yes"/>
      <point x="293" y="165" type="line" smooth="yes"/>
      <point x="293" y="184"/>
      <point x="288" y="192"/>
      <point x="275" y="205" type="curve" smooth="yes"/>
      <point x="147" y="329" type="line"/>
      <point x="275" y="453" type="line" smooth="yes"/>
      <point x="288" y="466"/>
      <point x="293" y="474"/>
      <point x="293" y="493" type="curve" smooth="yes"/>
      <point x="293" y="562" type="line" smooth="yes"/>
      <point x="293" y="574"/>
      <point x="284" y="583"/>
      <point x="272" y="583" type="curve" smooth="yes"/>
      <point x="267" y="583"/>
      <point x="259" y="580"/>
      <point x="252" y="574" type="curve" smooth="yes"/>
      <point x="52" y="380" type="line" smooth="yes"/>
      <point x="41" y="369"/>
      <point x="37" y="359"/>
      <point x="36" y="347" type="curve" smooth="yes"/>
      <point x="36" y="311" type="line" smooth="yes"/>
      <point x="37" y="299"/>
      <point x="41" y="289"/>
      <point x="52" y="279" type="curve" smooth="yes"/>
      <point x="252" y="84" type="line" smooth="yes"/>
      <point x="259" y="78"/>
      <point x="267" y="75"/>
      <point x="272" y="75" type="curve" smooth="yes"/>
    </contour>
  </outline>
</glyph>
<glyph name="guilsinglright" format="1">
  <advance width="349"/>
  <unicode hex="203A"/>
  <outline>
    <contour>
      <point x="82" y="75"/>
      <point x="90" y="78"/>
      <point x="97" y="84" type="curve" smooth="yes"/>
      <point x="297" y="279" type="line" smooth="yes"/>
      <point x="308" y="289"/>
      <point x="312" y="299"/>
      <point x="313" y="311" type="curve" smooth="yes"/>
      <point x="313" y="347" type="line" smooth="yes"/>
      <point x="312" y="359"/>
      <point x="308" y="369"/>
      <point x="297" y="380" type="curve" smooth="yes"/>
      <point x="97" y="574" type="line" smooth="yes"/>
      <point x="90" y="580"/>
      <point x="82" y="583"/>
      <point x="77" y="583" type="curve" smooth="yes"/>
      <point x="65" y="583"/>
      <point x="56" y="574"/>
      <point x="56" y="562" type="curve" smooth="yes"/>
      <point x="56" y="493" type="line" smooth="yes"/>
      <point x="56" y="474"/>
      <point x="61" y="466"/>
      <point x="74" y="453" type="curve" smooth="yes"/>
      <point x="201" y="329" type="line"/>
      <point x="74" y="205" type="line" smooth="yes"/>
      <point x="61" y="192"/>
      <point x="56" y="184"/>
      <point x="56" y="165" type="curve" smooth="yes"/>
      <point x="56" y="96" type="line" smooth="yes"/>
      <point x="56" y="84"/>
      <point x="65" y="75"/>
      <point x="77" y="75" type="curve" smooth="yes"/>
    </contour>
  </outline>
</glyph>
<glyph name="fraction" format="1">
  <advance width="160"/>
  <unicode hex="2044"/>
  <outline>
    <contour>
      <point x="-155" y="0" type="line" smooth="yes"/>
      <point x="-137" y="0"/>
      <point x="-130" y="7"/>
      <point x="-121" y="19" type="curve" smooth="yes"/>
      <point x="372" y="669" type="line" smooth="yes"/>
      <point x="375" y="673"/>
      <point x="376" y="678"/>
      <point x="376" y="680" type="curve" smooth="yes"/>
      <point x="376" y="692"/>
      <point x="368" y="700"/>
      <point x="355" y="700" type="curve" smooth="yes"/>
      <point x="314" y="700" type="line" smooth="yes"/>
      <point x="296" y="700"/>
      <point x="289" y="693"/>
      <point x="280" y="681" type="curve" smooth="yes"/>
      <point x="-214" y="31" type="line" smooth="yes"/>
      <point x="-217" y="27"/>
      <point x="-218" y="22"/>
      <point x="-218" y="20" type="curve" smooth="yes"/>
      <point x="-218" y="8"/>
      <point x="-209" y="0"/>
      <point x="-196" y="0" type="curve" smooth="yes"/>
    </contour>
  </outline>
</glyph>
<glyph name="fourinferior" format="1">
  <advance width="359"/>
  <unicode hex="2084"/>
  <outline>
    <contour>
      <point x="258" y="-170" type="line" smooth="yes"/>
      <point x="271" y="-170"/>
      <point x="280" y="-161"/>
      <point x="280" y="-148" type="curve" smooth="yes"/>
      <point x="280" y="-107" type="line"/>
      <point x="315" y="-107" type="line" smooth="yes"/>
      <point x="328" y="-107"/>
      <point x="337" y="-98"/>
      <point x="337" y="-85" type="curve" smooth="yes"/>
      <point x="337" y="-50" type="line" smooth="yes"/>
      <point x="337" y="-37"/>
      <point x="328" y="-28"/>
      <point x="315" y="-28" type="curve" smooth="yes"/>
      <point x="280" y="-28" type="line"/>
      <point x="280" y="158" type="line" smooth="yes"/>
      <point x="280" y="171"/>
      <point x="271" y="180"/>
      <point x="258" y="180" type="curve" smooth="yes"/>
      <point x="196" y="180" type="line" smooth="yes"/>
      <point x="187" y="180"/>
      <point x="176" y="176"/>
      <point x="166" y="162" type="curve" smooth="yes"/>
      <point x="33" y="-19" type="line" smooth="yes"/>
      <point x="21" y="-35"/>
      <point x="21" y="-46"/>
      <point x="21" y="-49" type="curve" smooth="yes"/>
      <point x="21" y="-85" type="line" smooth="yes"/>
      <point x="21" y="-98"/>
      <point x="30" y="-107"/>
      <point x="43" y="-107" type="curve" smooth="yes"/>
      <point x="192" y="-107" type="line"/>
      <point x="192" y="-148" type="line" smooth="yes"/>
      <point x="192" y="-161"/>
      <point x="201" y="-170"/>
      <point x="214" y="-170" type="curve" smooth="yes"/>
    </contour>
    <contour>
      <point x="193" y="79" type="line"/>
      <point x="193" y="-30" type="line"/>
      <point x="116" y="-30" type="line"/>
    </contour>
  </outline>
</glyph>
<glyph name="seveninferior" format="1">
  <advance width="303"/>
  <unicode hex="2087"/>
  <outline>
    <contour>
      <point x="143" y="-170" type="line" smooth="yes"/>
      <point x="157" y="-170"/>
      <point x="164" y="-158"/>
      <point x="169" y="-146" type="curve" smooth="yes"/>
      <point x="276" y="98" type="line" smooth="yes"/>
      <point x="279" y="107"/>
      <point x="283" y="116"/>
      <point x="283" y="127" type="curve" smooth="yes"/>
      <point x="283" y="158" type="line" smooth="yes"/>
      <point x="283" y="171"/>
      <point x="274" y="180"/>
      <point x="261" y="180" type="curve" smooth="yes"/>
      <point x="42" y="180" type="line" smooth="yes"/>
      <point x="29" y="180"/>
      <point x="20" y="171"/>
      <point x="20" y="158" type="curve" smooth="yes"/>
      <point x="20" y="122" type="line" smooth="yes"/>
      <point x="20" y="109"/>
      <point x="29" y="100"/>
      <point x="42" y="100" type="curve" smooth="yes"/>
      <point x="182" y="100" type="line"/>
      <point x="80" y="-134" type="line" smooth="yes"/>
      <point x="78" y="-138"/>
      <point x="76" y="-146"/>
      <point x="76" y="-149" type="curve" smooth="yes"/>
      <point x="76" y="-161"/>
      <point x="83" y="-170"/>
      <point x="96" y="-170" type="curve" smooth="yes"/>
    </contour>
  </outline>
</glyph>
<glyph name="eightinferior" format="1">
  <advance width="353"/>
  <unicode hex="2088"/>
  <outline>
    <contour>
      <point x="271" y="-175"/>
      <point x="322" y="-126"/>
      <point x="322" y="-66" type="curve" smooth="yes"/>
      <point x="322" y="-32"/>
      <point x="307" y="-4"/>
      <point x="277" y="13" type="curve"/>
      <point x="298" y="27"/>
      <point x="311" y="51"/>
      <point x="311" y="82" type="curve" smooth="yes"/>
      <point x="311" y="135"/>
      <point x="269" y="185"/>
      <point x="176" y="185" type="curve" smooth="yes"/>
      <point x="83" y="185"/>
      <point x="43" y="135"/>
      <point x="43" y="82" type="curve" smooth="yes"/>
      <point x="43" y="51"/>
      <point x="57" y="26"/>
      <point x="78" y="13" type="curve"/>
      <point x="49" y="-5"/>
      <point x="32" y="-31"/>
      <point x="32" y="-65" type="curve" smooth="yes"/>
      <point x="32" y="-125"/>
      <point x="81" y="-175"/>
      <point x="176" y="-175" type="curve" smooth="yes"/>
    </contour>
    <contour>
      <point x="148" y="-107"/>
      <point x="118" y="-92"/>
      <point x="118" y="-65" type="curve" smooth="yes"/>
      <point x="118" y="-38"/>
      <point x="146" y="-24"/>
      <point x="176" y="-24" type="curve" smooth="yes"/>
      <point x="205" y="-24"/>
      <point x="233" y="-37"/>
      <point x="233" y="-65" type="curve" smooth="yes"/>
      <point x="233" y="-93"/>
      <point x="203" y="-107"/>
      <point x="176" y="-107" type="curve" smooth="yes"/>
    </contour>
    <contour>
      <point x="147" y="42"/>
      <point x="126" y="55"/>
      <point x="126" y="79" type="curve" smooth="yes"/>
      <point x="126" y="102"/>
      <point x="148" y="115"/>
      <point x="176" y="115" type="curve" smooth="yes"/>
      <point x="205" y="115"/>
      <point x="228" y="103"/>
      <point x="228" y="79" type="curve" smooth="yes"/>
      <point x="228" y="55"/>
      <point x="205" y="42"/>
      <point x="176" y="42" type="curve" smooth="yes"/>
    </contour>
  </outline>
</glyph>
<glyph name="parenleftinferior" format="1">
  <advance width="238"/>
  <unicode hex="208D"/>
  <outline>
    <contour>
      <point x="203" y="-225"/>
      <point x="212" y="-218"/>
      <point x="212" y="-203" type="curve" smooth="yes"/>
      <point x="212" y="-168" type="line" smooth="yes"/>
      <point x="212" y="-153"/>
      <point x="201" y="-147"/>
      <point x="185" y="-146" type="curve" smooth="yes"/>
      <point x="139" y="-142"/>
      <point x="117" y="-89"/>
      <point x="117" y="11" type="curve" smooth="yes"/>
      <point x="117" y="111"/>
      <point x="139" y="162"/>
      <point x="185" y="166" type="curve" smooth="yes"/>
      <point x="201" y="167"/>
      <point x="212" y="173"/>
      <point x="212" y="188" type="curve" smooth="yes"/>
      <point x="212" y="223" type="line" smooth="yes"/>
      <point x="212" y="238"/>
      <point x="203" y="245"/>
      <point x="188" y="245" type="curve" smooth="yes"/>
      <point x="107" y="245"/>
      <point x="33" y="189"/>
      <point x="33" y="11" type="curve" smooth="yes"/>
      <point x="33" y="-168"/>
      <point x="107" y="-225"/>
      <point x="188" y="-225" type="curve" smooth="yes"/>
    </contour>
  </outline>
</glyph>
<glyph name="parenrightinferior" format="1">
  <advance width="238"/>
  <unicode hex="208E"/>
  <outline>
    <contour>
      <point x="132" y="-225"/>
      <point x="206" y="-168"/>
      <point x="206" y="11" type="curve" smooth="yes"/>
      <point x="206" y="189"/>
      <point x="132" y="245"/>
      <point x="51" y="245" type="curve" smooth="yes"/>
      <point x="36" y="245"/>
      <point x="27" y="238"/>
      <point x="27" y="223" type="curve" smooth="yes"/>
      <point x="27" y="188" type="line" smooth="yes"/>
      <point x="27" y="173"/>
      <point x="38" y="167"/>
      <point x="54" y="166" type="curve" smooth="yes"/>
      <point x="100" y="162"/>
      <point x="122" y="111"/>
      <point x="122" y="11" type="curve" smooth="yes"/>
      <point x="122" y="-89"/>
      <point x="100" y="-142"/>
      <point x="54" y="-146" type="curve" smooth="yes"/>
      <point x="38" y="-147"/>
      <point x="27" y="-153"/>
      <point x="27" y="-168" type="curve" smooth="yes"/>
      <point x="27" y="-203" type="line" smooth="yes"/>
      <point x="27" y="-218"/>
      <point x="36" y="-225"/>
      <point x="51" y="-225" type="curve" smooth="yes"/>
    </contour>
  </outline>
</glyph>
<glyph name="trademark" format="1">
  <advance width="640"/>
  <unicode hex="2122"/>
  <outline>
    <contour>
      <point x="349" y="434" type="line" smooth="yes"/>
      <point x="362" y="434"/>
      <point x="371" y="443"/>
      <point x="371" y="456" type="curve" smooth="yes"/>
      <point x="371" y="564" type="line"/>
      <point x="399" y="518" type="line" smooth="yes"/>
      <point x="406" y="507"/>
      <point x="411" y="498"/>
      <point x="425" y="498" type="curve" smooth="yes"/>
      <point x="442" y="498" type="line" smooth="yes"/>
      <point x="456" y="498"/>
      <point x="461" y="507"/>
      <point x="468" y="518" type="curve" smooth="yes"/>
      <point x="496" y="564" type="line"/>
      <point x="496" y="456" type="line" smooth="yes"/>
      <point x="496" y="443"/>
      <point x="505" y="434"/>
      <point x="518" y="434" type="curve" smooth="yes"/>
      <point x="549" y="434" type="line" smooth="yes"/>
      <point x="562" y="434"/>
      <point x="571" y="443"/>
      <point x="571" y="456" type="curve" smooth="yes"/>
      <point x="571" y="678" type="line" smooth="yes"/>
      <point x="571" y="691"/>
      <point x="562" y="700"/>
      <point x="549" y="700" type="curve" smooth="yes"/>
      <point x="519" y="700" type="line" smooth="yes"/>
      <point x="504" y="700"/>
      <point x="495" y="687"/>
      <point x="489" y="678" type="curve" smooth="yes"/>
      <point x="433" y="589" type="line"/>
      <point x="378" y="678" type="line" smooth="yes"/>
      <point x="372" y="687"/>
      <point x="363" y="700"/>
      <point x="347" y="700" type="curve" smooth="yes"/>
      <point x="318" y="700" type="line" smooth="yes"/>
      <point x="305" y="700"/>
      <point x="296" y="691"/>
      <point x="296" y="678" type="curve" smooth="yes"/>
      <point x="296" y="456" type="line" smooth="yes"/>
      <point x="296" y="443"/>
      <point x="305" y="434"/>
      <point x="318" y="434" type="curve" smooth="yes"/>
    </contour>
    <contour>
      <point x="170" y="434" type="line" smooth="yes"/>
      <point x="183" y="434"/>
      <point x="192" y="443"/>
      <point x="192" y="456" type="curve" smooth="yes"/>
      <point x="192" y="627" type="line"/>
      <point x="244" y="627" type="line" smooth="yes"/>
      <point x="257" y="627"/>
      <point x="266" y="636"/>
      <point x="266" y="649" type="curve" smooth="yes"/>
      <point x="266" y="678" type="line" smooth="yes"/>
      <point x="266" y="691"/>
      <point x="257" y="700"/>
      <point x="244" y="700" type="curve" smooth="yes"/>
      <point x="65" y="700" type="line" smooth="yes"/>
      <point x="52" y="700"/>
      <point x="43" y="691"/>
      <point x="43" y="678" type="curve"/>
      <point x="43" y="649" type="line" smooth="yes"/>
      <point x="43" y="636"/>
      <point x="52" y="627"/>
      <point x="65" y="627" type="curve" smooth="yes"/>
      <point x="117" y="627" type="line"/>
      <point x="117" y="456" type="line" smooth="yes"/>
      <point x="117" y="443"/>
      <point x="126" y="434"/>
      <point x="139" y="434" type="curve" smooth="yes"/>
    </contour>
  </outline>
</glyph>
<glyph name="minus" format="1">
  <advance width="647"/>
  <unicode hex="2212"/>
  <outline>
    <contour>
      <point x="557" y="249" type="line" smooth="yes"/>
      <point x="570" y="249"/>
      <point x="581" y="260"/>
      <point x="581" y="273" type="curve" smooth="yes"/>
      <point x="581" y="327" type="line" smooth="yes"/>
      <point x="581" y="341"/>
      <point x="570" y="351"/>
      <point x="557" y="351" type="curve" smooth="yes"/>
      <point x="90" y="351" type="line" smooth="yes"/>
      <point x="76" y="351"/>
      <point x="66" y="341"/>
      <point x="66" y="327" type="curve" smooth="yes"/>
      <point x="66" y="273" type="line" smooth="yes"/>
      <point x="66" y="260"/>
      <point x="76" y="249"/>
      <point x="90" y="249" type="curve" smooth="yes"/>
    </contour>
  </outline>
</glyph>
<glyph name="notequal" format="1">
  <advance width="548"/>
  <unicode hex="2260"/>
  <outline>
    <contour>
      <point x="186" y="21" type="line"/>
      <point x="205" y="21"/>
      <point x="214" y="34"/>
      <point x="217" y="42" type="curve"/>
      <point x="251" y="123" type="line"/>
      <point x="469" y="123" type="line"/>
      <point x="482" y="123"/>
      <point x="493" y="133"/>
      <point x="493" y="147" type="curve"/>
      <point x="493" y="203" type="line"/>
      <point x="493" y="217"/>
      <point x="482" y="227"/>
      <point x="469" y="227" type="curve"/>
      <point x="295" y="227" type="line"/>
      <point x="355" y="373" type="line"/>
      <point x="469" y="373" type="line"/>
      <point x="482" y="373"/>
      <point x="493" y="383"/>
      <point x="493" y="397" type="curve"/>
      <point x="493" y="453" type="line"/>
      <point x="493" y="467"/>
      <point x="482" y="477"/>
      <point x="469" y="477" type="curve"/>
      <point x="399" y="477" type="line"/>
      <point x="429" y="548" type="line"/>
      <point x="431" y="553"/>
      <point x="432" y="557"/>
      <point x="432" y="559" type="curve" smooth="yes"/>
      <point x="432" y="571"/>
      <point x="422" y="580"/>
      <point x="411" y="580" type="curve"/>
      <point x="362" y="580" type="line"/>
      <point x="344" y="580"/>
      <point x="334" y="568"/>
      <point x="330" y="559" type="curve"/>
      <point x="296" y="477" type="line"/>
      <point x="81" y="477" type="line"/>
      <point x="67" y="477"/>
      <point x="57" y="467"/>
      <point x="57" y="453" type="curve"/>
      <point x="57" y="397" type="line"/>
      <point x="57" y="383"/>
      <point x="67" y="373"/>
      <point x="81" y="373" type="curve"/>
      <point x="253" y="373" type="line"/>
      <point x="192" y="227" type="line"/>
      <point x="81" y="227" type="line"/>
      <point x="67" y="227"/>
      <point x="57" y="217"/>
      <point x="57" y="203" type="curve"/>
      <point x="57" y="147" type="line"/>
      <point x="57" y="133"/>
      <point x="67" y="123"/>
      <point x="81" y="123" type="curve"/>
      <point x="149" y="123" type="line"/>
      <point x="120" y="53" type="line"/>
      <point x="118" y="48"/>
      <point x="117" y="44"/>
      <point x="117" y="42" type="curve" smooth="yes"/>
      <point x="117" y="30"/>
      <point x="127" y="21"/>
      <point x="138" y="21" type="curve"/>
    </contour>
  </outline>
</glyph>
<glyph name="lessequal" format="1">
  <advance width="539"/>
  <unicode hex="2264"/>
  <outline>
    <contour>
      <point x="459" y="194"/>
      <point x="468" y="202"/>
      <point x="468" y="214" type="curve" smooth="yes"/>
      <point x="468" y="273" type="line" smooth="yes"/>
      <point x="468" y="293"/>
      <point x="457" y="303"/>
      <point x="442" y="309" type="curve" smooth="yes"/>
      <point x="202" y="417" type="line"/>
      <point x="442" y="524" type="line" smooth="yes"/>
      <point x="457" y="530"/>
      <point x="468" y="540"/>
      <point x="468" y="560" type="curve" smooth="yes"/>
      <point x="468" y="619" type="line" smooth="yes"/>
      <point x="468" y="632"/>
      <point x="459" y="639"/>
      <point x="447" y="639" type="curve" smooth="yes"/>
      <point x="441" y="639"/>
      <point x="434" y="636"/>
      <point x="427" y="633" type="curve" smooth="yes"/>
      <point x="88" y="473" type="line" smooth="yes"/>
      <point x="67" y="462"/>
      <point x="59" y="451"/>
      <point x="59" y="431" type="curve"/>
      <point x="59" y="402" type="line" smooth="yes"/>
      <point x="59" y="383"/>
      <point x="67" y="371"/>
      <point x="88" y="361" type="curve" smooth="yes"/>
      <point x="427" y="201" type="line" smooth="yes"/>
      <point x="434" y="197"/>
      <point x="441" y="194"/>
      <point x="447" y="194" type="curve" smooth="yes"/>
    </contour>
    <contour>
      <point x="443" y="0" type="line" smooth="yes"/>
      <point x="457" y="0"/>
      <point x="468" y="10"/>
      <point x="468" y="24" type="curve" smooth="yes"/>
      <point x="468" y="78" type="line" smooth="yes"/>
      <point x="468" y="92"/>
      <point x="457" y="102"/>
      <point x="443" y="102" type="curve"/>
      <point x="83" y="102" type="line" smooth="yes"/>
      <point x="69" y="102"/>
      <point x="59" y="92"/>
      <point x="59" y="78" type="curve" smooth="yes"/>
      <point x="59" y="24" type="line" smooth="yes"/>
      <point x="59" y="10"/>
      <point x="69" y="0"/>
      <point x="83" y="0" type="curve" smooth="yes"/>
    </contour>
  </outline>
</glyph>
<glyph name="lozenge" format="1">
  <advance width="570"/>
  <unicode hex="25CA"/>
  <outline>
    <contour>
      <point x="306" y="0" type="line" smooth="yes"/>
      <point x="333" y="0"/>
      <point x="349" y="19"/>
      <point x="356" y="33" type="curve" smooth="yes"/>
      <point x="524" y="330" type="line" smooth="yes"/>
      <point x="528" y="338"/>
      <point x="532" y="346"/>
      <point x="532" y="355" type="curve" smooth="yes"/>
      <point x="532" y="364"/>
      <point x="528" y="373"/>
      <point x="524" y="381" type="curve" smooth="yes"/>
      <point x="356" y="677" type="line" smooth="yes"/>
      <point x="349" y="691"/>
      <point x="333" y="710"/>
      <point x="306" y="710" type="curve" smooth="yes"/>
      <point x="264" y="710" type="line" smooth="yes"/>
      <point x="237" y="710"/>
      <point x="221" y="691"/>
      <point x="214" y="677" type="curve" smooth="yes"/>
      <point x="46" y="381" type="line" smooth="yes"/>
      <point x="42" y="373"/>
      <point x="38" y="364"/>
      <point x="38" y="355" type="curve" smooth="yes"/>
      <point x="38" y="346"/>
      <point x="42" y="338"/>
      <point x="46" y="330" type="curve" smooth="yes"/>
      <point x="214" y="33" type="line" smooth="yes"/>
      <point x="221" y="19"/>
      <point x="237" y="0"/>
      <point x="264" y="0" type="curve" smooth="yes"/>
    </contour>
    <contour>
      <point x="154" y="355" type="line"/>
      <point x="285" y="593" type="line"/>
      <point x="416" y="355" type="line"/>
      <point x="285" y="118" type="line"/>
    </contour>
  </outline>
</glyph>
<glyph name="Acute" format="1">
  <advance width="376"/>
  <unicode hex="F6C9"/>
  <outline>
    <contour>
      <point x="148" y="750" type="line" smooth="yes"/>
      <point x="164" y="750"/>
      <point x="173" y="754"/>
      <point x="184" y="763" type="curve" smooth="yes"/>
      <point x="308" y="865" type="line" smooth="yes"/>
      <point x="311" y="868"/>
      <point x="313" y="872"/>
      <point x="313" y="877" type="curve" smooth="yes"/>
      <point x="313" y="889"/>
      <point x="306" y="897"/>
      <point x="294" y="897" type="curve" smooth="yes"/>
      <point x="186" y="897" type="line" smooth="yes"/>
      <point x="168" y="897"/>
      <point x="162" y="893"/>
      <point x="149" y="878" type="curve"/>
      <point x="67" y="779" type="line" smooth="yes"/>
      <point x="64" y="776"/>
      <point x="62" y="771"/>
      <point x="62" y="766" type="curve" smooth="yes"/>
      <point x="62" y="756"/>
      <point x="68" y="750"/>
      <point x="78" y="750" type="curve" smooth="yes"/>
    </contour>
  </outline>
</glyph>
<glyph name="Dieresis" format="1">
  <advance width="461"/>
  <unicode hex="F6CB"/>
  <outline>
    <contour>
      <point x="376" y="750" type="line" smooth="yes"/>
      <point x="389" y="750"/>
      <point x="399" y="759"/>
      <point x="399" y="772" type="curve" smooth="yes"/>
      <point x="399" y="846" type="line" smooth="yes"/>
      <point x="399" y="859"/>
      <point x="389" y="869"/>
      <point x="376" y="869" type="curve" smooth="yes"/>
      <point x="302" y="869" type="line" smooth="yes"/>
      <point x="289" y="869"/>
      <point x="280" y="859"/>
      <point x="280" y="846" type="curve" smooth="yes"/>
      <point x="280" y="772" type="line" smooth="yes"/>
      <point x="280" y="759"/>
      <point x="289" y="750"/>
      <point x="302" y="750" type="curve" smooth="yes"/>
    </contour>
    <contour>
      <point x="158" y="750" type="line" smooth="yes"/>
      <point x="171" y="750"/>
      <point x="181" y="759"/>
      <point x="181" y="772" type="curve" smooth="yes"/>
      <point x="181" y="846" type="line" smooth="yes"/>
      <point x="181" y="859"/>
      <point x="171" y="869"/>
      <point x="158" y="869" type="curve" smooth="yes"/>
      <point x="84" y="869" type="line" smooth="yes"/>
      <point x="71" y="869"/>
      <point x="62" y="859"/>
      <point x="62" y="846" type="curve" smooth="yes"/>
      <point x="62" y="772" type="line" smooth="yes"/>
      <point x="62" y="759"/>
      <point x="71" y="750"/>
      <point x="84" y="750" type="curve" smooth="yes"/>
    </contour>
  </outline>
</glyph>
<glyph name="Hungarumlaut" format="1">
  <advance width="518"/>
  <unicode hex="F6CF"/>
  <outline>
    <contour>
      <point x="318" y="750" type="line" smooth="yes"/>
      <point x="331" y="750"/>
      <point x="341" y="755"/>
      <point x="349" y="764" type="curve" smooth="yes"/>
      <point x="438" y="865" type="line" smooth="yes"/>
      <point x="442" y="868"/>
      <point x="444" y="873"/>
      <point x="444" y="878" type="curve" smooth="yes"/>
      <point x="444" y="890"/>
      <point x="436" y="897"/>
      <point x="424" y="897" type="curve" smooth="yes"/>
      <point x="336" y="897" type="line" smooth="yes"/>
      <point x="315" y="897"/>
      <point x="305" y="891"/>
      <point x="299" y="878" type="curve" smooth="yes"/>
      <point x="255" y="781" type="line" smooth="yes"/>
      <point x="253" y="777"/>
      <point x="250" y="771"/>
      <point x="250" y="766" type="curve" smooth="yes"/>
      <point x="250" y="756"/>
      <point x="256" y="750"/>
      <point x="266" y="750" type="curve" smooth="yes"/>
    </contour>
    <contour>
      <point x="130" y="750" type="line" smooth="yes"/>
      <point x="143" y="750"/>
      <point x="153" y="755"/>
      <point x="161" y="764" type="curve" smooth="yes"/>
      <point x="250" y="865" type="line" smooth="yes"/>
      <point x="254" y="868"/>
      <point x="256" y="873"/>
      <point x="256" y="878" type="curve" smooth="yes"/>
      <point x="256" y="890"/>
      <point x="248" y="897"/>
      <point x="236" y="897" type="curve" smooth="yes"/>
      <point x="148" y="897" type="line" smooth="yes"/>
      <point x="127" y="897"/>
      <point x="117" y="891"/>
      <point x="111" y="878" type="curve" smooth="yes"/>
      <point x="67" y="781" type="line" smooth="yes"/>
      <point x="65" y="777"/>
      <point x="62" y="771"/>
      <point x="62" y="766" type="curve" smooth="yes"/>
      <point x="62" y="756"/>
      <point x="68" y="750"/>
      <point x="78" y="750" type="curve" smooth="yes"/>
    </contour>
  </outline>
</glyph>
<glyph name="fi" format="1">
  <advance width="616"/>
  <unicode hex="FB01"/>
  <outline>
    <contour>
      <point x="229" y="0" type="line" smooth="yes"/>
      <point x="243" y="0"/>
      <point x="253" y="10"/>
      <point x="253" y="24" type="curve" smooth="yes"/>
      <point x="253" y="413" type="line"/>
      <point x="419" y="413" type="line"/>
      <point x="419" y="24" type="line" smooth="yes"/>
      <point x="419" y="10"/>
      <point x="429" y="0"/>
      <point x="443" y="0" type="curve" smooth="yes"/>
      <point x="525" y="0" type="line" smooth="yes"/>
      <point x="539" y="0"/>
      <point x="550" y="10"/>
      <point x="550" y="24" type="curve" smooth="yes"/>
      <point x="550" y="496" type="line" smooth="yes"/>
      <point x="550" y="510"/>
      <point x="539" y="520"/>
      <point x="525" y="520" type="curve" smooth="yes"/>
      <point x="253" y="520" type="line"/>
      <point x="253" y="555" type="line" smooth="yes"/>
      <point x="253" y="606"/>
      <point x="269" y="633"/>
      <point x="323" y="633" type="curve" smooth="yes"/>
      <point x="525" y="633" type="line" smooth="yes"/>
      <point x="539" y="633"/>
      <point x="550" y="644"/>
      <point x="550" y="657" type="curve" smooth="yes"/>
      <point x="550" y="716" type="line" smooth="yes"/>
      <point x="550" y="730"/>
      <point x="539" y="740"/>
      <point x="525" y="740" type="curve" smooth="yes"/>
      <point x="318" y="740" type="line" smooth="yes"/>
      <point x="187" y="740"/>
      <point x="122" y="681"/>
      <point x="122" y="560" type="curve" smooth="yes"/>
      <point x="122" y="520" type="line"/>
      <point x="41" y="520" type="line" smooth="yes"/>
      <point x="27" y="520"/>
      <point x="17" y="510"/>
      <point x="17" y="496" type="curve" smooth="yes"/>
      <point x="17" y="437" type="line" smooth="yes"/>
      <point x="17" y="424"/>
      <point x="27" y="413"/>
      <point x="41" y="413" type="curve" smooth="yes"/>
      <point x="122" y="413" type="line"/>
      <point x="122" y="24" type="line" smooth="yes"/>
      <point x="122" y="10"/>
      <point x="132" y="0"/>
      <point x="146" y="0" type="curve" smooth="yes"/>
    </contour>
  </outline>
</glyph>
<glyph name="Dotaccent" format="1">
  <advance width="253"/>
  <outline>
    <contour>
      <point x="169" y="750" type="line" smooth="yes"/>
      <point x="182" y="750"/>
      <point x="192" y="759"/>
      <point x="192" y="772" type="curve" smooth="yes"/>
      <point x="192" y="857" type="line" smooth="yes"/>
      <point x="192" y="870"/>
      <point x="182" y="880"/>
      <point x="169" y="880" type="curve" smooth="yes"/>
      <point x="84" y="880" type="line"/>
      <point x="71" y="880"/>
      <point x="62" y="870"/>
      <point x="62" y="857" type="curve" smooth="yes"/>
      <point x="62" y="772" type="line" smooth="yes"/>
      <point x="62" y="759"/>
      <point x="71" y="750"/>
      <point x="84" y="750" type="curve" smooth="yes"/>
    </contour>
  </outline>
</glyph>
<glyph name="Tilde" format="1">
  <advance width="447"/>
  <outline>
    <contour>
      <point x="345" y="745"/>
      <point x="377" y="815"/>
      <point x="377" y="856" type="curve" smooth="yes"/>
      <point x="377" y="865"/>
      <point x="370" y="873"/>
      <point x="360" y="873" type="curve" smooth="yes"/>
      <point x="313" y="873" type="line" smooth="yes"/>
      <point x="291" y="873"/>
      <point x="295" y="843"/>
      <point x="268" y="843" type="curve" smooth="yes"/>
      <point x="235" y="843"/>
      <point x="214" y="878"/>
      <point x="162" y="878" type="curve" smooth="yes"/>
      <point x="92" y="878"/>
      <point x="62" y="808"/>
      <point x="62" y="767" type="curve" smooth="yes"/>
      <point x="62" y="758"/>
      <point x="69" y="750"/>
      <point x="79" y="750" type="curve" smooth="yes"/>
      <point x="126" y="750" type="line" smooth="yes"/>
      <point x="147" y="750"/>
      <point x="144" y="780"/>
      <point x="171" y="780" type="curve" smooth="yes"/>
      <point x="203" y="780"/>
      <point x="225" y="745"/>
      <point x="276" y="745" type="curve" smooth="yes"/>
    </contour>
  </outline>
</glyph>
<glyph name="divide.cap" format="1">
  <advance width="544"/>
  <outline>
    <contour>
      <point x="466" y="298" type="line" smooth="yes"/>
      <point x="479" y="298"/>
      <point x="490" y="308"/>
      <point x="490" y="322" type="curve" smooth="yes"/>
      <point x="490" y="378" type="line" smooth="yes"/>
      <point x="490" y="392"/>
      <point x="479" y="402"/>
      <point x="466" y="402" type="curve" smooth="yes"/>
      <point x="78" y="402" type="line" smooth="yes"/>
      <point x="64" y="402"/>
      <point x="54" y="392"/>
      <point x="54" y="378" type="curve" smooth="yes"/>
      <point x="54" y="322" type="line" smooth="yes"/>
      <point x="54" y="308"/>
      <point x="64" y="298"/>
      <point x="78" y="298" type="curve" smooth="yes"/>
    </contour>
    <contour>
      <point x="312" y="106" type="line" smooth="yes"/>
      <point x="326" y="106"/>
      <point x="336" y="116"/>
      <point x="336" y="130" type="curve" smooth="yes"/>
      <point x="336" y="206" type="line" smooth="yes"/>
      <point x="336" y="220"/>
      <point x="326" y="230"/>
      <point x="312" y="230" type="curve" smooth="yes"/>
      <point x="232" y="230" type="line" smooth="yes"/>
      <point x="218" y="230"/>
      <point x="208" y="220"/>
      <point x="208" y="206" type="curve" smooth="yes"/>
      <point x="208" y="130" type="line" smooth="yes"/>
      <point x="208" y="116"/>
      <point x="218" y="106"/>
      <point x="232" y="106" type="curve" smooth="yes"/>
    </contour>
    <contour>
      <point x="312" y="470" type="line" smooth="yes"/>
      <point x="326" y="470"/>
      <point x="336" y="481"/>
      <point x="336" y="494" type="curve" smooth="yes"/>
      <point x="336" y="570" type="line" smooth="yes"/>
      <point x="336" y="584"/>
      <point x="326" y="595"/>
      <point x="312" y="595" type="curve" smooth="yes"/>
      <point x="232" y="595" type="line" smooth="yes"/>
      <point x="218" y="595"/>
      <point x="208" y="584"/>
      <point x="208" y="570" type="curve" smooth="yes"/>
      <point x="208" y="494" type="line" smooth="yes"/>
      <point x="208" y="481"/>
      <point x="218" y="470"/>
      <point x="232" y="470" type="curve" smooth="yes"/>
    </contour>
  </outline>
</glyph>
<glyph name="eight.otlf" format="1">
  <advance width="642"/>
  <outline>
    <contour>
      <point x="497" y="-10"/>
      <point x="599" y="80"/>
      <point x="599" y="205" type="curve" smooth="yes"/>
      <point x="599" y="282"/>
      <point x="558" y="342"/>
      <point x="496" y="372" type="curve"/>
      <point x="544" y="403"/>
      <point x="572" y="452"/>
      <point x="572" y="516" type="curve" smooth="yes"/>
      <point x="572" y="631"/>
      <point x="483" y="710"/>
      <point x="320" y="710" type="curve" smooth="yes"/>
      <point x="157" y="710"/>
      <point x="67" y="630"/>
      <point x="67" y="515" type="curve" smooth="yes"/>
      <point x="67" y="451"/>
      <point x="96" y="402"/>
      <point x="144" y="372" type="curve"/>
      <point x="84" y="342"/>
      <point x="42" y="283"/>
      <point x="42" y="206" type="curve" smooth="yes"/>
      <point x="42" y="80"/>
      <point x="143" y="-10"/>
      <point x="320" y="-10" type="curve" smooth="yes"/>
    </contour>
    <contour>
      <point x="244" y="95"/>
      <point x="183" y="137"/>
      <point x="183" y="205" type="curve" smooth="yes"/>
      <point x="183" y="274"/>
      <point x="244" y="315"/>
      <point x="321" y="315" type="curve" smooth="yes"/>
      <point x="397" y="315"/>
      <point x="458" y="274"/>
      <point x="458" y="205" type="curve" smooth="yes"/>
      <point x="458" y="137"/>
      <point x="397" y="95"/>
      <point x="321" y="95" type="curve" smooth="yes"/>
    </contour>
    <contour>
      <point x="252" y="416"/>
      <point x="200" y="452"/>
      <point x="200" y="510" type="curve" smooth="yes"/>
      <point x="200" y="568"/>
      <point x="252" y="605"/>
      <point x="320" y="605" type="curve" smooth="yes"/>
      <point x="389" y="605"/>
      <point x="441" y="568"/>
      <point x="441" y="510" type="curve" smooth="yes"/>
      <point x="441" y="453"/>
      <point x="387" y="417"/>
      <point x="320" y="416" type="curve" smooth="yes"/>
    </contour>
  </outline>
</glyph>
<glyph name="guillemetleft.cap" format="1">
  <advance width="624"/>
  <outline>
    <contour>
      <point x="555" y="84"/>
      <point x="564" y="93"/>
      <point x="564" y="105" type="curve" smooth="yes"/>
      <point x="564" y="174" type="line" smooth="yes"/>
      <point x="564" y="193"/>
      <point x="559" y="200"/>
      <point x="546" y="213" type="curve" smooth="yes"/>
      <point x="418" y="338" type="line"/>
      <point x="546" y="462" type="line" smooth="yes"/>
      <point x="559" y="475"/>
      <point x="564" y="483"/>
      <point x="564" y="502" type="curve" smooth="yes"/>
      <point x="564" y="571" type="line" smooth="yes"/>
      <point x="564" y="583"/>
      <point x="555" y="591"/>
      <point x="543" y="591" type="curve" smooth="yes"/>
      <point x="538" y="591"/>
      <point x="530" y="589"/>
      <point x="523" y="582" type="curve" smooth="yes"/>
      <point x="323" y="388" type="line" smooth="yes"/>
      <point x="312" y="378"/>
      <point x="308" y="368"/>
      <point x="307" y="356" type="curve" smooth="yes"/>
      <point x="307" y="319" type="line" smooth="yes"/>
      <point x="308" y="308"/>
      <point x="312" y="298"/>
      <point x="323" y="287" type="curve" smooth="yes"/>
      <point x="523" y="93" type="line" smooth="yes"/>
      <point x="530" y="87"/>
      <point x="538" y="84"/>
      <point x="543" y="84" type="curve" smooth="yes"/>
    </contour>
    <contour>
      <point x="289" y="84"/>
      <point x="298" y="93"/>
      <point x="298" y="105" type="curve" smooth="yes"/>
      <point x="298" y="174" type="line" smooth="yes"/>
      <point x="298" y="193"/>
      <point x="293" y="200"/>
      <point x="280" y="213" type="curve" smooth="yes"/>
      <point x="152" y="338" type="line"/>
      <point x="280" y="462" type="line" smooth="yes"/>
      <point x="293" y="475"/>
      <point x="298" y="483"/>
      <point x="298" y="502" type="curve" smooth="yes"/>
      <point x="298" y="571" type="line" smooth="yes"/>
      <point x="298" y="583"/>
      <point x="289" y="591"/>
      <point x="277" y="591" type="curve" smooth="yes"/>
      <point x="272" y="591"/>
      <point x="264" y="589"/>
      <point x="257" y="582" type="curve" smooth="yes"/>
      <point x="57" y="388" type="line" smooth="yes"/>
      <point x="46" y="378"/>
      <point x="42" y="368"/>
      <point x="41" y="356" type="curve"/>
      <point x="41" y="319" type="line" smooth="yes"/>
      <point x="42" y="308"/>
      <point x="46" y="298"/>
      <point x="57" y="287" type="curve" smooth="yes"/>
      <point x="257" y="93" type="line" smooth="yes"/>
      <point x="264" y="87"/>
      <point x="272" y="84"/>
      <point x="277" y="84" type="curve" smooth="yes"/>
    </contour>
  </outline>
</glyph>
<glyph name="guilsinglright.cap" format="1">
  <advance width="358"/>
  <outline>
    <contour>
      <point x="86" y="84"/>
      <point x="94" y="87"/>
      <point x="101" y="93" type="curve" smooth="yes"/>
      <point x="301" y="287" type="line" smooth="yes"/>
      <point x="312" y="298"/>
      <point x="316" y="308"/>
      <point x="317" y="319" type="curve" smooth="yes"/>
      <point x="317" y="356" type="line" smooth="yes"/>
      <point x="316" y="368"/>
      <point x="312" y="378"/>
      <point x="301" y="388" type="curve" smooth="yes"/>
      <point x="101" y="582" type="line" smooth="yes"/>
      <point x="94" y="589"/>
      <point x="86" y="591"/>
      <point x="81" y="591" type="curve" smooth="yes"/>
      <point x="69" y="591"/>
      <point x="60" y="583"/>
      <point x="60" y="571" type="curve" smooth="yes"/>
      <point x="60" y="502" type="line" smooth="yes"/>
      <point x="60" y="483"/>
      <point x="65" y="475"/>
      <point x="78" y="462" type="curve" smooth="yes"/>
      <point x="205" y="338" type="line"/>
      <point x="78" y="213" type="line" smooth="yes"/>
      <point x="65" y="200"/>
      <point x="60" y="193"/>
      <point x="60" y="174" type="curve" smooth="yes"/>
      <point x="60" y="105" type="line" smooth="yes"/>
      <point x="60" y="93"/>
      <point x="69" y="84"/>
      <point x="81" y="84" type="curve" smooth="yes"/>
    </contour>
  </outline>
</glyph>
<glyph name="hyphen.cap" format="1">
  <advance width="488"/>
  <outline>
    <contour>
      <point x="398" y="292" type="line" smooth="yes"/>
      <point x="411" y="292"/>
      <point x="422" y="303"/>
      <point x="422" y="316" type="curve" smooth="yes"/>
      <point x="422" y="384" type="line" smooth="yes"/>
      <point x="422" y="398"/>
      <point x="411" y="408"/>
      <point x="398" y="408" type="curve" smooth="yes"/>
      <point x="90" y="408" type="line" smooth="yes"/>
      <point x="76" y="408"/>
      <point x="66" y="398"/>
      <point x="66" y="384" type="curve" smooth="yes"/>
      <point x="66" y="316" type="line" smooth="yes"/>
      <point x="66" y="303"/>
      <point x="76" y="292"/>
      <point x="90" y="292" type="curve" smooth="yes"/>
    </contour>
  </outline>
</glyph>
<glyph name="one.otlf" format="1">
  <advance width="642"/>
  <outline>
    <contour>
      <point x="563" y="0" type="line"/>
      <point x="578" y="0"/>
      <point x="588" y="10"/>
      <point x="588" y="24" type="curve"/>
      <point x="588" y="96" type="line"/>
      <point x="588" y="111"/>
      <point x="578" y="121"/>
      <point x="563" y="121" type="curve"/>
      <point x="416" y="121" type="line"/>
      <point x="416" y="676" type="line"/>
      <point x="416" y="690"/>
      <point x="406" y="700"/>
      <point x="392" y="700" type="curve"/>
      <point x="302" y="700" type="line"/>
      <point x="293" y="700"/>
      <point x="286" y="699"/>
      <point x="278" y="693" type="curve"/>
      <point x="83" y="543" type="line"/>
      <point x="71" y="535"/>
      <point x="69" y="520"/>
      <point x="77" y="509" type="curve"/>
      <point x="120" y="453" type="line"/>
      <point x="129" y="442"/>
      <point x="142" y="439"/>
      <point x="154" y="448" type="curve"/>
      <point x="275" y="540" type="line"/>
      <point x="275" y="121" type="line"/>
      <point x="105" y="121" type="line"/>
      <point x="90" y="121"/>
      <point x="80" y="111"/>
      <point x="80" y="96" type="curve"/>
      <point x="80" y="24" type="line"/>
      <point x="80" y="10"/>
      <point x="90" y="0"/>
      <point x="105" y="0" type="curve"/>
    </contour>
  </outline>
</glyph>
<glyph name="parenleft.otlf" format="1">
  <advance width="642"/>
  <outline>
    <contour>
      <point x="463" y="-117"/>
      <point x="474" y="-106"/>
      <point x="474" y="-93" type="curve" smooth="yes"/>
      <point x="474" y="-32" type="line" smooth="yes"/>
      <point x="474" y="-19"/>
      <point x="463" y="-8"/>
      <point x="452" y="-8" type="curve" smooth="yes"/>
      <point x="342" y="-4"/>
      <point x="307" y="106"/>
      <point x="307" y="351" type="curve" smooth="yes"/>
      <point x="307" y="596"/>
      <point x="342" y="705"/>
      <point x="452" y="709" type="curve" smooth="yes"/>
      <point x="463" y="709"/>
      <point x="474" y="720"/>
      <point x="474" y="733" type="curve" smooth="yes"/>
      <point x="474" y="794" type="line" smooth="yes"/>
      <point x="474" y="807"/>
      <point x="463" y="818"/>
      <point x="450" y="818" type="curve" smooth="yes"/>
      <point x="272" y="818"/>
      <point x="185" y="681"/>
      <point x="185" y="351" type="curve" smooth="yes"/>
      <point x="185" y="21"/>
      <point x="272" y="-117"/>
      <point x="450" y="-117" type="curve" smooth="yes"/>
    </contour>
  </outline>
</glyph>
<glyph name="parenright.cap" format="1">
  <advance width="382"/>
  <outline>
    <contour>
      <point x="241" y="-117"/>
      <point x="327" y="21"/>
      <point x="327" y="351" type="curve" smooth="yes"/>
      <point x="327" y="681"/>
      <point x="241" y="818"/>
      <point x="62" y="818" type="curve" smooth="yes"/>
      <point x="49" y="818"/>
      <point x="38" y="807"/>
      <point x="38" y="794" type="curve" smooth="yes"/>
      <point x="38" y="733" type="line" smooth="yes"/>
      <point x="38" y="720"/>
      <point x="49" y="709"/>
      <point x="60" y="709" type="curve" smooth="yes"/>
      <point x="171" y="705"/>
      <point x="205" y="596"/>
      <point x="205" y="351" type="curve" smooth="yes"/>
      <point x="205" y="106"/>
      <point x="171" y="-4"/>
      <point x="60" y="-8" type="curve" smooth="yes"/>
      <point x="49" y="-8"/>
      <point x="38" y="-19"/>
      <point x="38" y="-32" type="curve" smooth="yes"/>
      <point x="38" y="-93" type="line" smooth="yes"/>
      <point x="38" y="-106"/>
      <point x="49" y="-117"/>
      <point x="62" y="-117" type="curve" smooth="yes"/>
    </contour>
  </outline>
</glyph>
<glyph name="plus.cap" format="1">
  <advance width="616"/>
  <outline>
    <contour>
      <point x="338" y="81" type="line" smooth="yes"/>
      <point x="352" y="81"/>
      <point x="362" y="91"/>
      <point x="362" y="105" type="curve" smooth="yes"/>
      <point x="362" y="300" type="line"/>
      <point x="553" y="300" type="line" smooth="yes"/>
      <point x="567" y="300"/>
      <point x="577" y="310"/>
      <point x="577" y="324" type="curve" smooth="yes"/>
      <point x="577" y="377" type="line" smooth="yes"/>
      <point x="577" y="391"/>
      <point x="567" y="402"/>
      <point x="553" y="402" type="curve" smooth="yes"/>
      <point x="362" y="402" type="line"/>
      <point x="362" y="591" type="line" smooth="yes"/>
      <point x="362" y="605"/>
      <point x="352" y="615"/>
      <point x="338" y="615" type="curve" smooth="yes"/>
      <point x="278" y="615" type="line" smooth="yes"/>
      <point x="265" y="615"/>
      <point x="254" y="605"/>
      <point x="254" y="591" type="curve" smooth="yes"/>
      <point x="254" y="402" type="line"/>
      <point x="63" y="402" type="line" smooth="yes"/>
      <point x="49" y="402"/>
      <point x="39" y="391"/>
      <point x="39" y="377" type="curve" smooth="yes"/>
      <point x="39" y="324" type="line" smooth="yes"/>
      <point x="39" y="310"/>
      <point x="49" y="300"/>
      <point x="63" y="300" type="curve" smooth="yes"/>
      <point x="254" y="300" type="line"/>
      <point x="254" y="105" type="line" smooth="yes"/>
      <point x="254" y="91"/>
      <point x="265" y="81"/>
      <point x="278" y="81" type="curve" smooth="yes"/>
    </contour>
  </outline>
</glyph>
